STARTFONT 2.1
COMMENT ========================================================== 
COMMENT                Wen Quan Yi Bitmap Song 
COMMENT ----------------------------------------------------------
COMMENT Summary:
COMMENT 
COMMENT     Developer: The WenQuanYi Project
COMMENT     Webpage  : http://wqy.sourceforge.net/en/
COMMENT     Font Name: WenQuanYi Bitmap Song
COMMENT     Version  : 0.6 (half-teal)
COMMENT     Release  : 2
COMMENT     Date     : 2005/8/8
COMMENT     Copyright: 2004,2005, The WenQuanYi Project Board of Trustees
COMMENT     License  : GPL
COMMENT 
COMMENT           May the Font be with you, forever!
COMMENT ----------------------------------------------------------
COMMENT The bitmap font in this package includes complete CJK Unified 
COMMENT Ideographics (U4E00~U9FA5) glyphs at four different sizes 
COMMENT (9pt-12X12 pixel, 10pt-13X13 pixel, 11pt-15X15 pixel,
COMMENT and 12pt-16X16pt) and two weights (medium and bold). 
COMMENT This font can be used for displaying Chinese on various 
COMMENT computer operating systems, especially on all distributions 
COMMENT of Linux. Using bitmap Chinese font can overcome the 
COMMENT blurring problem for many True-Type Chinese font due to 
COMMENT anti-aliasing and insufficiency in hinting methods for 
COMMENT Chinese characters.
COMMENT ----------------------------------------------------------
COMMENT Project start date          2004/10/26
COMMENT GBK char finish date        2005/4/10
COMMENT Sourceforge registration    2005/1/7
COMMENT CJK char. total             20902
COMMENT Total glyphs from firefly   15832X3
COMMENT Total glyphs from Redflag   20902(12pt)
COMMENT New glyphs number           15210
COMMENT Improved glyph number       > 35,000
COMMENT Group number(101 char each) 207
COMMENT Online editing group        53
COMMENT Offline editing group       154
COMMENT Webspace provider           sitaphi.com,Dartmouth CSSA,sourceforge
COMMENT 
COMMENT New wiki page number        3663+34

STARTCHAR .notdef
ENCODING 0
SWIDTH 600 0
DWIDTH 8 0
BBX 8 13 0 -3
BITMAP
FF
81
81
81
81
81
81
81
81
81
81
81
FF
ENDCHAR
STARTCHAR zero
ENCODING 48
SWIDTH 636 0
DWIDTH 9 0
BBX 7 11 1 0
BITMAP
38
44
82
82
82
82
82
82
82
44
38
ENDCHAR
STARTCHAR one
ENCODING 49
SWIDTH 636 0
DWIDTH 9 0
BBX 5 11 2 0
BITMAP
20
E0
20
20
20
20
20
20
20
20
F8
ENDCHAR
STARTCHAR two
ENCODING 50
SWIDTH 636 0
DWIDTH 9 0
BBX 7 11 1 0
BITMAP
38
44
82
02
04
08
10
20
40
80
FE
ENDCHAR
STARTCHAR three
ENCODING 51
SWIDTH 636 0
DWIDTH 9 0
BBX 7 11 1 0
BITMAP
78
84
02
02
04
38
04
02
02
84
78
ENDCHAR
STARTCHAR four
ENCODING 52
SWIDTH 636 0
DWIDTH 9 0
BBX 7 11 1 0
BITMAP
04
0C
14
24
44
44
84
FE
04
04
04
ENDCHAR
STARTCHAR five
ENCODING 53
SWIDTH 636 0
DWIDTH 9 0
BBX 7 10 1 0
BITMAP
FC
80
80
B8
C4
02
02
02
84
78
ENDCHAR
STARTCHAR six
ENCODING 54
SWIDTH 636 0
DWIDTH 9 0
BBX 7 11 1 0
BITMAP
38
44
80
80
B8
C4
82
82
82
44
38
ENDCHAR
STARTCHAR seven
ENCODING 55
SWIDTH 636 0
DWIDTH 9 0
BBX 7 11 1 0
BITMAP
FE
02
04
04
08
08
10
10
20
20
20
ENDCHAR
STARTCHAR eight
ENCODING 56
SWIDTH 636 0
DWIDTH 9 0
BBX 7 11 1 0
BITMAP
38
44
82
82
44
38
44
82
82
44
38
ENDCHAR
STARTCHAR nine
ENCODING 57
SWIDTH 636 0
DWIDTH 9 0
BBX 7 11 1 0
BITMAP
38
44
82
82
82
46
3A
02
02
04
78
ENDCHAR
STARTCHAR A
ENCODING 65
SWIDTH 684 0
DWIDTH 10 0
BBX 9 11 0 0
BITMAP
0800
0800
1400
1400
2200
2200
2200
7F00
4100
8080
8080
ENDCHAR
STARTCHAR B
ENCODING 66
SWIDTH 686 0
DWIDTH 10 0
BBX 7 11 1 0
BITMAP
F8
84
82
82
84
F8
84
82
82
84
F8
ENDCHAR
STARTCHAR C
ENCODING 67
SWIDTH 698 0
DWIDTH 10 0
BBX 8 11 1 0
BITMAP
3E
41
80
80
80
80
80
80
80
41
3E
ENDCHAR
STARTCHAR D
ENCODING 68
SWIDTH 770 0
DWIDTH 11 0
BBX 9 11 1 0
BITMAP
FC00
8200
8100
8080
8080
8080
8080
8080
8100
8200
FC00
ENDCHAR
STARTCHAR E
ENCODING 69
SWIDTH 631 0
DWIDTH 9 0
BBX 7 11 1 0
BITMAP
FE
80
80
80
80
FE
80
80
80
80
FE
ENDCHAR
STARTCHAR F
ENCODING 70
SWIDTH 575 0
DWIDTH 8 0
BBX 6 11 1 0
BITMAP
FC
80
80
80
80
FC
80
80
80
80
80
ENDCHAR
STARTCHAR G
ENCODING 71
SWIDTH 774 0
DWIDTH 11 0
BBX 9 11 1 0
BITMAP
3E00
4100
8000
8000
8000
8780
8080
8080
8080
4100
3E00
ENDCHAR
STARTCHAR H
ENCODING 72
SWIDTH 751 0
DWIDTH 11 0
BBX 8 11 1 0
BITMAP
81
81
81
81
81
FF
81
81
81
81
81
ENDCHAR
STARTCHAR I
ENCODING 73
SWIDTH 294 0
DWIDTH 4 0
BBX 1 11 1 0
BITMAP
80
80
80
80
80
80
80
80
80
80
80
ENDCHAR
STARTCHAR J
ENCODING 74
SWIDTH 294 0
DWIDTH 4 0
BBX 4 14 -1 -3
BITMAP
10
10
10
10
10
10
10
10
10
10
10
10
20
C0
ENDCHAR
STARTCHAR K
ENCODING 75
SWIDTH 655 0
DWIDTH 9 0
BBX 7 11 1 0
BITMAP
82
84
88
90
A0
C0
A0
90
88
84
82
ENDCHAR
STARTCHAR L
ENCODING 76
SWIDTH 557 0
DWIDTH 8 0
BBX 7 11 1 0
BITMAP
80
80
80
80
80
80
80
80
80
80
FE
ENDCHAR
STARTCHAR M
ENCODING 77
SWIDTH 862 0
DWIDTH 12 0
BBX 9 11 1 0
BITMAP
C180
C180
A280
A280
9480
9480
8880
8880
8080
8080
8080
ENDCHAR
STARTCHAR N
ENCODING 78
SWIDTH 748 0
DWIDTH 10 0
BBX 8 11 1 0
BITMAP
C1
C1
A1
A1
91
91
89
89
85
83
83
ENDCHAR
STARTCHAR O
ENCODING 79
SWIDTH 787 0
DWIDTH 11 0
BBX 9 11 1 0
BITMAP
1C00
2200
4100
8080
8080
8080
8080
8080
4100
2200
1C00
ENDCHAR
STARTCHAR P
ENCODING 80
SWIDTH 603 0
DWIDTH 8 0
BBX 7 11 1 0
BITMAP
F8
84
82
82
82
84
F8
80
80
80
80
ENDCHAR
STARTCHAR Q
ENCODING 81
SWIDTH 787 0
DWIDTH 11 0
BBX 9 13 1 -2
BITMAP
1C00
2200
4100
8080
8080
8080
8080
8080
4100
2200
1C00
0200
0100
ENDCHAR
STARTCHAR R
ENCODING 82
SWIDTH 694 0
DWIDTH 10 0
BBX 8 11 1 0
BITMAP
F8
84
82
82
82
84
F8
88
84
82
81
ENDCHAR
STARTCHAR S
ENCODING 83
SWIDTH 634 0
DWIDTH 9 0
BBX 7 11 1 0
BITMAP
38
44
80
80
40
38
04
02
02
84
78
ENDCHAR
STARTCHAR T
ENCODING 84
SWIDTH 610 0
DWIDTH 9 0
BBX 9 11 0 0
BITMAP
FF80
0800
0800
0800
0800
0800
0800
0800
0800
0800
0800
ENDCHAR
STARTCHAR U
ENCODING 85
SWIDTH 731 0
DWIDTH 10 0
BBX 8 11 1 0
BITMAP
81
81
81
81
81
81
81
81
81
42
3C
ENDCHAR
STARTCHAR V
ENCODING 86
SWIDTH 684 0
DWIDTH 10 0
BBX 9 11 0 0
BITMAP
8080
8080
8080
4100
4100
2200
2200
1400
1400
0800
0800
ENDCHAR
STARTCHAR W
ENCODING 87
SWIDTH 988 0
DWIDTH 14 0
BBX 11 11 2 0
BITMAP
8020
8420
8420
8420
4A40
4A40
5140
5140
2080
2080
2080
ENDCHAR
STARTCHAR X
ENCODING 88
SWIDTH 685 0
DWIDTH 10 0
BBX 8 11 1 0
BITMAP
81
81
42
24
18
18
24
42
42
81
81
ENDCHAR
STARTCHAR Y
ENCODING 89
SWIDTH 610 0
DWIDTH 9 0
BBX 7 11 1 0
BITMAP
82
82
44
44
28
28
10
10
10
10
10
ENDCHAR
STARTCHAR Z
ENCODING 90
SWIDTH 685 0
DWIDTH 10 0
BBX 8 11 1 0
BITMAP
FF
01
02
04
08
10
20
40
80
80
FF
ENDCHAR
STARTCHAR a
ENCODING 97
SWIDTH 612 0
DWIDTH 9 0
BBX 6 8 1 0
BITMAP
78
84
04
7C
84
84
8C
74
ENDCHAR
STARTCHAR b
ENCODING 98
SWIDTH 634 0
DWIDTH 9 0
BBX 7 11 1 0
BITMAP
80
80
80
B8
C4
82
82
82
82
C4
B8
ENDCHAR
STARTCHAR c
ENCODING 99
SWIDTH 549 0
DWIDTH 8 0
BBX 6 8 1 0
BITMAP
38
44
80
80
80
80
44
38
ENDCHAR
STARTCHAR d
ENCODING 100
SWIDTH 634 0
DWIDTH 9 0
BBX 7 11 1 0
BITMAP
02
02
02
3A
46
82
82
82
82
46
3A
ENDCHAR
STARTCHAR e
ENCODING 101
SWIDTH 615 0
DWIDTH 9 0
BBX 7 8 1 0
BITMAP
38
44
82
FE
80
80
42
3C
ENDCHAR
STARTCHAR f
ENCODING 102
SWIDTH 352 0
DWIDTH 5 0
BBX 5 11 0 0
BITMAP
18
20
20
F8
20
20
20
20
20
20
20
ENDCHAR
STARTCHAR g
ENCODING 103
SWIDTH 634 0
DWIDTH 9 0
BBX 7 11 1 -3
BITMAP
3A
46
82
82
82
82
46
3A
02
04
78
ENDCHAR
STARTCHAR h
ENCODING 104
SWIDTH 633 0
DWIDTH 9 0
BBX 7 11 1 0
BITMAP
80
80
80
BC
C2
82
82
82
82
82
82
ENDCHAR
STARTCHAR i
ENCODING 105
SWIDTH 277 0
DWIDTH 4 0
BBX 1 11 1 0
BITMAP
80
80
00
80
80
80
80
80
80
80
80
ENDCHAR
STARTCHAR j
ENCODING 106
SWIDTH 277 0
DWIDTH 4 0
BBX 3 14 0 -3
BITMAP
20
20
00
20
20
20
20
20
20
20
20
20
20
C0
ENDCHAR
STARTCHAR k
ENCODING 107
SWIDTH 579 0
DWIDTH 8 0
BBX 6 11 1 0
BITMAP
80
80
84
88
90
A0
C0
A0
90
88
84
ENDCHAR
STARTCHAR l
ENCODING 108
SWIDTH 277 0
DWIDTH 4 0
BBX 1 11 1 0
BITMAP
80
80
80
80
80
80
80
80
80
80
80
ENDCHAR
STARTCHAR m
ENCODING 109
SWIDTH 974 0
DWIDTH 14 0
BBX 11 8 1 0
BITMAP
B9C0
C620
8420
8420
8420
8420
8420
8420
ENDCHAR
STARTCHAR n
ENCODING 110
SWIDTH 633 0
DWIDTH 9 0
BBX 7 8 1 0
BITMAP
BC
C2
82
82
82
82
82
82
ENDCHAR
STARTCHAR o
ENCODING 111
SWIDTH 611 0
DWIDTH 9 0
BBX 7 8 1 0
BITMAP
38
44
82
82
82
82
44
38
ENDCHAR
STARTCHAR p
ENCODING 112
SWIDTH 634 0
DWIDTH 9 0
BBX 7 11 1 -3
BITMAP
B8
C4
82
82
82
82
C4
B8
80
80
80
ENDCHAR
STARTCHAR q
ENCODING 113
SWIDTH 634 0
DWIDTH 9 0
BBX 7 11 1 -3
BITMAP
3A
46
82
82
82
82
46
3A
02
02
02
ENDCHAR
STARTCHAR r
ENCODING 114
SWIDTH 411 0
DWIDTH 6 0
BBX 5 8 1 0
BITMAP
B8
C0
80
80
80
80
80
80
ENDCHAR
STARTCHAR s
ENCODING 115
SWIDTH 520 0
DWIDTH 7 0
BBX 6 8 1 0
BITMAP
78
84
80
60
18
04
84
78
ENDCHAR
STARTCHAR t
ENCODING 116
SWIDTH 392 0
DWIDTH 5 0
BBX 5 10 0 0
BITMAP
40
40
F8
40
40
40
40
40
40
38
ENDCHAR
STARTCHAR u
ENCODING 117
SWIDTH 633 0
DWIDTH 9 0
BBX 7 8 1 0
BITMAP
82
82
82
82
82
82
46
3A
ENDCHAR
STARTCHAR v
ENCODING 118
SWIDTH 591 0
DWIDTH 8 0
BBX 6 8 1 0
BITMAP
84
84
84
48
48
48
30
30
ENDCHAR
STARTCHAR w
ENCODING 119
SWIDTH 817 0
DWIDTH 11 0
BBX 9 8 1 0
BITMAP
8880
8880
8880
5500
5500
5500
2200
2200
ENDCHAR
STARTCHAR x
ENCODING 120
SWIDTH 591 0
DWIDTH 8 0
BBX 6 8 1 0
BITMAP
84
84
48
30
30
48
84
84
ENDCHAR
STARTCHAR y
ENCODING 121
SWIDTH 591 0
DWIDTH 8 0
BBX 6 11 1 -3
BITMAP
84
84
44
48
28
28
10
10
10
20
C0
ENDCHAR
STARTCHAR z
ENCODING 122
SWIDTH 524 0
DWIDTH 7 0
BBX 6 8 1 0
BITMAP
FC
04
08
10
20
40
80
FC
ENDCHAR
STARTCHAR nonbreakingspace
ENCODING 160
SWIDTH 636 0
DWIDTH 9 0
BBX 1 1 0 0
BITMAP
00
ENDCHAR
STARTCHAR U_4E00
ENCODING 19968
SWIDTH 1000 0
DWIDTH 15 0
BBX 15 14 0 -1
BITMAP
0000
0000
0000
0000
0000
000C
FFFE
0000
0000
0000
0000
0000
0000
0000
ENDCHAR
STARTCHAR U_4E01
ENCODING 19969
SWIDTH 1000 0
DWIDTH 15 0
BBX 15 14 0 -1
BITMAP
0018
FFFC
0300
0300
0300
0300
0300
0300
0300
0300
0300
0300
0F00
0600
ENDCHAR
STARTCHAR U_4E02
ENCODING 19970
SWIDTH 1000 0
DWIDTH 15 0
BBX 15 14 0 -1
BITMAP
000C
FFFE
0600
0600
0C00
0C00
0FF8
0018
0018
0018
0030
0030
01E0
00C0
ENDCHAR
STARTCHAR U_4E03
ENCODING 19971
SWIDTH 1000 0
DWIDTH 15 0
BBX 15 14 0 -1
BITMAP
0600
0600
0600
0600
063C
07E0
FE00
0600
0600
0600
060C
060C
060C
03FC
ENDCHAR
STARTCHAR U_4E04
ENCODING 19972
SWIDTH 1000 0
DWIDTH 15 0
BBX 15 14 0 -1
BITMAP
0300
0300
0300
0300
0300
0300
0300
0300
0300
0300
0300
030C
FFFE
0000
ENDCHAR
STARTCHAR U_4E05
ENCODING 19973
SWIDTH 1000 0
DWIDTH 15 0
BBX 15 14 0 -1
BITMAP
000C
FFFE
0300
0300
0300
0300
0300
0300
0300
0300
0300
0300
0300
0300
ENDCHAR
STARTCHAR U_4E06
ENCODING 19974
SWIDTH 1000 0
DWIDTH 15 0
BBX 15 14 0 -1
BITMAP
0000
0018
7FFC
0180
0180
0300
0600
0600
0C00
1800
7000
0000
0000
0000
ENDCHAR
STARTCHAR U_4E07
ENCODING 19975
SWIDTH 1000 0
DWIDTH 15 0
BBX 15 14 0 -1
BITMAP
0000
FFFC
0600
0600
0600
07F0
0630
0630
0C30
0C30
1830
1830
31E0
E0C0
ENDCHAR
STARTCHAR U_4E08
ENCODING 19976
SWIDTH 1000 0
DWIDTH 15 0
BBX 15 14 0 -1
BITMAP
0180
0180
0198
FFFC
0180
0180
1980
1980
0F00
0F00
0700
0780
1CE0
F03C
ENDCHAR
STARTCHAR U_4E09
ENCODING 19977
SWIDTH 1000 0
DWIDTH 15 0
BBX 15 14 0 -1
BITMAP
0030
7FF8
0000
0000
0000
0060
3FF0
0000
0000
0000
0018
FFFC
0000
0000
ENDCHAR
STARTCHAR U_4E0A
ENCODING 19978
SWIDTH 1000 0
DWIDTH 15 0
BBX 15 14 0 -1
BITMAP
0600
0600
0600
0600
0600
07F8
0600
0600
0600
0600
0600
0600
060C
FFFE
ENDCHAR
STARTCHAR U_4E0B
ENCODING 19979
SWIDTH 1000 0
DWIDTH 15 0
BBX 15 14 0 -1
BITMAP
0018
FFFC
0300
0300
0300
0380
03C0
0370
0330
0300
0300
0300
0300
0300
ENDCHAR
STARTCHAR U_4E0C
ENCODING 19980
SWIDTH 1000 0
DWIDTH 15 0
BBX 15 14 0 -1
BITMAP
000C
FFFE
0630
0630
0630
0630
0630
0630
0630
0630
0C30
0C30
1830
7030
ENDCHAR
STARTCHAR U_4E0D
ENCODING 19981
SWIDTH 1000 0
DWIDTH 15 0
BBX 15 14 0 -1
BITMAP
0018
FFFC
0180
0180
0300
07C0
0F60
1B38
331C
630C
C300
0300
0300
0300
ENDCHAR
STARTCHAR U_4E0E
ENCODING 19982
SWIDTH 1000 0
DWIDTH 15 0
BBX 15 14 0 -1
BITMAP
1800
1818
1FFC
1800
1800
1FF8
0018
0018
0018
FFD8
0018
0018
00F0
0060
ENDCHAR
STARTCHAR U_4E0F
ENCODING 19983
SWIDTH 1000 0
DWIDTH 15 0
BBX 15 14 0 -1
BITMAP
000C
FFFE
0300
3300
33F8
3318
6318
7FF8
0018
0018
0018
0018
00F0
0060
ENDCHAR
STARTCHAR U_4E10
ENCODING 19984
SWIDTH 1000 0
DWIDTH 15 0
BBX 15 14 0 -1
BITMAP
0018
FFFC
0300
0300
33F8
3300
3300
7FF8
0018
0018
0018
0018
00F0
0060
ENDCHAR
STARTCHAR U_4E11
ENCODING 19985
SWIDTH 1000 0
DWIDTH 15 0
BBX 15 14 0 -1
BITMAP
0030
3FF8
0630
0630
0630
0630
0630
3FF0
0C30
0C30
0C30
0C30
0C30
FFFC
ENDCHAR
STARTCHAR U_4E12
ENCODING 19986
SWIDTH 1000 0
DWIDTH 15 0
BBX 15 14 0 -1
BITMAP
3FFC
030C
030C
030C
1B0C
0E0C
070C
0F0C
0C18
1818
30F0
6060
000C
FFFE
ENDCHAR
STARTCHAR U_4E13
ENCODING 19987
SWIDTH 1000 0
DWIDTH 15 0
BBX 15 14 0 -1
BITMAP
0600
0630
7FF8
0C00
0C18
FFFC
1800
1FE0
0060
00C0
0F80
0380
00E0
0060
ENDCHAR
STARTCHAR U_4E14
ENCODING 19988
SWIDTH 1000 0
DWIDTH 15 0
BBX 15 14 0 -1
BITMAP
0000
1FE0
1860
1860
1860
1FE0
1860
1860
1860
1FE0
1860
1860
186C
FFFE
ENDCHAR
STARTCHAR U_4E15
ENCODING 19989
SWIDTH 1000 0
DWIDTH 15 0
BBX 15 14 0 -1
BITMAP
000C
FFFE
0180
0180
0300
0760
0F30
1B18
330C
630C
0300
0300
030C
FFFE
ENDCHAR
STARTCHAR U_4E16
ENCODING 19990
SWIDTH 1000 0
DWIDTH 15 0
BBX 15 14 0 -1
BITMAP
0030
0330
3330
3330
FFFC
3330
3330
3330
3330
33F0
3330
3000
3000
3FFC
ENDCHAR
STARTCHAR U_4E17
ENCODING 19991
SWIDTH 1000 0
DWIDTH 15 0
BBX 15 14 0 -1
BITMAP
0300
3330
3330
333C
FFFE
3330
3330
3330
3330
3330
3330
3330
3FF0
3030
ENDCHAR
STARTCHAR U_4E18
ENCODING 19992
SWIDTH 1000 0
DWIDTH 15 0
BBX 15 14 0 -1
BITMAP
0070
1FC0
1800
1800
1800
1818
1FFC
18C0
18C0
18C0
18C0
18C0
18CC
FFFE
ENDCHAR
STARTCHAR U_4E19
ENCODING 19993
SWIDTH 1000 0
DWIDTH 15 0
BBX 15 14 0 -1
BITMAP
000C
FFFE
0300
0300
0300
7FFC
630C
638C
66CC
6C6C
786C
600C
603C
6018
ENDCHAR
STARTCHAR U_4E1A
ENCODING 19994
SWIDTH 1000 0
DWIDTH 15 0
BBX 15 14 0 -1
BITMAP
0CC0
0CC0
0CC0
0CC0
CCD8
6CD8
6CF0
3CF0
3CE0
3CC0
0CC0
0CC0
0CC0
FFFC
ENDCHAR
STARTCHAR U_4E1B
ENCODING 19995
SWIDTH 1000 0
DWIDTH 15 0
BBX 15 14 0 -1
BITMAP
18C0
18C0
18C0
18C0
18C0
1CC0
1EC0
37E0
31E0
6330
C618
0C00
0018
FFFC
ENDCHAR
STARTCHAR U_4E1C
ENCODING 19996
SWIDTH 1000 0
DWIDTH 15 0
BBX 15 14 0 -1
BITMAP
0600
0600
FFFC
0C00
1B00
1B00
3300
3FF0
0300
1B60
3330
6318
CF18
0600
ENDCHAR
STARTCHAR U_4E1D
ENCODING 19997
SWIDTH 1000 0
DWIDTH 15 0
BBX 15 14 0 -1
BITMAP
1860
1860
30C0
30C0
6798
6DB0
FBE0
1860
30C0
6180
FFF8
0000
0000
FFFC
ENDCHAR
STARTCHAR U_4E1E
ENCODING 19998
SWIDTH 1000 0
DWIDTH 15 0
BBX 15 14 0 -1
BITMAP
3FF0
0060
06C0
0380
FF18
0FB0
0FE0
1B60
3330
6318
CF0C
0600
0018
FFFC
ENDCHAR
STARTCHAR U_4E1F
ENCODING 19999
SWIDTH 1000 0
DWIDTH 15 0
BBX 15 14 0 -1
BITMAP
0018
7FFC
0300
0300
3FF8
0300
0300
FFFE
0300
06C0
0C60
19F0
3F38
0018
ENDCHAR
STARTCHAR U_4E20
ENCODING 20000
SWIDTH 1000 0
DWIDTH 15 0
BBX 15 14 0 -1
BITMAP
06C0
06C0
06C6
FECE
06F8
06E0
06C0
0EC0
1EC6
F6C6
66C6
067C
0000
FFFE
ENDCHAR
STARTCHAR U_4E21
ENCODING 20001
SWIDTH 1000 0
DWIDTH 15 0
BBX 15 14 0 -1
BITMAP
000C
7FFE
0180
0180
3FFC
318C
3DBC
3DBC
3DBC
3FFC
3C3C
300C
303C
3018
ENDCHAR
STARTCHAR U_4E22
ENCODING 20002
SWIDTH 1000 0
DWIDTH 15 0
BBX 15 14 0 -1
BITMAP
00F0
7F80
0300
0300
7FF8
0300
0300
FFFC
0600
0CC0
1860
7FF0
3018
0000
ENDCHAR
STARTCHAR U_4E23
ENCODING 20003
SWIDTH 1000 0
DWIDTH 15 0
BBX 15 14 0 -1
BITMAP
000C
FFFE
06C0
06C0
7EFC
66CC
66CC
66CC
7EFC
06C0
0CC0
0CC0
18C0
70C0
ENDCHAR
STARTCHAR U_4E24
ENCODING 20004
SWIDTH 1000 0
DWIDTH 15 0
BBX 15 14 0 -1
BITMAP
0018
FFFC
0CC0
0CC0
7FF8
6D98
6D98
6D98
7FD8
7B78
7378
6618
6078
6030
ENDCHAR
STARTCHAR U_4E25
ENCODING 20005
SWIDTH 1000 0
DWIDTH 15 0
BBX 15 14 0 -1
BITMAP
3FFE
0360
1B6C
0F78
0F78
3FFE
3000
3000
3000
3000
3000
3000
6000
C000
ENDCHAR
STARTCHAR U_4E26
ENCODING 20006
SWIDTH 1000 0
DWIDTH 15 0
BBX 15 14 0 -1
BITMAP
300C
1818
0C30
7FFE
0660
6666
3666
3E6C
1E6C
1E78
1E70
0660
0660
FFFE
ENDCHAR
STARTCHAR U_4E27
ENCODING 20007
SWIDTH 1000 0
DWIDTH 15 0
BBX 15 14 0 -1
BITMAP
0300
0300
7FF8
0300
1B30
0F60
03C0
FFFC
1B00
1B38
19E0
18C0
1F70
3C1C
ENDCHAR
STARTCHAR U_4E28
ENCODING 20008
SWIDTH 1000 0
DWIDTH 15 0
BBX 15 14 0 -1
BITMAP
0300
0380
0300
0300
0300
0300
0300
0300
0300
0300
0300
0300
0300
0300
ENDCHAR
STARTCHAR U_4E29
ENCODING 20009
SWIDTH 1000 0
DWIDTH 15 0
BBX 15 14 0 -1
BITMAP
0060
0C60
0C60
0C60
0C60
0C60
0C60
0CE0
0FE0
1E60
0C60
0060
0060
0060
ENDCHAR
STARTCHAR U_4E2A
ENCODING 20010
SWIDTH 1000 0
DWIDTH 15 0
BBX 15 14 0 -1
BITMAP
0300
0300
0780
0CC0
1860
3330
E31E
030C
0300
0300
0300
0300
0300
0300
ENDCHAR
STARTCHAR U_4E2B
ENCODING 20011
SWIDTH 1000 0
DWIDTH 15 0
BBX 15 14 0 -1
BITMAP
3030
1860
0CC0
0D80
0300
0300
0300
0300
0300
0300
0300
0300
0300
0000
ENDCHAR
STARTCHAR U_4E2C
ENCODING 20012
SWIDTH 1000 0
DWIDTH 15 0
BBX 15 14 0 -1
BITMAP
0060
0060
0C60
0760
0360
0060
0060
01E0
0760
1C60
0C60
0060
0060
0060
ENDCHAR
STARTCHAR U_4E2D
ENCODING 20013
SWIDTH 1000 0
DWIDTH 15 0
BBX 15 14 0 -1
BITMAP
0180
0180
0180
3FFC
318C
318C
318C
3FFC
318C
0180
0180
0180
0180
0180
ENDCHAR
STARTCHAR U_4E2E
ENCODING 20014
SWIDTH 1000 0
DWIDTH 15 0
BBX 15 14 0 -1
BITMAP
0030
FFF8
0C30
0C30
0C30
7FB0
0C30
0C30
0C30
FFD8
0C1E
0C1E
0C0E
0C06
ENDCHAR
STARTCHAR U_4E2F
ENCODING 20015
SWIDTH 1000 0
DWIDTH 15 0
BBX 15 14 0 -1
BITMAP
0000
0180
018C
01B8
07E0
3D8C
01B8
07E0
3D8C
01B8
07E0
7D80
0180
0180
ENDCHAR
STARTCHAR U_4E30
ENCODING 20016
SWIDTH 1000 0
DWIDTH 15 0
BBX 15 14 0 -1
BITMAP
0300
0330
7FF8
0300
0300
0360
3FF0
0300
0300
0318
FFFC
0300
0300
0300
ENDCHAR
STARTCHAR U_4E31
ENCODING 20017
SWIDTH 1000 0
DWIDTH 15 0
BBX 15 14 0 -1
BITMAP
06C0
06C0
66CC
66CC
66CC
66CC
66CC
7EFC
76CC
06C0
0CC0
0CC0
18C0
30C0
ENDCHAR
STARTCHAR U_4E32
ENCODING 20018
SWIDTH 1000 0
DWIDTH 15 0
BBX 15 14 0 -1
BITMAP
0600
0600
7FE0
6660
6660
7FE0
0600
FFF0
C630
C630
FFF0
C630
0600
0600
ENDCHAR
STARTCHAR U_4E33
ENCODING 20019
SWIDTH 1000 0
DWIDTH 15 0
BBX 15 14 0 -1
BITMAP
0360
0360
1FFC
1B6C
1FFC
0360
0360
3FFE
3366
3FFE
0360
0360
0660
1C60
ENDCHAR
STARTCHAR U_4E34
ENCODING 20020
SWIDTH 1000 0
DWIDTH 15 0
BBX 15 14 0 -1
BITMAP
0300
1B18
1BFC
DB00
DEC0
DC60
D860
DFF8
DED8
DED8
DED8
1ED8
1FF8
1E18
ENDCHAR
STARTCHAR U_4E35
ENCODING 20021
SWIDTH 1000 0
DWIDTH 15 0
BBX 15 14 0 -1
BITMAP
03C0
63CC
3BCC
1BD8
FFFE
0C30
0660
03C0
3FFC
0180
0180
FFFE
0180
0180
ENDCHAR
STARTCHAR U_4E36
ENCODING 20022
SWIDTH 1000 0
DWIDTH 15 0
BBX 15 14 0 -1
BITMAP
0000
0000
0000
0600
0300
01C0
00E0
0060
0000
0000
0000
0000
0000
0000
ENDCHAR
STARTCHAR U_4E37
ENCODING 20023
SWIDTH 1000 0
DWIDTH 15 0
BBX 15 14 0 -1
BITMAP
0000
0000
0000
3038
1830
0E60
06C0
0180
0000
0000
0000
0000
0000
0000
ENDCHAR
STARTCHAR U_4E38
ENCODING 20024
SWIDTH 1000 0
DWIDTH 15 0
BBX 15 14 0 -1
BITMAP
0C00
0C00
0C00
0CC0
7FE0
0CC0
0CC0
3CC0
1CC0
0FC0
1BC0
30CC
60CC
C07C
ENDCHAR
STARTCHAR U_4E39
ENCODING 20025
SWIDTH 1000 0
DWIDTH 15 0
BBX 15 14 0 -1
BITMAP
0FF0
0C30
0C30
0F30
0DF0
0CF0
0C30
7FFE
0C30
0C30
1830
1830
30F0
6060
ENDCHAR
STARTCHAR U_4E3A
ENCODING 20026
SWIDTH 1000 0
DWIDTH 15 0
BBX 15 14 0 -1
BITMAP
0300
3300
1B00
1B00
0318
FFFC
0318
0318
0798
06D8
0CD8
1818
30F0
6060
ENDCHAR
STARTCHAR U_4E3B
ENCODING 20027
SWIDTH 1000 0
DWIDTH 15 0
BBX 15 14 0 -1
BITMAP
0300
0180
0180
7FFE
0180
0180
0180
0180
3FFC
0180
0180
0180
0180
7FFE
ENDCHAR
STARTCHAR U_4E3C
ENCODING 20028
SWIDTH 1000 0
DWIDTH 15 0
BBX 15 14 0 -1
BITMAP
0C60
0C60
0C60
3FF8
0C60
0F60
0DE0
FFFE
0C60
0C60
1860
1860
3060
6060
ENDCHAR
STARTCHAR U_4E3D
ENCODING 20029
SWIDTH 1000 0
DWIDTH 15 0
BBX 15 14 0 -1
BITMAP
FFFC
0000
0000
7FF8
6798
6798
6798
77D8
7FF8
7FF8
6798
6798
7FF8
6DB0
ENDCHAR
STARTCHAR U_4E3E
ENCODING 20030
SWIDTH 1000 0
DWIDTH 15 0
BBX 15 14 0 -1
BITMAP
6C60
3670
1B60
1BC0
FFFC
0CC0
1B60
3330
FFFC
0300
7FF8
0300
0300
0300
ENDCHAR
STARTCHAR U_4E3F
ENCODING 20031
SWIDTH 1000 0
DWIDTH 15 0
BBX 15 14 0 -1
BITMAP
00C0
00E0
00C0
00C0
00C0
00C0
00C0
00C0
0180
0180
0300
0300
0600
0C00
ENDCHAR
STARTCHAR U_4E40
ENCODING 20032
SWIDTH 1000 0
DWIDTH 15 0
BBX 15 14 0 -1
BITMAP
0000
1800
1800
3C00
6C00
C600
0600
0300
0180
00C0
0060
0038
001E
000C
ENDCHAR
STARTCHAR U_4E41
ENCODING 20033
SWIDTH 1000 0
DWIDTH 15 0
BBX 15 14 0 -1
BITMAP
0000
FFE0
0060
0060
0060
0060
0060
0060
0030
0030
0018
0018
000C
0006
ENDCHAR
STARTCHAR U_4E42
ENCODING 20034
SWIDTH 1000 0
DWIDTH 15 0
BBX 15 14 0 -1
BITMAP
0030
1838
1830
1860
0C60
0CC0
06C0
0780
0300
0300
0780
0CE0
383C
E018
ENDCHAR
STARTCHAR U_4E43
ENCODING 20035
SWIDTH 1000 0
DWIDTH 15 0
BBX 15 14 0 -1
BITMAP
0030
7FF8
0630
0630
0660
0660
06FC
0C0C
0C0C
0C0C
180C
300C
60D8
C070
ENDCHAR
STARTCHAR U_4E44
ENCODING 20036
SWIDTH 1000 0
DWIDTH 15 0
BBX 15 14 0 -1
BITMAP
0000
000C
000C
000C
0318
0198
00F0
0038
006E
C0C6
C380
DE00
F000
0000
ENDCHAR
STARTCHAR U_4E45
ENCODING 20037
SWIDTH 1000 0
DWIDTH 15 0
BBX 15 14 0 -1
BITMAP
0C00
0C00
1980
1FC0
3180
6180
C300
0300
0300
0780
0CC0
1860
303C
E018
ENDCHAR
STARTCHAR U_4E46
ENCODING 20038
SWIDTH 1000 0
DWIDTH 15 0
BBX 15 14 0 -1
BITMAP
0C00
0C60
0C60
0CC0
18C0
3FC0
18C0
00C0
01E0
0360
0630
0C18
180C
700E
ENDCHAR
STARTCHAR U_4E47
ENCODING 20039
SWIDTH 1000 0
DWIDTH 15 0
BBX 15 14 0 -1
BITMAP
0078
03C0
7E00
0600
0600
0618
067C
07C0
FE00
0600
060C
060C
060E
03FC
ENDCHAR
STARTCHAR U_4E48
ENCODING 20040
SWIDTH 1000 0
DWIDTH 15 0
BBX 15 14 0 -1
BITMAP
0300
0300
0600
0600
0CC0
0CC0
18C0
3180
6180
0330
0618
0DFC
3F0C
180C
ENDCHAR
STARTCHAR U_4E49
ENCODING 20041
SWIDTH 1000 0
DWIDTH 15 0
BBX 15 14 0 -1
BITMAP
0C30
3630
3360
3360
1860
18C0
0CC0
0D80
0780
0300
0780
0CC0
3870
E01C
ENDCHAR
STARTCHAR U_4E4A
ENCODING 20042
SWIDTH 1000 0
DWIDTH 15 0
BBX 15 14 0 -1
BITMAP
0000
001E
03F0
7E00
0018
001C
3018
1830
0C30
0660
0660
00C0
0000
0000
ENDCHAR
STARTCHAR U_4E4B
ENCODING 20043
SWIDTH 1000 0
DWIDTH 15 0
BBX 15 14 0 -1
BITMAP
0C00
0700
0360
7FF0
0060
00C0
0180
0300
0600
0C00
1800
3800
EC00
C7FE
ENDCHAR
STARTCHAR U_4E4C
ENCODING 20044
SWIDTH 1000 0
DWIDTH 15 0
BBX 15 14 0 -1
BITMAP
0600
0C00
3FC0
30C0
30C0
33C0
31B0
3FF8
0030
0030
FFB0
0030
01E0
00C0
ENDCHAR
STARTCHAR U_4E4D
ENCODING 20045
SWIDTH 1000 0
DWIDTH 15 0
BBX 15 14 0 -1
BITMAP
1800
1800
1818
3FFC
6600
6600
C7F0
0600
0600
07F8
0600
0600
0600
0600
ENDCHAR
STARTCHAR U_4E4E
ENCODING 20046
SWIDTH 1000 0
DWIDTH 15 0
BBX 15 14 0 -1
BITMAP
01F8
7F00
0300
3330
1B60
1B60
0300
FFFC
0300
0300
0300
0300
0F00
0600
ENDCHAR
STARTCHAR U_4E4F
ENCODING 20047
SWIDTH 1000 0
DWIDTH 15 0
BBX 15 14 0 -1
BITMAP
0060
01F0
7F00
0600
0300
0360
7FF0
00C0
0180
0700
0C00
3800
EC00
C7F8
ENDCHAR
STARTCHAR U_4E50
ENCODING 20048
SWIDTH 1000 0
DWIDTH 15 0
BBX 15 14 0 -1
BITMAP
00F0
3F80
3000
3180
3180
3198
3FFC
0D80
0DE0
19B0
3198
619C
C78C
0300
ENDCHAR
STARTCHAR U_4E51
ENCODING 20049
SWIDTH 1000 0
DWIDTH 15 0
BBX 15 14 0 -1
BITMAP
0018
01FC
7F00
0318
0F30
0FE0
1BC0
33C0
6F60
0F30
1B18
330E
6300
0000
ENDCHAR
STARTCHAR U_4E52
ENCODING 20050
SWIDTH 1000 0
DWIDTH 15 0
BBX 15 14 0 -1
BITMAP
0070
1FC0
1800
1800
1FF8
18C0
18C0
18C0
18CC
FFFE
0000
1800
3000
E000
ENDCHAR
STARTCHAR U_4E53
ENCODING 20051
SWIDTH 1000 0
DWIDTH 15 0
BBX 15 14 0 -1
BITMAP
0070
1FC0
1800
1800
1FF8
18C0
18C0
18C0
18D8
FFFC
0000
0060
0038
0018
ENDCHAR
STARTCHAR U_4E54
ENCODING 20052
SWIDTH 1000 0
DWIDTH 15 0
BBX 15 14 0 -1
BITMAP
0078
3FC0
0300
030C
FFFE
0CC0
1870
3C7E
EC60
0C60
0C60
0C60
1860
3060
ENDCHAR
STARTCHAR U_4E55
ENCODING 20053
SWIDTH 1000 0
DWIDTH 15 0
BBX 15 14 0 -1
BITMAP
003C
3FE0
3180
3FF8
3180
3FFE
3180
3180
3FF8
3D98
3D98
3DF8
6DB0
C180
ENDCHAR
STARTCHAR U_4E56
ENCODING 20054
SWIDTH 1000 0
DWIDTH 15 0
BBX 15 14 0 -1
BITMAP
0060
03C0
7F00
0300
FFFC
1B60
1B6C
7B78
1B70
1B6C
3B6C
FB3C
0300
0300
ENDCHAR
STARTCHAR U_4E57
ENCODING 20055
SWIDTH 1000 0
DWIDTH 15 0
BBX 15 14 0 -1
BITMAP
00F8
3F80
0180
3FFC
0DE0
0DE0
FFFE
0DE0
3FFC
07C0
0DE0
19B0
319E
E18C
ENDCHAR
STARTCHAR U_4E58
ENCODING 20056
SWIDTH 1000 0
DWIDTH 15 0
BBX 15 14 0 -1
BITMAP
00E0
7F80
0300
FFFC
0360
1B6C
FB78
1B6C
3FFC
EFC0
1B60
3330
E31C
0300
ENDCHAR
STARTCHAR U_4E59
ENCODING 20057
SWIDTH 1000 0
DWIDTH 15 0
BBX 15 14 0 -1
BITMAP
0000
7FF0
0060
00C0
0180
0300
0600
0C00
1800
3000
600C
600C
600C
3FFC
ENDCHAR
STARTCHAR U_4E5A
ENCODING 20058
SWIDTH 1000 0
DWIDTH 15 0
BBX 15 14 0 -1
BITMAP
1800
1800
1800
1800
1800
1800
1800
1800
1800
1830
1830
1838
0FF0
0000
ENDCHAR
STARTCHAR U_4E5B
ENCODING 20059
SWIDTH 1000 0
DWIDTH 15 0
BBX 15 14 0 -1
BITMAP
0000
000C
FFFE
000C
0018
0030
0000
0000
0000
0000
0000
0000
0000
0000
ENDCHAR
STARTCHAR U_4E5C
ENCODING 20060
SWIDTH 1000 0
DWIDTH 15 0
BBX 15 14 0 -1
BITMAP
1800
1830
1838
19F0
1F30
F830
1830
1830
18F0
186C
180C
180C
0FFC
0000
ENDCHAR
STARTCHAR U_4E5D
ENCODING 20061
SWIDTH 1000 0
DWIDTH 15 0
BBX 15 14 0 -1
BITMAP
0C00
0C00
0C00
0CC0
FFE0
0CC0
0CC0
0CC0
0CC0
18C0
18CC
30CC
60CC
C07C
ENDCHAR
STARTCHAR U_4E5E
ENCODING 20062
SWIDTH 1000 0
DWIDTH 15 0
BBX 15 14 0 -1
BITMAP
1800
1800
1FF0
3000
6000
C000
3FC0
0300
0600
0C00
1818
3018
3018
1FF8
ENDCHAR
STARTCHAR U_4E5F
ENCODING 20063
SWIDTH 1000 0
DWIDTH 15 0
BBX 15 14 0 -1
BITMAP
0300
0300
3330
3338
33F0
3F30
F330
3330
3330
3360
330C
300C
300C
1FFC
ENDCHAR
STARTCHAR U_4E60
ENCODING 20064
SWIDTH 1000 0
DWIDTH 15 0
BBX 15 14 0 -1
BITMAP
0030
FFF8
0030
3030
1C30
0C30
0030
01B0
0730
1C30
F030
6030
00F0
0060
ENDCHAR
STARTCHAR U_4E61
ENCODING 20065
SWIDTH 1000 0
DWIDTH 15 0
BBX 15 14 0 -1
BITMAP
0180
0180
0300
0600
0C60
1FE0
0180
0318
06F0
1FB0
0060
00C0
0780
7C00
ENDCHAR
STARTCHAR U_4E62
ENCODING 20066
SWIDTH 1000 0
DWIDTH 15 0
BBX 15 14 0 -1
BITMAP
0000
0CC0
0CC0
0CC0
3FC0
3FC0
3FC0
3FC0
3FC0
3FC0
3FC6
3FC6
707E
0000
ENDCHAR
STARTCHAR U_4E63
ENCODING 20067
SWIDTH 1000 0
DWIDTH 15 0
BBX 15 14 0 -1
BITMAP
0CC0
0CC0
18C0
18C0
33C0
7FC0
06C0
0CC0
0CC0
18C0
30C0
66C6
7FC6
037C
ENDCHAR
STARTCHAR U_4E64
ENCODING 20068
SWIDTH 1000 0
DWIDTH 15 0
BBX 15 14 0 -1
BITMAP
000C
FFFE
0300
0370
031C
030C
0300
FFF8
0070
01C0
0700
3C06
6006
3FFE
ENDCHAR
STARTCHAR U_4E65
ENCODING 20069
SWIDTH 1000 0
DWIDTH 15 0
BBX 15 14 0 -1
BITMAP
003C
FFE0
6018
3030
1860
0000
FFFC
0070
01C0
0700
1C00
3006
6006
3FFE
ENDCHAR
STARTCHAR U_4E66
ENCODING 20070
SWIDTH 1000 0
DWIDTH 15 0
BBX 15 14 0 -1
BITMAP
0C60
0C38
0C18
7FE0
0C60
0C60
0C60
FFF8
0C18
0C18
0C18
0CF0
0C60
0C00
ENDCHAR
STARTCHAR U_4E67
ENCODING 20071
SWIDTH 1000 0
DWIDTH 15 0
BBX 15 14 0 -1
BITMAP
0000
0C60
0760
3360
1C60
0FFE
FE60
0060
7FFC
0038
03E0
1E0C
300C
3FFC
ENDCHAR
STARTCHAR U_4E68
ENCODING 20072
SWIDTH 1000 0
DWIDTH 15 0
BBX 15 14 0 -1
BITMAP
18C0
18C0
30C0
3CC0
66C0
FFC0
03C0
7EC0
66C0
66C0
66C0
66C6
7EC6
667E
ENDCHAR
STARTCHAR U_4E69
ENCODING 20073
SWIDTH 1000 0
DWIDTH 15 0
BBX 15 14 0 -1
BITMAP
30C0
30C0
36C0
3FC0
30C0
30C0
30C0
FEC0
C6C0
C6C0
C6CC
C6CC
FECC
C67C
ENDCHAR
STARTCHAR U_4E6A
ENCODING 20074
SWIDTH 1000 0
DWIDTH 15 0
BBX 15 14 0 -1
BITMAP
FC00
0FF8
0FD8
1BD8
1BD8
1BF8
1BD8
33D8
33D8
33D8
63FE
631E
6006
3FFE
ENDCHAR
STARTCHAR U_4E6B
ENCODING 20075
SWIDTH 1000 0
DWIDTH 15 0
BBX 15 14 0 -1
BITMAP
1800
1800
FFFC
33CC
33CC
6FFC
C600
FFF8
0070
01C0
0F00
3806
6006
3FFE
ENDCHAR
STARTCHAR U_4E6C
ENCODING 20076
SWIDTH 1000 0
DWIDTH 15 0
BBX 15 14 0 -1
BITMAP
7FFC
6000
7FF8
6018
7FF8
6000
7FFE
0000
FFF8
01C0
0F00
3806
6006
3FFE
ENDCHAR
STARTCHAR U_4E6D
ENCODING 20077
SWIDTH 1000 0
DWIDTH 15 0
BBX 15 14 0 -1
BITMAP
000C
7FFE
0600
0C00
1FFC
3C0C
EFFC
0000
7FFC
0070
03C0
1E06
3006
1FFE
ENDCHAR
STARTCHAR U_4E6E
ENCODING 20078
SWIDTH 1000 0
DWIDTH 15 0
BBX 15 14 0 -1
BITMAP
0FFC
38CC
33CC
3FCC
3BCC
06DC
1CC0
F000
7FF8
00E0
0780
1C06
3006
1FFE
ENDCHAR
STARTCHAR U_4E6F
ENCODING 20079
SWIDTH 1000 0
DWIDTH 15 0
BBX 15 14 0 -1
BITMAP
00FC
7FB0
19B0
0DE0
FFFC
0180
0780
0300
7FF8
0070
03C0
1E06
3006
3FFE
ENDCHAR
STARTCHAR U_4E70
ENCODING 20080
SWIDTH 1000 0
DWIDTH 15 0
BBX 15 14 0 -1
BITMAP
7FFE
000C
0D98
0780
3780
1980
1980
018C
7FFE
03C0
0660
0C30
381C
E00C
ENDCHAR
STARTCHAR U_4E71
ENCODING 20081
SWIDTH 1000 0
DWIDTH 15 0
BBX 15 14 0 -1
BITMAP
0600
0F60
7860
1860
1860
FFE0
1860
1860
7F60
6360
6366
6366
7F66
633E
ENDCHAR
STARTCHAR U_4E72
ENCODING 20082
SWIDTH 1000 0
DWIDTH 15 0
BBX 15 14 0 -1
BITMAP
6300
33FC
0F6C
1B60
36F0
6198
030C
7FFC
0018
00F0
0780
3C00
600C
7FFC
ENDCHAR
STARTCHAR U_4E73
ENCODING 20083
SWIDTH 1000 0
DWIDTH 15 0
BBX 15 14 0 -1
BITMAP
07C0
FCC0
F3C0
7EC0
7EC0
FFC0
0CC0
1BC0
1EC0
F8C0
18CC
18CC
78CC
307C
ENDCHAR
STARTCHAR U_4E74
ENCODING 20084
SWIDTH 1000 0
DWIDTH 15 0
BBX 15 14 0 -1
BITMAP
181C
19F0
FF80
19FE
1F98
F998
1B18
3618
FFFC
0070
03C0
1E0C
300C
3FFC
ENDCHAR
STARTCHAR U_4E75
ENCODING 20085
SWIDTH 1000 0
DWIDTH 15 0
BBX 15 14 0 -1
BITMAP
1800
0C60
7FE0
3360
1B60
1E60
FFE0
0C60
0C60
7FE0
0C66
0C66
0C3E
0C00
ENDCHAR
STARTCHAR U_4E76
ENCODING 20086
SWIDTH 1000 0
DWIDTH 15 0
BBX 15 14 0 -1
BITMAP
0360
FFFC
3330
3FF0
3330
3FF0
3330
3330
FFF0
01C0
0700
1C0C
300C
1FFC
ENDCHAR
STARTCHAR U_4E77
ENCODING 20087
SWIDTH 1000 0
DWIDTH 15 0
BBX 15 14 0 -1
BITMAP
6060
3078
C1EC
7B7E
3670
E0E0
6F80
0000
FFF8
0070
03C0
1E06
3006
1FFE
ENDCHAR
STARTCHAR U_4E78
ENCODING 20088
SWIDTH 1000 0
DWIDTH 15 0
BBX 15 14 0 -1
BITMAP
1800
18FC
18EC
78FC
7ECC
FFFE
7EEC
7EFC
7ECC
7EFC
7C0E
783E
6006
3FFE
ENDCHAR
STARTCHAR U_4E79
ENCODING 20089
SWIDTH 1000 0
DWIDTH 15 0
BBX 15 14 0 -1
BITMAP
18C0
18C0
FFC0
18C0
7EC0
66C0
7EC0
66C0
7EC0
7EC0
18C6
FFC6
18C6
187E
ENDCHAR
STARTCHAR U_4E7A
ENCODING 20090
SWIDTH 1000 0
DWIDTH 15 0
BBX 15 14 0 -1
BITMAP
070C
3CF8
30C0
3EFE
36D8
3ED8
3198
6318
FFF0
00C0
0780
1C06
3006
1FFE
ENDCHAR
STARTCHAR U_4E7B
ENCODING 20091
SWIDTH 1000 0
DWIDTH 15 0
BBX 15 14 0 -1
BITMAP
1860
0C60
FFF0
3198
3F6E
36D8
7E30
6C60
FFF8
00C0
0780
1C0C
300C
1FFC
ENDCHAR
STARTCHAR U_4E7C
ENCODING 20092
SWIDTH 1000 0
DWIDTH 15 0
BBX 15 14 0 -1
BITMAP
60C0
306C
C7FE
7860
33FC
E060
6FFE
6000
FFF8
0070
03C0
1E06
3006
1FFE
ENDCHAR
STARTCHAR U_4E7D
ENCODING 20093
SWIDTH 1000 0
DWIDTH 15 0
BBX 15 14 0 -1
BITMAP
0300
3FF8
0360
FFFE
0180
0FF8
3F18
ED98
0FF8
0000
7FF0
0706
0C06
0FFE
ENDCHAR
STARTCHAR U_4E7E
ENCODING 20094
SWIDTH 1000 0
DWIDTH 15 0
BBX 15 14 0 -1
BITMAP
0C60
0C60
FFE0
0C7E
7FC0
6380
7F7C
6318
7F30
0C60
FFC6
0CC6
0CC6
0C7E
ENDCHAR
STARTCHAR U_4E7F
ENCODING 20095
SWIDTH 1000 0
DWIDTH 15 0
BBX 15 14 0 -1
BITMAP
0FC0
FEC0
F7C0
7EC0
6CC0
30C0
66C0
FCC0
36C0
FFC0
1BC6
7EC6
7BC6
FB7E
ENDCHAR
STARTCHAR U_4E80
ENCODING 20096
SWIDTH 1000 0
DWIDTH 15 0
BBX 15 14 0 -1
BITMAP
0FF0
1860
7FF8
E318
7FF8
6318
7FF8
0300
FFFC
C30C
C30C
FFFC
0306
03FE
ENDCHAR
STARTCHAR U_4E81
ENCODING 20097
SWIDTH 1000 0
DWIDTH 15 0
BBX 15 14 0 -1
BITMAP
0C60
FFE0
0C60
7FFE
63C0
7F80
63FC
7F0C
0018
7F30
0C66
FFC6
0CC6
0C7E
ENDCHAR
STARTCHAR U_4E82
ENCODING 20098
SWIDTH 1000 0
DWIDTH 15 0
BBX 15 14 0 -1
BITMAP
03E0
FE60
79E0
3F60
FFE0
3760
1C60
FFE0
D9E0
F7E0
FFE0
F7E6
DDE6
FFBE
ENDCHAR
STARTCHAR U_4E83
ENCODING 20099
SWIDTH 1000 0
DWIDTH 15 0
BBX 15 14 0 -1
BITMAP
0C60
6DE0
3F60
7FE0
1F60
3DE0
6C60
31E0
7FE0
79E0
FFE6
1FE6
31E6
61BE
ENDCHAR
STARTCHAR U_4E84
ENCODING 20100
SWIDTH 1000 0
DWIDTH 15 0
BBX 15 14 0 -1
BITMAP
18C0
FFC0
18C0
7EC0
FFC0
C3C0
7EC0
00C0
7EC0
66C0
7EC6
6CC6
3FC6
F87E
ENDCHAR
STARTCHAR U_4E85
ENCODING 20101
SWIDTH 1000 0
DWIDTH 15 0
BBX 15 14 0 -1
BITMAP
0180
0180
0180
0180
0180
0180
0180
0180
0180
0180
0180
0780
0300
0000
ENDCHAR
STARTCHAR U_4E86
ENCODING 20102
SWIDTH 1000 0
DWIDTH 15 0
BBX 15 14 0 -1
BITMAP
7FFC
0018
0070
01C0
0180
0180
0180
0180
0180
0180
0180
0180
0780
0300
ENDCHAR
STARTCHAR U_4E87
ENCODING 20103
SWIDTH 1000 0
DWIDTH 15 0
BBX 15 14 0 -1
BITMAP
0C00
0C00
1800
1FFE
318C
6198
C180
0180
0180
0180
0180
0D80
0780
0300
ENDCHAR
STARTCHAR U_4E88
ENCODING 20104
SWIDTH 1000 0
DWIDTH 15 0
BBX 15 14 0 -1
BITMAP
0000
7FE0
0060
0FC0
0300
FFFC
0318
0330
0300
0300
0300
0300
0F00
0600
ENDCHAR
STARTCHAR U_4E89
ENCODING 20105
SWIDTH 1000 0
DWIDTH 15 0
BBX 15 14 0 -1
BITMAP
0C00
0FE0
18C0
3FF0
6330
0330
FFFE
0330
0330
7FF0
0300
0300
0F00
0600
ENDCHAR
STARTCHAR U_4E8A
ENCODING 20106
SWIDTH 1000 0
DWIDTH 15 0
BBX 15 14 0 -1
BITMAP
0180
0180
FFFE
19B0
0DE0
3FF8
0198
7FFE
0198
3FF8
0180
0180
0780
0300
ENDCHAR
STARTCHAR U_4E8B
ENCODING 20107
SWIDTH 1000 0
DWIDTH 15 0
BBX 15 14 0 -1
BITMAP
0300
FFFC
0300
3FF0
3330
3FF0
0300
7FF0
0330
FFFC
0330
7FF0
0300
0F00
ENDCHAR
STARTCHAR U_4E8C
ENCODING 20108
SWIDTH 1000 0
DWIDTH 15 0
BBX 15 14 0 -1
BITMAP
0000
0030
3FF8
0000
0000
0000
0000
0000
0000
0000
000C
FFFE
0000
0000
ENDCHAR
STARTCHAR U_4E8D
ENCODING 20109
SWIDTH 1000 0
DWIDTH 15 0
BBX 15 14 0 -1
BITMAP
0000
1FF8
0000
0000
0000
7FFE
0180
0180
0180
0180
0180
0180
0780
0300
ENDCHAR
STARTCHAR U_4E8E
ENCODING 20110
SWIDTH 1000 0
DWIDTH 15 0
BBX 15 14 0 -1
BITMAP
0000
7FF8
0300
0300
0300
0300
FFFC
0300
0300
0300
0300
0300
0F00
0600
ENDCHAR
STARTCHAR U_4E8F
ENCODING 20111
SWIDTH 1000 0
DWIDTH 15 0
BBX 15 14 0 -1
BITMAP
0000
3FF0
0000
0000
FFFC
0600
0C00
1FF0
0030
0030
0030
0060
03C0
0180
ENDCHAR
STARTCHAR U_4E90
ENCODING 20112
SWIDTH 1000 0
DWIDTH 15 0
BBX 15 14 0 -1
BITMAP
0000
3FF8
0600
0600
FFFE
0C00
0C00
1FF0
0030
0030
0030
0030
0360
01C0
ENDCHAR
STARTCHAR U_4E91
ENCODING 20113
SWIDTH 1000 0
DWIDTH 15 0
BBX 15 14 0 -1
BITMAP
0060
3FF0
0000
0000
0018
FFFC
0600
0C00
0CC0
1860
3070
7FF8
3018
0000
ENDCHAR
STARTCHAR U_4E92
ENCODING 20114
SWIDTH 1000 0
DWIDTH 15 0
BBX 15 14 0 -1
BITMAP
0000
FFFC
0C00
0C00
0C60
1FF0
1860
1860
1860
3FE0
18C0
00C0
00C0
FFFC
ENDCHAR
STARTCHAR U_4E93
ENCODING 20115
SWIDTH 1000 0
DWIDTH 15 0
BBX 15 14 0 -1
BITMAP
0030
3FF8
0000
0000
0000
FFFE
0C60
0C60
0C60
0C60
1860
1860
3060
6060
ENDCHAR
STARTCHAR U_4E94
ENCODING 20116
SWIDTH 1000 0
DWIDTH 15 0
BBX 15 14 0 -1
BITMAP
0000
7FFC
0300
0300
0300
0300
3FF0
0630
0630
0630
0630
0630
0630
FFFE
ENDCHAR
STARTCHAR U_4E95
ENCODING 20117
SWIDTH 1000 0
DWIDTH 15 0
BBX 15 14 0 -1
BITMAP
0CC0
0CC0
0CC0
0CC0
FFFC
0CC0
0CC0
0CC0
FFFC
0CC0
0CC0
18C0
30C0
60C0
ENDCHAR
STARTCHAR U_4E96
ENCODING 20118
SWIDTH 1000 0
DWIDTH 15 0
BBX 15 14 0 -1
BITMAP
0000
0030
1FF8
0000
000C
7FFE
0000
0000
0000
1FF8
0000
0000
000C
7FFE
ENDCHAR
STARTCHAR U_4E97
ENCODING 20119
SWIDTH 1000 0
DWIDTH 15 0
BBX 15 14 0 -1
BITMAP
0000
0300
0300
3330
3330
3330
3FF0
0000
0000
3FF0
0000
0000
0000
FFFC
ENDCHAR
STARTCHAR U_4E98
ENCODING 20120
SWIDTH 1000 0
DWIDTH 15 0
BBX 15 14 0 -1
BITMAP
0000
7FFC
0000
0000
1FF0
1830
1830
1FF0
1830
1830
1FF0
0000
0000
FFFE
ENDCHAR
STARTCHAR U_4E99
ENCODING 20121
SWIDTH 1000 0
DWIDTH 15 0
BBX 15 14 0 -1
BITMAP
0000
7FFC
0C00
0C00
0C00
0FF0
0C30
1E30
1B60
1860
3CC0
36C0
00D8
FFFC
ENDCHAR
STARTCHAR U_4E9A
ENCODING 20122
SWIDTH 1000 0
DWIDTH 15 0
BBX 15 14 0 -1
BITMAP
0000
7FFC
0CC0
0CC0
0CC0
6CD8
6CD8
3CF0
3CF0
3CF0
0CC0
0CC0
FFFE
0000
ENDCHAR
STARTCHAR U_4E9B
ENCODING 20123
SWIDTH 1000 0
DWIDTH 15 0
BBX 15 14 0 -1
BITMAP
0CC0
0CC0
6CD8
6FF0
6CE0
6CCC
6CCC
7F7C
F000
0000
1FF0
0000
0000
7FFC
ENDCHAR
STARTCHAR U_4E9C
ENCODING 20124
SWIDTH 1000 0
DWIDTH 15 0
BBX 15 14 0 -1
BITMAP
0000
7FFC
06C0
06C0
3FF8
36D8
36D8
36D8
3FF8
36D8
06C0
06C0
06C0
7FFC
ENDCHAR
STARTCHAR U_4E9D
ENCODING 20125
SWIDTH 1000 0
DWIDTH 15 0
BBX 15 14 0 -1
BITMAP
0300
0660
1FF0
0000
1830
3060
6CCC
FFFE
0606
0000
3FF0
0000
0000
FFFE
ENDCHAR
STARTCHAR U_4E9E
ENCODING 20126
SWIDTH 1000 0
DWIDTH 15 0
BBX 15 14 0 -1
BITMAP
000C
7FFE
0660
0660
0660
3E7C
300C
300C
300C
3E7C
0660
0660
066C
7FFE
ENDCHAR
STARTCHAR U_4E9F
ENCODING 20127
SWIDTH 1000 0
DWIDTH 15 0
BBX 15 14 0 -1
BITMAP
7FF8
0070
00C0
0380
7FFC
6FCC
6F78
6F30
7F30
037C
03CC
0F00
0600
FFFE
ENDCHAR
STARTCHAR U_4EA0
ENCODING 20128
SWIDTH 1000 0
DWIDTH 15 0
BBX 15 14 0 -1
BITMAP
0600
0300
0300
0000
FFFC
0000
0000
0000
0000
0000
0000
0000
0000
0000
ENDCHAR
STARTCHAR U_4EA1
ENCODING 20129
SWIDTH 1000 0
DWIDTH 15 0
BBX 15 14 0 -1
BITMAP
0600
0300
0300
FFFE
1800
1800
1800
1800
1800
1800
1800
1800
1FFC
0000
ENDCHAR
STARTCHAR U_4EA2
ENCODING 20130
SWIDTH 1000 0
DWIDTH 15 0
BBX 15 14 0 -1
BITMAP
0600
0300
0300
FFFC
0000
0000
1FC0
18C0
18C0
18C0
18C0
18CC
30CC
E07C
ENDCHAR
STARTCHAR U_4EA3
ENCODING 20131
SWIDTH 1000 0
DWIDTH 15 0
BBX 15 14 0 -1
BITMAP
0600
0300
030C
FFFE
0C60
0C60
0C60
0C60
0C60
1860
1860
3060
6060
C060
ENDCHAR
STARTCHAR U_4EA4
ENCODING 20132
SWIDTH 1000 0
DWIDTH 15 0
BBX 15 14 0 -1
BITMAP
0600
0300
FFFC
0000
1860
3038
60D8
18C0
0D80
0780
0300
0780
1CE0
7038
ENDCHAR
STARTCHAR U_4EA5
ENCODING 20133
SWIDTH 1000 0
DWIDTH 15 0
BBX 15 14 0 -1
BITMAP
0600
0300
0318
FFFC
0600
0CC0
1980
3F30
0660
0CC0
3980
03E0
0E38
7818
ENDCHAR
STARTCHAR U_4EA6
ENCODING 20134
SWIDTH 1000 0
DWIDTH 15 0
BBX 15 14 0 -1
BITMAP
0600
0300
0300
FFFE
0CC0
0CC0
3CF0
7CD8
6CCC
CCCC
18C0
18C0
33C0
6180
ENDCHAR
STARTCHAR U_4EA7
ENCODING 20135
SWIDTH 1000 0
DWIDTH 15 0
BBX 15 14 0 -1
BITMAP
0300
0180
7FFC
0C60
0660
06C0
3FFC
3000
3000
3000
3000
3000
6000
C000
ENDCHAR
STARTCHAR U_4EA8
ENCODING 20136
SWIDTH 1000 0
DWIDTH 15 0
BBX 15 14 0 -1
BITMAP
0600
0300
FFFC
0000
1FF0
1830
1FF0
0000
3FF0
00C0
0380
0300
0F00
0600
ENDCHAR
STARTCHAR U_4EA9
ENCODING 20137
SWIDTH 1000 0
DWIDTH 15 0
BBX 15 14 0 -1
BITMAP
0600
0300
0300
FFFC
0000
3FF0
3330
3330
3FF0
3330
3330
3330
3FF0
3030
ENDCHAR
STARTCHAR U_4EAA
ENCODING 20138
SWIDTH 1000 0
DWIDTH 15 0
BBX 15 14 0 -1
BITMAP
0600
030C
FFFE
0C60
6C78
CC6C
19EC
70C0
0000
7FF0
0030
0030
0018
000E
ENDCHAR
STARTCHAR U_4EAB
ENCODING 20139
SWIDTH 1000 0
DWIDTH 15 0
BBX 15 14 0 -1
BITMAP
0300
FFFC
0000
3FE0
3060
3FE0
0000
7FE0
0180
0300
FFFC
0300
0F00
0600
ENDCHAR
STARTCHAR U_4EAC
ENCODING 20140
SWIDTH 1000 0
DWIDTH 15 0
BBX 15 14 0 -1
BITMAP
0600
0300
FFFC
0000
3FF0
3030
3030
3FF0
3330
0300
1B60
3330
EF1C
0600
ENDCHAR
STARTCHAR U_4EAD
ENCODING 20141
SWIDTH 1000 0
DWIDTH 15 0
BBX 15 14 0 -1
BITMAP
0318
FFFC
0000
1FE0
1860
1FE0
6000
7FFC
C018
3FF0
0300
0300
0F00
0600
ENDCHAR
STARTCHAR U_4EAE
ENCODING 20142
SWIDTH 1000 0
DWIDTH 15 0
BBX 15 14 0 -1
BITMAP
0600
0300
FFFC
0000
1FE0
1860
1FE0
0000
7FFC
C018
0FC0
0CCC
18CC
F07C
ENDCHAR
STARTCHAR U_4EAF
ENCODING 20143
SWIDTH 1000 0
DWIDTH 15 0
BBX 15 14 0 -1
BITMAP
0600
030C
FFFE
0000
1FF0
1830
1FF0
0000
3FF8
3018
3FF8
3018
3018
3FF8
ENDCHAR
STARTCHAR U_4EB0
ENCODING 20144
SWIDTH 1000 0
DWIDTH 15 0
BBX 15 14 0 -1
BITMAP
0300
0180
7FFE
0000
1FF8
1818
1FF8
1818
1FF8
0180
0DE0
19B0
379C
630C
ENDCHAR
STARTCHAR U_4EB1
ENCODING 20145
SWIDTH 1000 0
DWIDTH 15 0
BBX 15 14 0 -1
BITMAP
0300
0180
FFFE
0000
0FFC
0F0C
1B0C
3BFC
7B0C
DB0C
1BFC
1B0C
1800
1FFE
ENDCHAR
STARTCHAR U_4EB2
ENCODING 20146
SWIDTH 1000 0
DWIDTH 15 0
BBX 15 14 0 -1
BITMAP
0600
0300
7FF8
0000
0CC0
0780
FFFC
0300
3FF8
0300
1B60
3338
EF18
0600
ENDCHAR
STARTCHAR U_4EB3
ENCODING 20147
SWIDTH 1000 0
DWIDTH 15 0
BBX 15 14 0 -1
BITMAP
0300
FFFE
0000
1FE0
1860
1FE0
0000
7FFC
C078
7FC0
0600
FFFC
060C
03FC
ENDCHAR
STARTCHAR U_4EB4
ENCODING 20148
SWIDTH 1000 0
DWIDTH 15 0
BBX 15 14 0 -1
BITMAP
0300
FFFE
1830
1FF0
0000
7FFE
6186
DFF8
0180
3FFC
0300
1FC6
06C6
7C7E
ENDCHAR
STARTCHAR U_4EB5
ENCODING 20149
SWIDTH 1000 0
DWIDTH 15 0
BBX 15 14 0 -1
BITMAP
0600
0318
FFFC
30C0
FFF0
33F0
FDFC
337C
F78C
3DB0
39E0
F8C0
1F70
381C
ENDCHAR
STARTCHAR U_4EB6
ENCODING 20150
SWIDTH 1000 0
DWIDTH 15 0
BBX 15 14 0 -1
BITMAP
0300
FFFE
0000
3FF8
3018
37D8
36D8
3FF8
0000
1FF0
1830
1FF0
1830
FFFE
ENDCHAR
STARTCHAR U_4EB7
ENCODING 20151
SWIDTH 1000 0
DWIDTH 15 0
BBX 15 14 0 -1
BITMAP
0180
7FFE
0618
0330
3FFE
3360
3FFC
336C
3FFE
3360
3FFC
3370
6778
7F6E
ENDCHAR
STARTCHAR U_4EB8
ENCODING 20152
SWIDTH 1000 0
DWIDTH 15 0
BBX 15 14 0 -1
BITMAP
18C6
FF66
006C
7FFE
67B6
7FB6
01FE
FFB6
0DB6
19FE
3E30
FBFE
1830
3830
ENDCHAR
STARTCHAR U_4EB9
ENCODING 20153
SWIDTH 1000 0
DWIDTH 15 0
BBX 15 14 0 -1
BITMAP
0180
7FFE
0000
3FFC
37EC
3E7C
37EC
3FFC
37EC
7FFE
781E
1FF8
1818
7FFE
ENDCHAR
STARTCHAR U_4EBA
ENCODING 20154
SWIDTH 1000 0
DWIDTH 15 0
BBX 15 14 0 -1
BITMAP
0300
0300
0300
0300
0300
0300
0300
0780
0780
0CC0
0CC0
1860
303C
6018
ENDCHAR
STARTCHAR U_4EBB
ENCODING 20155
SWIDTH 1000 0
DWIDTH 15 0
BBX 15 14 0 -1
BITMAP
0C00
0C00
1800
1800
3800
7800
D800
1800
1800
1800
1800
1800
1800
1800
ENDCHAR
STARTCHAR U_4EBC
ENCODING 20156
SWIDTH 1000 0
DWIDTH 15 0
BBX 15 14 0 -1
BITMAP
0180
0180
0180
03C0
03C0
0660
0660
0C30
181E
300C
0000
0006
7FFE
0000
ENDCHAR
STARTCHAR U_4EBD
ENCODING 20157
SWIDTH 1000 0
DWIDTH 15 0
BBX 15 14 0 -1
BITMAP
0300
0300
0780
0780
0CC0
1860
3030
6018
CC0E
060C
0300
01C0
00C0
0000
ENDCHAR
STARTCHAR U_4EBE
ENCODING 20158
SWIDTH 1000 0
DWIDTH 15 0
BBX 15 14 0 -1
BITMAP
0180
C180
C180
C180
C180
C180
C3C0
C3C0
C660
C660
CC30
D81C
C000
FFFE
ENDCHAR
STARTCHAR U_4EBF
ENCODING 20159
SWIDTH 1000 0
DWIDTH 15 0
BBX 15 14 0 -1
BITMAP
0C00
0C00
0FFC
1818
1830
3860
78C0
D8C0
1980
1980
1B06
1B06
1B06
19FE
ENDCHAR
STARTCHAR U_4EC0
ENCODING 20160
SWIDTH 1000 0
DWIDTH 15 0
BBX 15 14 0 -1
BITMAP
0C60
0C60
0C60
1860
1860
3FFE
7860
D860
1860
1860
1860
1860
1860
1860
ENDCHAR
STARTCHAR U_4EC1
ENCODING 20161
SWIDTH 1000 0
DWIDTH 15 0
BBX 15 14 0 -1
BITMAP
0C00
0C00
0C00
1BFC
1800
3800
7800
D800
1800
1800
1800
1800
1FFE
1800
ENDCHAR
STARTCHAR U_4EC2
ENCODING 20162
SWIDTH 1000 0
DWIDTH 15 0
BBX 15 14 0 -1
BITMAP
0CC0
0CC0
0CC0
18C0
1FFC
38CC
78CC
D8CC
18CC
18CC
198C
198C
1B3C
1E18
ENDCHAR
STARTCHAR U_4EC3
ENCODING 20163
SWIDTH 1000 0
DWIDTH 15 0
BBX 15 14 0 -1
BITMAP
0C00
0C00
0FFE
1830
1830
3830
7830
D830
1830
1830
1830
1830
18F0
1860
ENDCHAR
STARTCHAR U_4EC4
ENCODING 20164
SWIDTH 1000 0
DWIDTH 15 0
BBX 15 14 0 -1
BITMAP
3FFE
3180
3180
3180
3180
3180
3180
3180
33C0
3360
3360
6630
6C1E
D80C
ENDCHAR
STARTCHAR U_4EC5
ENCODING 20165
SWIDTH 1000 0
DWIDTH 15 0
BBX 15 14 0 -1
BITMAP
0C00
0C00
0FF8
1B18
3B18
79B0
79B0
D9E0
19E0
18C0
19E0
1B30
1E1E
1C0C
ENDCHAR
STARTCHAR U_4EC6
ENCODING 20166
SWIDTH 1000 0
DWIDTH 15 0
BBX 15 14 0 -1
BITMAP
06C0
06C0
0CC0
0CC0
18C0
18E0
38F0
78DC
D8CC
18C0
18C0
18C0
18C0
18C0
ENDCHAR
STARTCHAR U_4EC7
ENCODING 20167
SWIDTH 1000 0
DWIDTH 15 0
BBX 15 14 0 -1
BITMAP
0D80
0D80
0D80
1980
1FF0
39B0
79B0
D9B0
19B0
19B0
1B36
1B36
1E36
1C1E
ENDCHAR
STARTCHAR U_4EC8
ENCODING 20168
SWIDTH 1000 0
DWIDTH 15 0
BBX 15 14 0 -1
BITMAP
0C00
0C30
19B0
31B0
39B0
79B0
D9B0
19B0
1998
1B18
1B18
1E0C
1E0C
1C06
ENDCHAR
STARTCHAR U_4EC9
ENCODING 20169
SWIDTH 1000 0
DWIDTH 15 0
BBX 15 14 0 -1
BITMAP
0C00
0DF0
0DB0
19B0
19B0
39B0
79B0
D9B0
19B0
19B0
1B36
1B36
1E36
1C1E
ENDCHAR
STARTCHAR U_4ECA
ENCODING 20170
SWIDTH 1000 0
DWIDTH 15 0
BBX 15 14 0 -1
BITMAP
0300
0300
0780
0CC0
1E60
33B0
E19C
0060
3FF0
0060
00C0
00C0
0180
0180
ENDCHAR
STARTCHAR U_4ECB
ENCODING 20171
SWIDTH 1000 0
DWIDTH 15 0
BBX 15 14 0 -1
BITMAP
0300
0300
0780
0CC0
1860
3030
6CDC
CCC0
0CC0
0CC0
0CC0
18C0
18C0
30C0
ENDCHAR
STARTCHAR U_4ECC
ENCODING 20172
SWIDTH 1000 0
DWIDTH 15 0
BBX 15 14 0 -1
BITMAP
0180
0180
0180
03C0
0360
0630
0D98
1998
3180
03C0
0360
0630
0C18
3818
ENDCHAR
STARTCHAR U_4ECD
ENCODING 20173
SWIDTH 1000 0
DWIDTH 15 0
BBX 15 14 0 -1
BITMAP
0C18
0FFC
0D98
1998
1998
39B0
79BE
D986
1986
1986
1B06
1B06
1E3C
1E18
ENDCHAR
STARTCHAR U_4ECE
ENCODING 20174
SWIDTH 1000 0
DWIDTH 15 0
BBX 15 14 0 -1
BITMAP
18C0
18C0
18C0
18C0
18C0
18C0
18C0
18C0
3CC0
37E0
37E0
6330
C618
0C0C
ENDCHAR
STARTCHAR U_4ECF
ENCODING 20175
SWIDTH 1000 0
DWIDTH 15 0
BBX 15 14 0 -1
BITMAP
0C00
0C60
0C60
1860
18C0
38C0
78C0
D980
19B0
1998
1B0C
1B0C
1FFE
1B06
ENDCHAR
STARTCHAR U_4ED0
ENCODING 20176
SWIDTH 1000 0
DWIDTH 15 0
BBX 15 14 0 -1
BITMAP
0300
0300
0780
0CC0
1860
3330
E31E
030C
0300
7FFC
0300
0300
0300
0300
ENDCHAR
STARTCHAR U_4ED1
ENCODING 20177
SWIDTH 1000 0
DWIDTH 15 0
BBX 15 14 0 -1
BITMAP
0300
0300
0780
0CC0
3870
E01E
1800
18C0
1BE0
1E00
1830
1830
1830
0FF0
ENDCHAR
STARTCHAR U_4ED2
ENCODING 20178
SWIDTH 1000 0
DWIDTH 15 0
BBX 15 14 0 -1
BITMAP
0300
0300
0780
06C0
0C60
1830
3718
E1CE
00C0
0000
0E00
0380
00E0
0060
ENDCHAR
STARTCHAR U_4ED3
ENCODING 20179
SWIDTH 1000 0
DWIDTH 15 0
BBX 15 14 0 -1
BITMAP
0300
0300
0780
0CC0
1860
303C
FFD8
18C0
18C0
1EC0
1B80
1830
1830
0FF0
ENDCHAR
STARTCHAR U_4ED4
ENCODING 20180
SWIDTH 1000 0
DWIDTH 15 0
BBX 15 14 0 -1
BITMAP
0C00
0FFC
0C0C
1818
1870
3860
7860
DFFE
1860
1860
1860
1860
19E0
18C0
ENDCHAR
STARTCHAR U_4ED5
ENCODING 20181
SWIDTH 1000 0
DWIDTH 15 0
BBX 15 14 0 -1
BITMAP
0C00
0C60
0C60
1860
186C
3FFE
7860
D860
1860
1860
1860
186C
1BFE
1800
ENDCHAR
STARTCHAR U_4ED6
ENCODING 20182
SWIDTH 1000 0
DWIDTH 15 0
BBX 15 14 0 -1
BITMAP
0C60
0C60
0C60
1B6C
1B7E
3BEC
7F6C
DB6C
1B6C
1B78
1B66
1B06
1B06
19FE
ENDCHAR
STARTCHAR U_4ED7
ENCODING 20183
SWIDTH 1000 0
DWIDTH 15 0
BBX 15 14 0 -1
BITMAP
0C30
0C30
0C30
183C
1FFE
3830
7B30
DB30
19E0
19E0
18C0
19E0
1B38
1E0E
ENDCHAR
STARTCHAR U_4ED8
ENCODING 20184
SWIDTH 1000 0
DWIDTH 15 0
BBX 15 14 0 -1
BITMAP
0C18
0C18
0C18
1818
1FFE
3818
7818
D998
18D8
18D8
1818
1818
1878
1830
ENDCHAR
STARTCHAR U_4ED9
ENCODING 20185
SWIDTH 1000 0
DWIDTH 15 0
BBX 15 14 0 -1
BITMAP
0C00
0C60
0C60
1860
1B6C
3B6C
7B6C
DB6C
1B6C
1B6C
1B6C
1B6C
1BFC
1B0C
ENDCHAR
STARTCHAR U_4EDA
ENCODING 20186
SWIDTH 1000 0
DWIDTH 15 0
BBX 15 14 0 -1
BITMAP
0300
0300
0780
0CC0
1860
3338
E30E
0300
3330
3330
3330
3330
3FF0
3030
ENDCHAR
STARTCHAR U_4EDB
ENCODING 20187
SWIDTH 1000 0
DWIDTH 15 0
BBX 15 14 0 -1
BITMAP
0C0C
0C1E
0FF0
1860
1860
3860
F87E
1FE0
1860
1860
1860
1860
1866
183E
ENDCHAR
STARTCHAR U_4EDC
ENCODING 20188
SWIDTH 1000 0
DWIDTH 15 0
BBX 15 14 0 -1
BITMAP
0C00
0C00
1BFC
1860
3860
7860
D860
1860
1860
1860
1860
1860
1FFE
1800
ENDCHAR
STARTCHAR U_4EDD
ENCODING 20189
SWIDTH 1000 0
DWIDTH 15 0
BBX 15 14 0 -1
BITMAP
0300
0300
0780
0CC0
1860
3030
E01E
3FFC
0300
0300
0300
0300
0300
FFFC
ENDCHAR
STARTCHAR U_4EDE
ENCODING 20190
SWIDTH 1000 0
DWIDTH 15 0
BBX 15 14 0 -1
BITMAP
0C00
0C06
0FFE
1866
1866
3B66
7B66
DB66
1E66
18C6
18C6
1986
1B1E
1E0C
ENDCHAR
STARTCHAR U_4EDF
ENCODING 20191
SWIDTH 1000 0
DWIDTH 15 0
BBX 15 14 0 -1
BITMAP
0C18
0C3C
0FE0
1860
1860
3860
7FFE
D860
1860
1860
1860
1860
1860
1860
ENDCHAR
STARTCHAR U_4EE0
ENCODING 20192
SWIDTH 1000 0
DWIDTH 15 0
BBX 15 14 0 -1
BITMAP
1800
1830
1FF8
30C0
30C0
70D8
FFFC
30C0
30C0
30C0
30C0
30C0
30C0
30C0
ENDCHAR
STARTCHAR U_4EE1
ENCODING 20193
SWIDTH 1000 0
DWIDTH 15 0
BBX 15 14 0 -1
BITMAP
0D80
0D80
0D8C
19FE
1B00
3E00
7BF0
D860
18C0
1980
1986
1B06
1B06
19FE
ENDCHAR
STARTCHAR U_4EE2
ENCODING 20194
SWIDTH 1000 0
DWIDTH 15 0
BBX 15 14 0 -1
BITMAP
0000
1B00
1B0C
33FE
360C
7C0C
F30C
318C
30CC
30CC
300C
300C
3078
3030
ENDCHAR
STARTCHAR U_4EE3
ENCODING 20195
SWIDTH 1000 0
DWIDTH 15 0
BBX 15 14 0 -1
BITMAP
0CF0
0CDC
0CCC
18C0
18FE
3FC0
78C0
D8C0
18C0
1860
1860
1836
181E
180E
ENDCHAR
STARTCHAR U_4EE4
ENCODING 20196
SWIDTH 1000 0
DWIDTH 15 0
BBX 15 14 0 -1
BITMAP
0300
0300
0780
0CC0
1E60
33B0
E19C
0060
3FF0
00C0
0D80
0700
0180
0180
ENDCHAR
STARTCHAR U_4EE5
ENCODING 20197
SWIDTH 1000 0
DWIDTH 15 0
BBX 15 14 0 -1
BITMAP
0060
6060
6C60
6660
6360
6360
6060
6060
6360
6660
7CF0
7198
030C
1E0C
ENDCHAR
STARTCHAR U_4EE6
ENCODING 20198
SWIDTH 1000 0
DWIDTH 15 0
BBX 15 14 0 -1
BITMAP
0C00
0C60
0C60
1860
19F8
39EC
F9EC
1B66
1B66
1E66
1860
1860
19E0
18C0
ENDCHAR
STARTCHAR U_4EE7
ENCODING 20199
SWIDTH 1000 0
DWIDTH 15 0
BBX 15 14 0 -1
BITMAP
0300
0300
03F0
0300
030C
FFFE
0300
0300
0380
06C0
0660
0C30
3818
E00E
ENDCHAR
STARTCHAR U_4EE8
ENCODING 20200
SWIDTH 1000 0
DWIDTH 15 0
BBX 15 14 0 -1
BITMAP
0C00
0C0C
0FFE
1800
1800
3800
7800
D9FC
1800
1800
1800
180C
1FFE
1800
ENDCHAR
STARTCHAR U_4EE9
ENCODING 20201
SWIDTH 1000 0
DWIDTH 15 0
BBX 15 14 0 -1
BITMAP
0C00
0C60
1860
1860
3860
787C
D860
1860
1860
1860
1860
1860
1FFE
1800
ENDCHAR
STARTCHAR U_4EEA
ENCODING 20202
SWIDTH 1000 0
DWIDTH 15 0
BBX 15 14 0 -1
BITMAP
0D80
0CC0
0C78
1B78
1B18
3B18
7998
D9B0
18F0
1860
1860
18F0
1998
1F0E
ENDCHAR
STARTCHAR U_4EEB
ENCODING 20203
SWIDTH 1000 0
DWIDTH 15 0
BBX 15 14 0 -1
BITMAP
0C00
0C60
0C60
18C0
18C0
39B0
7B38
DE60
1860
18C0
1998
1B0C
1FFE
1B06
ENDCHAR
STARTCHAR U_4EEC
ENCODING 20204
SWIDTH 1000 0
DWIDTH 15 0
BBX 15 14 0 -1
BITMAP
1E00
1B80
19FC
360C
360C
760C
F60C
360C
360C
360C
360C
360C
363C
3618
ENDCHAR
STARTCHAR U_4EED
ENCODING 20205
SWIDTH 1000 0
DWIDTH 15 0
BBX 15 14 0 -1
BITMAP
0C00
0C0C
1BFE
30CC
36CC
76CC
F3CC
31CC
30CC
31FC
319E
330C
3378
3630
ENDCHAR
STARTCHAR U_4EEE
ENCODING 20206
SWIDTH 1000 0
DWIDTH 15 0
BBX 15 14 0 -1
BITMAP
0C0C
0C1E
1BF0
1B00
3B0C
7BFE
DBCC
1BCC
1BD8
1B78
1B78
1E30
1E78
1DCE
ENDCHAR
STARTCHAR U_4EEF
ENCODING 20207
SWIDTH 1000 0
DWIDTH 15 0
BBX 15 14 0 -1
BITMAP
0C60
0C60
0C60
19F8
19EC
39E6
7B66
DB60
1E6C
186C
1818
1830
18E0
1F80
ENDCHAR
STARTCHAR U_4EF0
ENCODING 20208
SWIDTH 1000 0
DWIDTH 15 0
BBX 15 14 0 -1
BITMAP
0C00
0CC0
0FBE
1B36
1B36
3B36
7B36
DB36
1B36
1BF6
1BBE
1B3C
1830
1830
ENDCHAR
STARTCHAR U_4EF1
ENCODING 20209
SWIDTH 1000 0
DWIDTH 15 0
BBX 15 14 0 -1
BITMAP
0C60
0C60
0CF0
18F0
1998
3B0C
7EC6
DC60
1BFC
1818
1818
1830
1830
1860
ENDCHAR
STARTCHAR U_4EF2
ENCODING 20210
SWIDTH 1000 0
DWIDTH 15 0
BBX 15 14 0 -1
BITMAP
0C60
0C60
0C60
1860
1BFC
3B6C
7B6C
DB6C
1BFC
1B6C
1860
1860
1860
1860
ENDCHAR
STARTCHAR U_4EF3
ENCODING 20211
SWIDTH 1000 0
DWIDTH 15 0
BBX 15 14 0 -1
BITMAP
0C00
0F30
0F30
1B30
1B36
3B3C
7BF8
DB30
1B30
1B30
1B76
1BF6
1BB6
1F1E
ENDCHAR
STARTCHAR U_4EF4
ENCODING 20212
SWIDTH 1000 0
DWIDTH 15 0
BBX 15 14 0 -1
BITMAP
0C0C
0DFE
0D8C
198C
19FC
398C
798C
D98C
19FC
198C
1B0C
1B0C
1E3C
1C18
ENDCHAR
STARTCHAR U_4EF5
ENCODING 20213
SWIDTH 1000 0
DWIDTH 15 0
BBX 15 14 0 -1
BITMAP
0D80
0D80
0DFC
1B60
1B60
3E60
786C
DFFE
1860
1860
1860
1860
1860
1860
ENDCHAR
STARTCHAR U_4EF6
ENCODING 20214
SWIDTH 1000 0
DWIDTH 15 0
BBX 15 14 0 -1
BITMAP
0C60
0C60
1B60
1B60
33FC
7660
FC60
3060
3FFE
3060
3060
3060
3060
3060
ENDCHAR
STARTCHAR U_4EF7
ENCODING 20215
SWIDTH 1000 0
DWIDTH 15 0
BBX 15 14 0 -1
BITMAP
0C00
0C60
0C60
18F0
1998
3B0C
7F9E
D998
1998
1998
1998
1998
1B18
1E18
ENDCHAR
STARTCHAR U_4EF8
ENCODING 20216
SWIDTH 1000 0
DWIDTH 15 0
BBX 15 14 0 -1
BITMAP
0C18
0C3C
0FE0
1860
1860
186C
3FFE
78F0
D8F0
19B0
1998
1B18
1E0C
1C06
ENDCHAR
STARTCHAR U_4EF9
ENCODING 20217
SWIDTH 1000 0
DWIDTH 15 0
BBX 15 14 0 -1
BITMAP
0C60
0C60
0C6C
1FFE
1860
1860
3BFC
7860
D86C
1FFE
1860
1860
1860
1860
ENDCHAR
STARTCHAR U_4EFA
ENCODING 20218
SWIDTH 1000 0
DWIDTH 15 0
BBX 15 14 0 -1
BITMAP
0300
0300
0780
06C0
0C60
1838
700E
DFF8
1800
1800
1FE0
1800
1818
1FFC
ENDCHAR
STARTCHAR U_4EFB
ENCODING 20219
SWIDTH 1000 0
DWIDTH 15 0
BBX 15 14 0 -1
BITMAP
0C18
0C3C
0FE0
1860
1860
3860
7860
DFFE
1860
1860
1860
1860
1860
1BFC
ENDCHAR
STARTCHAR U_4EFC
ENCODING 20220
SWIDTH 1000 0
DWIDTH 15 0
BBX 15 14 0 -1
BITMAP
0C00
0C0C
0FFE
1860
1860
3860
7878
DBFC
1860
1860
1860
1860
186C
1FFE
ENDCHAR
STARTCHAR U_4EFD
ENCODING 20221
SWIDTH 1000 0
DWIDTH 15 0
BBX 15 14 0 -1
BITMAP
0C30
0DB0
0DB0
1998
1B18
3B0C
7BFE
DED8
18D8
18D8
1998
1998
1B78
1E30
ENDCHAR
STARTCHAR U_4EFE
ENCODING 20222
SWIDTH 1000 0
DWIDTH 15 0
BBX 15 14 0 -1
BITMAP
180C
1FFE
1980
3180
3300
73FC
F30C
330C
330C
37FC
3318
3030
3030
3FFE
ENDCHAR
STARTCHAR U_4EFF
ENCODING 20223
SWIDTH 1000 0
DWIDTH 15 0
BBX 15 14 0 -1
BITMAP
0C00
0CC0
0C60
1860
1FFE
38C0
78C0
D8FC
18CC
198C
198C
1B0C
1E78
1830
ENDCHAR
STARTCHAR U_4F00
ENCODING 20224
SWIDTH 1000 0
DWIDTH 15 0
BBX 15 14 0 -1
BITMAP
0C60
0DE0
0DB0
1B30
1B18
3ECE
7CCC
D8C0
1980
1998
1B0C
1B0C
1FFE
1B06
ENDCHAR
STARTCHAR U_4F01
ENCODING 20225
SWIDTH 1000 0
DWIDTH 15 0
BBX 15 14 0 -1
BITMAP
0300
0300
0780
0CC0
1860
3330
E31C
1B00
1BF0
1B00
1B00
1B00
1B00
FFFC
ENDCHAR
STARTCHAR U_4F02
ENCODING 20226
SWIDTH 1000 0
DWIDTH 15 0
BBX 15 14 0 -1
BITMAP
0C60
0C60
0C6C
1FFE
1860
3860
7BFC
DB6C
1B6C
1B6C
1B6C
1B7C
1878
1860
ENDCHAR
STARTCHAR U_4F03
ENCODING 20227
SWIDTH 1000 0
DWIDTH 15 0
BBX 15 14 0 -1
BITMAP
0C18
0FFC
0C18
19B0
18E0
3860
7FFE
D86C
1878
1860
1860
1860
19E0
18C0
ENDCHAR
STARTCHAR U_4F04
ENCODING 20228
SWIDTH 1000 0
DWIDTH 15 0
BBX 15 14 0 -1
BITMAP
0C00
0FFC
0C6C
186C
186C
3BFC
7B60
DE60
1FFE
1866
1866
187C
1878
1860
ENDCHAR
STARTCHAR U_4F05
ENCODING 20229
SWIDTH 1000 0
DWIDTH 15 0
BBX 15 14 0 -1
BITMAP
0C60
0C60
0C6C
1FFE
1860
3860
7B6C
DB6C
1B6C
1BFC
1860
1866
1866
183E
ENDCHAR
STARTCHAR U_4F06
ENCODING 20230
SWIDTH 1000 0
DWIDTH 15 0
BBX 15 14 0 -1
BITMAP
0D80
0D80
0F0C
1BFE
3EFC
7EFC
DDEC
19EC
1B6C
1BCC
1ECC
1998
1B78
1830
ENDCHAR
STARTCHAR U_4F07
ENCODING 20231
SWIDTH 1000 0
DWIDTH 15 0
BBX 15 14 0 -1
BITMAP
0C00
0DF8
0D98
1998
1B1E
3E00
7FF8
D998
1998
18F0
1860
18F0
1998
1F0E
ENDCHAR
STARTCHAR U_4F08
ENCODING 20232
SWIDTH 1000 0
DWIDTH 15 0
BBX 15 14 0 -1
BITMAP
0CC0
0C60
0C30
1830
1980
3998
7F8C
DF8E
1D86
1980
198C
198C
198E
18FC
ENDCHAR
STARTCHAR U_4F09
ENCODING 20233
SWIDTH 1000 0
DWIDTH 15 0
BBX 15 14 0 -1
BITMAP
18C0
1860
186C
3FFE
3000
71F0
F1B0
31B0
31B0
31B0
31B6
3336
3336
3E1E
ENDCHAR
STARTCHAR U_4F0A
ENCODING 20234
SWIDTH 1000 0
DWIDTH 15 0
BBX 15 14 0 -1
BITMAP
1FF8
1998
1998
3FFE
3198
7198
F7F8
3180
3180
3300
3300
3600
3600
3C00
ENDCHAR
STARTCHAR U_4F0B
ENCODING 20235
SWIDTH 1000 0
DWIDTH 15 0
BBX 15 14 0 -1
BITMAP
0C18
0FFC
0F18
1B18
1B30
3BBC
7B8C
DBD8
1BD8
1B78
1E30
1E78
1CCE
1B8C
ENDCHAR
STARTCHAR U_4F0C
ENCODING 20236
SWIDTH 1000 0
DWIDTH 15 0
BBX 15 14 0 -1
BITMAP
0C0C
0FFE
0F00
1BFC
1BCC
3BCC
7BCC
DBFC
1BD8
1BC0
1BC6
1EC6
1EC6
1C7E
ENDCHAR
STARTCHAR U_4F0D
ENCODING 20237
SWIDTH 1000 0
DWIDTH 15 0
BBX 15 14 0 -1
BITMAP
180C
1FFE
18C0
30C0
30C0
70D8
F7FC
3198
3198
3198
3198
3198
3FFE
3000
ENDCHAR
STARTCHAR U_4F0E
ENCODING 20238
SWIDTH 1000 0
DWIDTH 15 0
BBX 15 14 0 -1
BITMAP
1860
1860
1860
37FE
3060
7060
F3FC
330C
3198
30F0
3060
30F0
3198
370E
ENDCHAR
STARTCHAR U_4F0F
ENCODING 20239
SWIDTH 1000 0
DWIDTH 15 0
BBX 15 14 0 -1
BITMAP
18C0
18F0
18DC
30CC
30C0
77FE
F0C0
30C0
30C0
31E0
31E0
31B0
3318
360E
ENDCHAR
STARTCHAR U_4F10
ENCODING 20240
SWIDTH 1000 0
DWIDTH 15 0
BBX 15 14 0 -1
BITMAP
18F0
18DC
18CC
30C0
30DE
7FF0
F0CC
30CC
30D8
3070
3060
30F6
319E
370E
ENDCHAR
STARTCHAR U_4F11
ENCODING 20241
SWIDTH 1000 0
DWIDTH 15 0
BBX 15 14 0 -1
BITMAP
0C60
0C60
0C60
1860
1FFE
38E0
78F0
D9F0
19F8
1B78
1B6C
1E66
1860
1860
ENDCHAR
STARTCHAR U_4F12
ENCODING 20242
SWIDTH 1000 0
DWIDTH 15 0
BBX 15 14 0 -1
BITMAP
0C0E
0DF8
0D80
1980
1980
39FE
7998
D998
1998
1998
1998
1B18
1B18
1E18
ENDCHAR
STARTCHAR U_4F13
ENCODING 20243
SWIDTH 1000 0
DWIDTH 15 0
BBX 15 14 0 -1
BITMAP
0C0C
0FFE
0C30
1830
1860
38F8
78EC
D9EC
1B66
1E66
1860
1860
1860
1860
ENDCHAR
STARTCHAR U_4F14
ENCODING 20244
SWIDTH 1000 0
DWIDTH 15 0
BBX 15 14 0 -1
BITMAP
0C00
0FFE
0F06
1E0C
1800
39F0
79B0
D9B0
19B0
19B0
1B36
1B36
1E36
1C1E
ENDCHAR
STARTCHAR U_4F15
ENCODING 20245
SWIDTH 1000 0
DWIDTH 15 0
BBX 15 14 0 -1
BITMAP
0CC0
0CC0
0CD8
1FFC
18C0
38C0
78CC
DFFE
19E0
19E0
1B30
1B30
1E1E
1C0C
ENDCHAR
STARTCHAR U_4F16
ENCODING 20246
SWIDTH 1000 0
DWIDTH 15 0
BBX 15 14 0 -1
BITMAP
0CC0
0CC0
0CC0
1FFE
1980
3980
79FC
DBCC
1BCC
1B78
1B78
1E30
1E78
1FCE
ENDCHAR
STARTCHAR U_4F17
ENCODING 20247
SWIDTH 1000 0
DWIDTH 15 0
BBX 15 14 0 -1
BITMAP
0300
0300
0780
0CC0
1870
30DC
F8C0
18C0
18C0
18C0
3DE0
37B0
6318
C61C
ENDCHAR
STARTCHAR U_4F18
ENCODING 20248
SWIDTH 1000 0
DWIDTH 15 0
BBX 15 14 0 -1
BITMAP
19B0
199C
318C
3180
3FFE
7180
F1E0
31E0
31E0
3360
3366
3666
3666
3C3E
ENDCHAR
STARTCHAR U_4F19
ENCODING 20249
SWIDTH 1000 0
DWIDTH 15 0
BBX 15 14 0 -1
BITMAP
18C0
18C0
30C0
30C0
33D8
73D8
F6F0
3CE0
30C0
30C0
31E0
3330
361E
3C0C
ENDCHAR
STARTCHAR U_4F1A
ENCODING 20250
SWIDTH 1000 0
DWIDTH 15 0
BBX 15 14 0 -1
BITMAP
0300
0300
0780
0CC0
3860
EFFC
0018
0000
7FF8
0600
0CC0
1860
3FF0
1830
ENDCHAR
STARTCHAR U_4F1B
ENCODING 20251
SWIDTH 1000 0
DWIDTH 15 0
BBX 15 14 0 -1
BITMAP
180C
1FFE
3600
360C
378C
76D8
F670
3630
3678
36CC
378C
3600
360C
37FE
ENDCHAR
STARTCHAR U_4F1C
ENCODING 20252
SWIDTH 1000 0
DWIDTH 15 0
BBX 15 14 0 -1
BITMAP
0D80
0D80
0FF0
19B0
19B0
3B36
7E36
DCDE
18C0
18C0
1FFE
18C0
18C0
18C0
ENDCHAR
STARTCHAR U_4F1D
ENCODING 20253
SWIDTH 1000 0
DWIDTH 15 0
BBX 15 14 0 -1
BITMAP
0C00
0C18
0FFC
1800
1800
380C
7FFE
D8C0
18C0
1998
198C
1B0C
1FFE
1B06
ENDCHAR
STARTCHAR U_4F1E
ENCODING 20254
SWIDTH 1000 0
DWIDTH 15 0
BBX 15 14 0 -1
BITMAP
0300
0300
0780
0CC0
3B70
E31C
1B70
0F60
0FC0
FFFC
0300
0300
0300
0300
ENDCHAR
STARTCHAR U_4F1F
ENCODING 20255
SWIDTH 1000 0
DWIDTH 15 0
BBX 15 14 0 -1
BITMAP
18C0
18C0
3FFC
30C0
30C0
77F8
F0C0
30C0
3FFC
30CC
30CC
30FC
30D8
30C0
ENDCHAR
STARTCHAR U_4F20
ENCODING 20256
SWIDTH 1000 0
DWIDTH 15 0
BBX 15 14 0 -1
BITMAP
18C0
18C0
3FF8
3180
3180
7FFE
F300
3318
37FC
3030
3360
31C0
3070
3030
ENDCHAR
STARTCHAR U_4F21
ENCODING 20257
SWIDTH 1000 0
DWIDTH 15 0
BBX 15 14 0 -1
BITMAP
0C60
0C60
0CC0
1FFE
1980
39E0
7B60
DBFC
1860
1860
1FFE
1860
1860
1860
ENDCHAR
STARTCHAR U_4F22
ENCODING 20258
SWIDTH 1000 0
DWIDTH 15 0
BBX 15 14 0 -1
BITMAP
1818
1FFC
3360
3360
3360
7678
F7FC
30E0
31E0
3360
3660
3C60
31E0
30C0
ENDCHAR
STARTCHAR U_4F23
ENCODING 20259
SWIDTH 1000 0
DWIDTH 15 0
BBX 15 14 0 -1
BITMAP
0C00
0FFC
0F0C
1B6C
1B6C
3B6C
7B6C
DB6C
18F0
18F6
19B6
19B6
1B36
1E1E
ENDCHAR
STARTCHAR U_4F24
ENCODING 20260
SWIDTH 1000 0
DWIDTH 15 0
BBX 15 14 0 -1
BITMAP
1B00
1B18
33FC
3600
3CC0
70D8
F7FC
30D8
30D8
30D8
3198
3198
3378
3630
ENDCHAR
STARTCHAR U_4F25
ENCODING 20261
SWIDTH 1000 0
DWIDTH 15 0
BBX 15 14 0 -1
BITMAP
1B00
1B18
3330
3360
33C0
730C
FFFE
3360
3360
3330
3330
3318
33CE
370C
ENDCHAR
STARTCHAR U_4F26
ENCODING 20262
SWIDTH 1000 0
DWIDTH 15 0
BBX 15 14 0 -1
BITMAP
0CC0
0CC0
0CC0
19E0
1B30
3E18
798E
D980
19B0
19E0
19C0
198C
198C
18FC
ENDCHAR
STARTCHAR U_4F27
ENCODING 20263
SWIDTH 1000 0
DWIDTH 15 0
BBX 15 14 0 -1
BITMAP
18C0
18C0
31C0
3360
3630
7C18
F7FC
3630
3630
3630
36E0
360C
360C
33FC
ENDCHAR
STARTCHAR U_4F28
ENCODING 20264
SWIDTH 1000 0
DWIDTH 15 0
BBX 15 14 0 -1
BITMAP
0D80
0D80
0D8C
1BFE
1B0C
3F8C
7CEC
D86C
180C
187C
19CC
1F0C
18D8
1870
ENDCHAR
STARTCHAR U_4F29
ENCODING 20265
SWIDTH 1000 0
DWIDTH 15 0
BBX 15 14 0 -1
BITMAP
0CC0
0C60
0C60
180C
1FFE
3B18
7B18
D998
19B0
18F0
1860
18F0
1B98
1E0E
ENDCHAR
STARTCHAR U_4F2A
ENCODING 20266
SWIDTH 1000 0
DWIDTH 15 0
BBX 15 14 0 -1
BITMAP
18C0
1EC0
33C0
33C0
30C0
77FC
F0CC
30CC
30FC
319C
318C
318C
333C
3618
ENDCHAR
STARTCHAR U_4F2B
ENCODING 20267
SWIDTH 1000 0
DWIDTH 15 0
BBX 15 14 0 -1
BITMAP
18C0
1860
3060
37FE
3606
7C0C
F000
3000
3000
3000
300C
37FE
3000
3000
ENDCHAR
STARTCHAR U_4F2C
ENCODING 20268
SWIDTH 1000 0
DWIDTH 15 0
BBX 15 14 0 -1
BITMAP
0C0C
0FFE
1B0C
1B0C
330C
33FC
73C0
F3C0
3360
3360
3330
3618
360E
3C0C
ENDCHAR
STARTCHAR U_4F2D
ENCODING 20269
SWIDTH 1000 0
DWIDTH 15 0
BBX 15 14 0 -1
BITMAP
0CC0
0C60
0C6C
1FFE
18C0
3980
7B18
DFF0
1860
18C0
1998
1B0C
1FFE
1E0C
ENDCHAR
STARTCHAR U_4F2E
ENCODING 20270
SWIDTH 1000 0
DWIDTH 15 0
BBX 15 14 0 -1
BITMAP
1E00
1E00
36FE
7FE6
F7E6
3DE6
3DEC
39BC
3DBC
3798
3318
37BC
3CE6
38C6
ENDCHAR
STARTCHAR U_4F2F
ENCODING 20271
SWIDTH 1000 0
DWIDTH 15 0
BBX 15 14 0 -1
BITMAP
1860
1860
30CC
33FE
330C
730C
F30C
33FC
330C
330C
330C
330C
33FC
330C
ENDCHAR
STARTCHAR U_4F30
ENCODING 20272
SWIDTH 1000 0
DWIDTH 15 0
BBX 15 14 0 -1
BITMAP
18C0
18C0
18C0
30CC
3FFE
70C0
F0C0
37F8
3618
3618
3618
3618
37F8
3618
ENDCHAR
STARTCHAR U_4F31
ENCODING 20273
SWIDTH 1000 0
DWIDTH 15 0
BBX 15 14 0 -1
BITMAP
18C0
18C0
31E0
7330
F618
3CCE
30C0
33F0
33D8
36CC
3CCC
30CC
33C0
3180
ENDCHAR
STARTCHAR U_4F32
ENCODING 20274
SWIDTH 1000 0
DWIDTH 15 0
BBX 15 14 0 -1
BITMAP
180C
1FFE
360C
360C
37FC
7600
F6C0
36CC
36D8
36F0
36C0
3CC6
3CC6
307E
ENDCHAR
STARTCHAR U_4F33
ENCODING 20275
SWIDTH 1000 0
DWIDTH 15 0
BBX 15 14 0 -1
BITMAP
18D8
18D8
36D8
76D8
F6D8
3FFE
36D8
36D8
36D8
36D8
36F8
3600
3600
37FE
ENDCHAR
STARTCHAR U_4F34
ENCODING 20276
SWIDTH 1000 0
DWIDTH 15 0
BBX 15 14 0 -1
BITMAP
18C0
18D8
36DC
33D8
33F0
70C0
F7FC
30C0
30C0
30CC
3FFE
30C0
30C0
30C0
ENDCHAR
STARTCHAR U_4F35
ENCODING 20277
SWIDTH 1000 0
DWIDTH 15 0
BBX 15 14 0 -1
BITMAP
1800
180C
37FE
77EC
F7EC
37EC
37EC
37EC
37EC
373C
360C
360C
37FC
360C
ENDCHAR
STARTCHAR U_4F36
ENCODING 20278
SWIDTH 1000 0
DWIDTH 15 0
BBX 15 14 0 -1
BITMAP
18C0
18C0
31E0
31B0
3318
76CC
FC66
3000
33FC
3018
3030
31E0
3070
3030
ENDCHAR
STARTCHAR U_4F37
ENCODING 20279
SWIDTH 1000 0
DWIDTH 15 0
BBX 15 14 0 -1
BITMAP
18C0
18C0
30C0
70D8
F7FC
36D8
36D8
36D8
37F8
36D8
36D8
36D8
37F8
3618
ENDCHAR
STARTCHAR U_4F38
ENCODING 20280
SWIDTH 1000 0
DWIDTH 15 0
BBX 15 14 0 -1
BITMAP
1860
1860
1860
37FE
3666
7666
F7FE
3666
3666
37FE
3666
3060
3060
3060
ENDCHAR
STARTCHAR U_4F39
ENCODING 20281
SWIDTH 1000 0
DWIDTH 15 0
BBX 15 14 0 -1
BITMAP
1800
1818
33FC
7318
F318
33F8
3318
3318
3318
33F8
3318
3318
3318
3FFE
ENDCHAR
STARTCHAR U_4F3A
ENCODING 20282
SWIDTH 1000 0
DWIDTH 15 0
BBX 15 14 0 -1
BITMAP
180C
1FFE
300C
306C
3FFC
700C
F7EC
366C
366C
37EC
366C
300C
303C
3018
ENDCHAR
STARTCHAR U_4F3B
ENCODING 20283
SWIDTH 1000 0
DWIDTH 15 0
BBX 15 14 0 -1
BITMAP
1818
1FFC
30C0
76D8
F3D8
33F0
30CC
3FFE
30C0
30C0
30C0
30C0
30C0
30C0
ENDCHAR
STARTCHAR U_4F3C
ENCODING 20284
SWIDTH 1000 0
DWIDTH 15 0
BBX 15 14 0 -1
BITMAP
1800
1818
3618
3798
36D8
76D8
F618
3618
3618
36D8
37B0
3E78
30CE
3386
ENDCHAR
STARTCHAR U_4F3D
ENCODING 20285
SWIDTH 1000 0
DWIDTH 15 0
BBX 15 14 0 -1
BITMAP
3600
3600
363E
3FF6
36F6
76F6
F6F6
36F6
36F6
36F6
36F6
3CF6
3FFE
39B6
ENDCHAR
STARTCHAR U_4F3E
ENCODING 20286
SWIDTH 1000 0
DWIDTH 15 0
BBX 15 14 0 -1
BITMAP
180C
1FFE
3030
7060
F0E0
31F8
336C
3666
3C66
3060
3060
3060
3FFE
3000
ENDCHAR
STARTCHAR U_4F3F
ENCODING 20287
SWIDTH 1000 0
DWIDTH 15 0
BBX 15 14 0 -1
BITMAP
180C
1BFE
330C
730C
F30C
330C
330C
33FC
330C
30F0
30D8
318C
3306
3606
ENDCHAR
STARTCHAR U_4F40
ENCODING 20288
SWIDTH 1000 0
DWIDTH 15 0
BBX 15 14 0 -1
BITMAP
1800
1FF8
3618
7618
F7F8
3600
3600
37FC
360C
360C
360C
360C
37FC
360C
ENDCHAR
STARTCHAR U_4F41
ENCODING 20289
SWIDTH 1000 0
DWIDTH 15 0
BBX 15 14 0 -1
BITMAP
18C0
18C0
3180
71B0
F318
360C
3FFE
3006
37FC
360C
360C
360C
37FC
360C
ENDCHAR
STARTCHAR U_4F42
ENCODING 20290
SWIDTH 1000 0
DWIDTH 15 0
BBX 15 14 0 -1
BITMAP
180C
1FFE
3060
7060
F060
3060
337C
3360
3360
3360
3360
3360
336C
3FFE
ENDCHAR
STARTCHAR U_4F43
ENCODING 20291
SWIDTH 1000 0
DWIDTH 15 0
BBX 15 14 0 -1
BITMAP
1800
1800
1FFC
36CC
36CC
76CC
F6CC
37FC
36CC
36CC
36CC
36CC
37FC
360C
ENDCHAR
STARTCHAR U_4F44
ENCODING 20292
SWIDTH 1000 0
DWIDTH 15 0
BBX 15 14 0 -1
BITMAP
0C00
0F30
1B30
3330
7FFE
F330
3330
33F0
3330
3330
3330
3330
33F0
3330
ENDCHAR
STARTCHAR U_4F45
ENCODING 20293
SWIDTH 1000 0
DWIDTH 15 0
BBX 15 14 0 -1
BITMAP
18C0
18D8
37FC
70C0
F0C0
30CC
3FFE
31F0
31F0
33D8
33D8
36CC
3CC6
38C0
ENDCHAR
STARTCHAR U_4F46
ENCODING 20294
SWIDTH 1000 0
DWIDTH 15 0
BBX 15 14 0 -1
BITMAP
1800
1BF8
3318
3318
3318
73F8
F318
3318
3318
33F8
3318
3000
300C
3FFE
ENDCHAR
STARTCHAR U_4F47
ENCODING 20295
SWIDTH 1000 0
DWIDTH 15 0
BBX 15 14 0 -1
BITMAP
18C0
1860
37FE
7606
FC0C
3000
37FE
3060
3060
3060
3060
3060
31E0
30C0
ENDCHAR
STARTCHAR U_4F48
ENCODING 20296
SWIDTH 1000 0
DWIDTH 15 0
BBX 15 14 0 -1
BITMAP
18C0
18CC
3FFE
7180
F1E0
336C
37FE
3F6C
3B6C
336C
336C
337C
3378
3060
ENDCHAR
STARTCHAR U_4F49
ENCODING 20297
SWIDTH 1000 0
DWIDTH 15 0
BBX 15 14 0 -1
BITMAP
18C0
18C0
30D8
77FC
F0C0
30C0
30CC
3FFE
3180
3180
3330
3318
37FC
360C
ENDCHAR
STARTCHAR U_4F4A
ENCODING 20298
SWIDTH 1000 0
DWIDTH 15 0
BBX 15 14 0 -1
BITMAP
0C60
0C60
0FFE
1B66
3B6C
7B60
DBFC
1BCC
1BCC
1B78
1B78
1E30
1E78
1DCE
ENDCHAR
STARTCHAR U_4F4B
ENCODING 20299
SWIDTH 1000 0
DWIDTH 15 0
BBX 15 14 0 -1
BITMAP
180C
1FFE
318C
718C
F18C
3378
3630
3C00
33FC
330C
330C
330C
33FC
330C
ENDCHAR
STARTCHAR U_4F4C
ENCODING 20300
SWIDTH 1000 0
DWIDTH 15 0
BBX 15 14 0 -1
BITMAP
1830
19B0
31B0
71B6
F1BC
37F0
37B0
37B0
37B0
37B0
37B6
37F6
37B6
3C1E
ENDCHAR
STARTCHAR U_4F4D
ENCODING 20301
SWIDTH 1000 0
DWIDTH 15 0
BBX 15 14 0 -1
BITMAP
1980
18C0
30C0
3018
3FFC
7000
F618
3330
3330
31B0
31E0
31E0
30CC
3FFE
ENDCHAR
STARTCHAR U_4F4E
ENCODING 20302
SWIDTH 1000 0
DWIDTH 15 0
BBX 15 14 0 -1
BITMAP
1818
183C
1BE0
3360
3360
7360
F3FE
3330
3330
3330
33F0
339E
33EE
3366
ENDCHAR
STARTCHAR U_4F4F
ENCODING 20303
SWIDTH 1000 0
DWIDTH 15 0
BBX 15 14 0 -1
BITMAP
1980
18C0
30C0
3FFC
30C0
70C0
F0C0
30C0
37F8
30C0
30C0
30C0
30C0
3FFC
ENDCHAR
STARTCHAR U_4F50
ENCODING 20304
SWIDTH 1000 0
DWIDTH 15 0
BBX 15 14 0 -1
BITMAP
18C0
18C0
18CC
37FE
30C0
7180
F180
31FE
3360
3660
3C60
3060
3060
37FE
ENDCHAR
STARTCHAR U_4F51
ENCODING 20305
SWIDTH 1000 0
DWIDTH 15 0
BBX 15 14 0 -1
BITMAP
1860
1860
306C
37FE
30C0
70C0
F180
31FC
338C
378C
318C
318C
31FC
318C
ENDCHAR
STARTCHAR U_4F52
ENCODING 20306
SWIDTH 1000 0
DWIDTH 15 0
BBX 15 14 0 -1
BITMAP
18C0
18C0
30D8
77FC
F6D8
36D8
36D8
36D8
3FFE
30C0
31E0
3330
3618
3C0E
ENDCHAR
STARTCHAR U_4F53
ENCODING 20307
SWIDTH 1000 0
DWIDTH 15 0
BBX 15 14 0 -1
BITMAP
1860
1860
1860
37FE
3060
70E0
F0F0
31F8
336C
3666
3FFC
3060
3060
3060
ENDCHAR
STARTCHAR U_4F54
ENCODING 20308
SWIDTH 1000 0
DWIDTH 15 0
BBX 15 14 0 -1
BITMAP
1980
1980
3198
71FC
F180
3180
3180
37F8
3618
3618
3618
3618
37F8
3618
ENDCHAR
STARTCHAR U_4F55
ENCODING 20309
SWIDTH 1000 0
DWIDTH 15 0
BBX 15 14 0 -1
BITMAP
1800
1800
37FE
3018
3018
73F8
F378
3378
3378
33F8
3378
3018
3078
3030
ENDCHAR
STARTCHAR U_4F56
ENCODING 20310
SWIDTH 1000 0
DWIDTH 15 0
BBX 15 14 0 -1
BITMAP
1980
18C0
3378
7378
F318
3F30
3F30
3F6C
3B66
33C6
3386
3718
3F18
31F8
ENDCHAR
STARTCHAR U_4F57
ENCODING 20311
SWIDTH 1000 0
DWIDTH 15 0
BBX 15 14 0 -1
BITMAP
18C0
1860
3366
33FE
330C
760C
F180
3198
31F0
31C0
3186
3186
3186
30FE
ENDCHAR
STARTCHAR U_4F58
ENCODING 20312
SWIDTH 1000 0
DWIDTH 15 0
BBX 15 14 0 -1
BITMAP
0300
0300
0780
0CC0
3870
EFDC
0000
7FF8
0300
1B60
1B30
3338
6F18
0600
ENDCHAR
STARTCHAR U_4F59
ENCODING 20313
SWIDTH 1000 0
DWIDTH 15 0
BBX 15 14 0 -1
BITMAP
0300
0700
0D80
18C0
3070
FFDC
0300
0300
7FFC
0300
1B60
3338
6F18
0600
ENDCHAR
STARTCHAR U_4F5A
ENCODING 20314
SWIDTH 1000 0
DWIDTH 15 0
BBX 15 14 0 -1
BITMAP
1860
1B60
3378
33FC
3660
7660
F06C
37FE
3060
30F0
30F0
3198
330E
360C
ENDCHAR
STARTCHAR U_4F5B
ENCODING 20315
SWIDTH 1000 0
DWIDTH 15 0
BBX 15 14 0 -1
BITMAP
19E0
19E0
31E0
3FF8
31F8
77F8
F7E0
3DE0
3FFC
31EC
31FC
31F8
3360
3660
ENDCHAR
STARTCHAR U_4F5C
ENCODING 20316
SWIDTH 1000 0
DWIDTH 15 0
BBX 15 14 0 -1
BITMAP
1980
1980
3318
33FC
3780
7D80
F1F8
3180
3180
3180
31FC
3180
3180
3180
ENDCHAR
STARTCHAR U_4F5D
ENCODING 20317
SWIDTH 1000 0
DWIDTH 15 0
BBX 15 14 0 -1
BITMAP
1B00
1B00
3600
37FC
3C0C
780C
F3EC
336C
336C
336C
33EC
336C
303C
3018
ENDCHAR
STARTCHAR U_4F5E
ENCODING 20318
SWIDTH 1000 0
DWIDTH 15 0
BBX 15 14 0 -1
BITMAP
1830
1FF8
3000
300C
3FFE
7180
F180
3FFE
3330
3630
33E0
30E0
31BC
3F0E
ENDCHAR
STARTCHAR U_4F5F
ENCODING 20319
SWIDTH 1000 0
DWIDTH 15 0
BBX 15 14 0 -1
BITMAP
1980
1998
31FC
3398
33F0
7660
F070
30D8
318E
3770
3030
3000
30F0
3038
ENDCHAR
STARTCHAR U_4F60
ENCODING 20320
SWIDTH 1000 0
DWIDTH 15 0
BBX 15 14 0 -1
BITMAP
1980
1980
330C
33FE
360C
7C78
F060
3378
336C
366C
3666
3C66
31E0
30C0
ENDCHAR
STARTCHAR U_4F61
ENCODING 20321
SWIDTH 1000 0
DWIDTH 15 0
BBX 15 14 0 -1
BITMAP
1980
1980
33C0
7360
F630
3C18
398E
3180
3DB0
3DB0
3DB0
3DB0
3FF0
3C30
ENDCHAR
STARTCHAR U_4F62
ENCODING 20322
SWIDTH 1000 0
DWIDTH 15 0
BBX 15 14 0 -1
BITMAP
1818
1FFC
3600
7600
F600
37F8
3618
3618
3618
37F8
3600
3600
360C
37FE
ENDCHAR
STARTCHAR U_4F63
ENCODING 20323
SWIDTH 1000 0
DWIDTH 15 0
BBX 15 14 0 -1
BITMAP
1800
1BFE
3366
3366
3366
73FE
F366
3366
33FE
3366
3366
3666
367E
3C6C
ENDCHAR
STARTCHAR U_4F64
ENCODING 20324
SWIDTH 1000 0
DWIDTH 15 0
BBX 15 14 0 -1
BITMAP
180C
1FFE
3180
31B0
33F8
7330
F330
33F0
3370
3330
3636
3636
37B6
3E1E
ENDCHAR
STARTCHAR U_4F65
ENCODING 20325
SWIDTH 1000 0
DWIDTH 15 0
BBX 15 14 0 -1
BITMAP
0300
0300
0780
0CC0
1860
30F0
FFFC
0000
0670
3360
3360
1BC0
18D8
FFFC
ENDCHAR
STARTCHAR U_4F66
ENCODING 20326
SWIDTH 1000 0
DWIDTH 15 0
BBX 15 14 0 -1
BITMAP
180C
1FFE
30C0
70C0
F180
3180
330C
37FE
3F0C
3B0C
330C
330C
33FC
330C
ENDCHAR
STARTCHAR U_4F67
ENCODING 20327
SWIDTH 1000 0
DWIDTH 15 0
BBX 15 14 0 -1
BITMAP
1980
1980
3180
31F8
3180
7180
FFFE
3180
31E0
31B8
3198
3180
3180
3180
ENDCHAR
STARTCHAR U_4F68
ENCODING 20328
SWIDTH 1000 0
DWIDTH 15 0
BBX 15 14 0 -1
BITMAP
1B00
1B0C
33FE
730C
F60C
3FFC
3B3C
333C
33FC
330C
3318
3306
3306
31FE
ENDCHAR
STARTCHAR U_4F69
ENCODING 20329
SWIDTH 1000 0
DWIDTH 15 0
BBX 15 14 0 -1
BITMAP
300C
3FFE
3C0C
3FFC
3CCC
7CCC
FFFC
3FFC
3FFC
3FFC
3FFC
3FFC
3CCE
38C6
ENDCHAR
STARTCHAR U_4F6A
ENCODING 20330
SWIDTH 1000 0
DWIDTH 15 0
BBX 15 14 0 -1
BITMAP
180C
1FFE
360C
760C
F7FC
37BC
37BC
37BC
37BC
37FC
360C
360C
37FC
360C
ENDCHAR
STARTCHAR U_4F6B
ENCODING 20331
SWIDTH 1000 0
DWIDTH 15 0
BBX 15 14 0 -1
BITMAP
1B00
1B00
33F8
7718
FF30
31E0
30C0
31F0
371E
3FF8
3318
3318
33F8
3318
ENDCHAR
STARTCHAR U_4F6C
ENCODING 20332
SWIDTH 1000 0
DWIDTH 15 0
BBX 15 14 0 -1
BITMAP
18C0
18C6
18C6
37FC
30D8
30F0
7FFE
F0C0
3198
33B0
37E0
3D8C
318C
30FC
ENDCHAR
STARTCHAR U_4F6D
ENCODING 20333
SWIDTH 1000 0
DWIDTH 15 0
BBX 15 14 0 -1
BITMAP
1B30
1BF8
3730
7DE0
F0C0
31F0
37DC
3CC6
37F8
36C0
36C0
3FFC
30C0
30C0
ENDCHAR
STARTCHAR U_4F6E
ENCODING 20334
SWIDTH 1000 0
DWIDTH 15 0
BBX 15 14 0 -1
BITMAP
18C0
18C0
31E0
71E0
F330
3618
3FFE
3800
3000
37F8
3618
3618
37F8
3618
ENDCHAR
STARTCHAR U_4F6F
ENCODING 20335
SWIDTH 1000 0
DWIDTH 15 0
BBX 15 14 0 -1
BITMAP
1998
18D8
30F0
37FE
3060
7060
F3FC
3060
306C
37FE
3060
3060
3060
3060
ENDCHAR
STARTCHAR U_4F70
ENCODING 20336
SWIDTH 1000 0
DWIDTH 15 0
BBX 15 14 0 -1
BITMAP
180C
1FFE
1860
3060
30C0
73FC
F30C
330C
33FC
330C
330C
330C
33FC
330C
ENDCHAR
STARTCHAR U_4F71
ENCODING 20337
SWIDTH 1000 0
DWIDTH 15 0
BBX 15 14 0 -1
BITMAP
0300
0300
0780
0CC0
1860
3FF0
E01E
000C
3FF8
0300
1BE0
1B00
1B00
FFFC
ENDCHAR
STARTCHAR U_4F72
ENCODING 20338
SWIDTH 1000 0
DWIDTH 15 0
BBX 15 14 0 -1
BITMAP
1980
1980
31FC
730C
F798
3CF0
3060
30C0
33FC
370C
3F0C
330C
33FC
330C
ENDCHAR
STARTCHAR U_4F73
ENCODING 20339
SWIDTH 1000 0
DWIDTH 15 0
BBX 15 14 0 -1
BITMAP
1860
1860
1BFC
3060
3060
706C
F7FE
3060
3060
33FC
3060
3060
306C
37FE
ENDCHAR
STARTCHAR U_4F74
ENCODING 20340
SWIDTH 1000 0
DWIDTH 15 0
BBX 15 14 0 -1
BITMAP
180C
1FFE
1B18
3318
33F8
7318
F318
33F8
3318
331E
33F8
3F18
3018
3018
ENDCHAR
STARTCHAR U_4F75
ENCODING 20341
SWIDTH 1000 0
DWIDTH 15 0
BBX 15 14 0 -1
BITMAP
1B0C
1998
3018
77FE
F198
3198
3198
37FE
3198
3198
3198
3318
3318
3618
ENDCHAR
STARTCHAR U_4F76
ENCODING 20342
SWIDTH 1000 0
DWIDTH 15 0
BBX 15 14 0 -1
BITMAP
1860
1860
186C
37FE
3060
7060
F3FC
3000
33FC
330C
330C
330C
33FC
330C
ENDCHAR
STARTCHAR U_4F77
ENCODING 20343
SWIDTH 1000 0
DWIDTH 15 0
BBX 15 14 0 -1
BITMAP
1818
1FFC
3618
77F8
F618
3618
37F8
36CC
36D8
36F0
3660
36F0
379E
370C
ENDCHAR
STARTCHAR U_4F78
ENCODING 20344
SWIDTH 1000 0
DWIDTH 15 0
BBX 15 14 0 -1
BITMAP
1818
183C
37E0
7060
F060
3FFE
3060
3060
33FC
330C
330C
330C
33FC
330C
ENDCHAR
STARTCHAR U_4F79
ENCODING 20345
SWIDTH 1000 0
DWIDTH 15 0
BBX 15 14 0 -1
BITMAP
1B00
1BF8
3630
3C60
7FFE
F600
37F8
3798
3798
37F8
37B0
3D86
3D86
38FE
ENDCHAR
STARTCHAR U_4F7A
ENCODING 20346
SWIDTH 1000 0
DWIDTH 15 0
BBX 15 14 0 -1
BITMAP
18C0
18C0
31E0
7330
F618
3C0E
3FF8
30C0
30C0
37F8
30C0
30C0
30CC
3FFE
ENDCHAR
STARTCHAR U_4F7B
ENCODING 20347
SWIDTH 1000 0
DWIDTH 15 0
BBX 15 14 0 -1
BITMAP
19B0
19B0
19B0
31BE
37BC
73B8
F1B0
31BC
33BE
37B6
31B0
3336
3336
3E1E
ENDCHAR
STARTCHAR U_4F7C
ENCODING 20348
SWIDTH 1000 0
DWIDTH 15 0
BBX 15 14 0 -1
BITMAP
18C0
1860
186C
37FE
3198
730E
F7B6
31B0
31B0
31E0
30E0
30F0
3198
370E
ENDCHAR
STARTCHAR U_4F7D
ENCODING 20349
SWIDTH 1000 0
DWIDTH 15 0
BBX 15 14 0 -1
BITMAP
18C0
18C0
3CC0
76FE
F786
306C
3360
3660
3CF0
3CF0
3D98
3198
330E
360C
ENDCHAR
STARTCHAR U_4F7E
ENCODING 20350
SWIDTH 1000 0
DWIDTH 15 0
BBX 15 14 0 -1
BITMAP
19B0
19B0
1B18
360C
3FFE
7318
F318
33F8
3318
33F8
3318
3318
3378
3330
ENDCHAR
STARTCHAR U_4F7F
ENCODING 20351
SWIDTH 1000 0
DWIDTH 15 0
BBX 15 14 0 -1
BITMAP
18C0
18D8
3FFC
30C0
37F8
76D8
F6D8
37F8
36D8
33C0
3180
31C0
3370
3E1C
ENDCHAR
STARTCHAR U_4F80
ENCODING 20352
SWIDTH 1000 0
DWIDTH 15 0
BBX 15 14 0 -1
BITMAP
1806
1FE6
33C6
73DE
F3DE
33DE
3FFE
33DE
33DE
33DE
33C6
36C6
36DE
3CCC
ENDCHAR
STARTCHAR U_4F81
ENCODING 20353
SWIDTH 1000 0
DWIDTH 15 0
BBX 15 14 0 -1
BITMAP
18C0
1BC0
36D8
77FC
F6C0
3CC0
30CC
3FFE
31E0
31E0
3360
3366
3666
3C3E
ENDCHAR
STARTCHAR U_4F82
ENCODING 20354
SWIDTH 1000 0
DWIDTH 15 0
BBX 15 14 0 -1
BITMAP
18C0
1860
37FE
7600
F600
363C
37E0
3660
367E
37F0
3660
3C66
3C66
383E
ENDCHAR
STARTCHAR U_4F83
ENCODING 20355
SWIDTH 1000 0
DWIDTH 15 0
BBX 15 14 0 -1
BITMAP
1800
1FF8
3618
3618
3618
77F8
F000
36D8
36D8
36D8
36D8
36DE
3CDE
38CE
ENDCHAR
STARTCHAR U_4F84
ENCODING 20356
SWIDTH 1000 0
DWIDTH 15 0
BBX 15 14 0 -1
BITMAP
1818
1FFC
1980
31B0
3318
77FC
F0D8
30C0
30D8
37FC
30C0
30C0
30CC
3FFE
ENDCHAR
STARTCHAR U_4F85
ENCODING 20357
SWIDTH 1000 0
DWIDTH 15 0
BBX 15 14 0 -1
BITMAP
18C0
1860
37FE
70C0
F198
3318
37F0
306C
30CC
3198
3330
3E6C
30C6
3786
ENDCHAR
STARTCHAR U_4F86
ENCODING 20358
SWIDTH 1000 0
DWIDTH 15 0
BBX 15 14 0 -1
BITMAP
0300
030C
FFFE
3330
3330
3330
7B78
CFCC
0386
07C0
0F60
3B38
E30E
0300
ENDCHAR
STARTCHAR U_4F87
ENCODING 20359
SWIDTH 1000 0
DWIDTH 15 0
BBX 15 14 0 -1
BITMAP
18C0
18CC
3FFE
70C0
FFFC
30CC
3FFC
3CC0
3FFE
31E6
31FE
333C
3618
3C0E
ENDCHAR
STARTCHAR U_4F88
ENCODING 20360
SWIDTH 1000 0
DWIDTH 15 0
BBX 15 14 0 -1
BITMAP
18C0
18D8
19FC
3318
37B0
70E0
F1C0
376C
30FE
318C
33D8
3070
30E0
3780
ENDCHAR
STARTCHAR U_4F89
ENCODING 20361
SWIDTH 1000 0
DWIDTH 15 0
BBX 15 14 0 -1
BITMAP
18C0
18C0
1FFC
3330
3618
7FFE
F000
3FFC
3180
33F8
3018
3018
30F0
3060
ENDCHAR
STARTCHAR U_4F8A
ENCODING 20362
SWIDTH 1000 0
DWIDTH 15 0
BBX 15 14 0 -1
BITMAP
18C0
18CC
3CCC
76D8
F3F0
30CC
3FFE
31E0
31E0
31E0
3366
3366
3666
3C3E
ENDCHAR
STARTCHAR U_4F8B
ENCODING 20363
SWIDTH 1000 0
DWIDTH 15 0
BBX 15 14 0 -1
BITMAP
18C6
1FE6
1B06
3336
36F6
77F6
FCF6
3EF6
33F6
31B6
31B6
3306
361E
3C0C
ENDCHAR
STARTCHAR U_4F8C
ENCODING 20364
SWIDTH 1000 0
DWIDTH 15 0
BBX 15 14 0 -1
BITMAP
0300
0780
0FC0
19E0
3FF0
E0DE
018C
3FF0
0000
7FFC
0600
0C60
1830
3FF8
ENDCHAR
STARTCHAR U_4F8D
ENCODING 20365
SWIDTH 1000 0
DWIDTH 15 0
BBX 15 14 0 -1
BITMAP
18C0
18D8
1FFC
30C0
30CC
77FE
F030
3030
3FFE
3330
31B0
3030
30F0
3060
ENDCHAR
STARTCHAR U_4F8E
ENCODING 20366
SWIDTH 1000 0
DWIDTH 15 0
BBX 15 14 0 -1
BITMAP
18C0
1ECC
36CC
73D8
F3F0
3FFE
30E0
31E0
31F0
33F0
33D8
36CC
3CC6
38C0
ENDCHAR
STARTCHAR U_4F8F
ENCODING 20367
SWIDTH 1000 0
DWIDTH 15 0
BBX 15 14 0 -1
BITMAP
1860
1B60
1B60
33FC
3660
7060
F7FE
3060
30F0
31F0
31F8
336C
3666
3060
ENDCHAR
STARTCHAR U_4F90
ENCODING 20368
SWIDTH 1000 0
DWIDTH 15 0
BBX 15 14 0 -1
BITMAP
1980
1980
3318
77FC
F7F8
37F8
37F8
37F8
37F8
37F8
37F8
37F8
37F8
3FFE
ENDCHAR
STARTCHAR U_4F91
ENCODING 20369
SWIDTH 1000 0
DWIDTH 15 0
BBX 15 14 0 -1
BITMAP
18C0
18CC
1FFE
30C0
3180
71FC
F38C
37FC
318C
318C
31FC
318C
31BC
3198
ENDCHAR
STARTCHAR U_4F92
ENCODING 20370
SWIDTH 1000 0
DWIDTH 15 0
BBX 15 14 0 -1
BITMAP
1980
18C0
37FE
7606
FD8C
3180
3FFE
3330
3330
3630
33E0
30E0
33B8
3E0E
ENDCHAR
STARTCHAR U_4F93
ENCODING 20371
SWIDTH 1000 0
DWIDTH 15 0
BBX 15 14 0 -1
BITMAP
0660
0660
0FFC
0C6C
1FFE
3C6C
6C6C
CFFC
0C60
0FFC
0C60
0FFE
0C60
0C60
ENDCHAR
STARTCHAR U_4F94
ENCODING 20372
SWIDTH 1000 0
DWIDTH 15 0
BBX 15 14 0 -1
BITMAP
18C0
18C0
198C
37FE
3306
7360
F3FC
3660
3060
306C
37FE
3060
3060
3060
ENDCHAR
STARTCHAR U_4F95
ENCODING 20373
SWIDTH 1000 0
DWIDTH 15 0
BBX 15 14 0 -1
BITMAP
0C00
0FFE
0C60
18C0
1BFE
3BF6
7BF6
DBF6
1BF6
1BF6
1BF6
1BF6
1B1E
1B0C
ENDCHAR
STARTCHAR U_4F96
ENCODING 20374
SWIDTH 1000 0
DWIDTH 15 0
BBX 15 14 0 -1
BITMAP
0180
0180
03C0
0660
0C30
181C
3FF6
E000
1FFC
1B6C
1FFC
1B6C
1B6C
181C
ENDCHAR
STARTCHAR U_4F97
ENCODING 20375
SWIDTH 1000 0
DWIDTH 15 0
BBX 15 14 0 -1
BITMAP
1800
1FFC
1E0C
360C
37FC
760C
F7FC
37BC
37BC
37FC
37BC
360C
363C
3618
ENDCHAR
STARTCHAR U_4F98
ENCODING 20376
SWIDTH 1000 0
DWIDTH 15 0
BBX 15 14 0 -1
BITMAP
0C60
0C30
0FFE
1B06
1E0C
3838
7BE0
D860
187E
1FE0
1860
1866
1866
183E
ENDCHAR
STARTCHAR U_4F99
ENCODING 20377
SWIDTH 1000 0
DWIDTH 15 0
BBX 15 14 0 -1
BITMAP
0000
1878
186C
3060
3FFE
7060
F060
3FE0
3330
3330
3330
33FE
3F0E
3006
ENDCHAR
STARTCHAR U_4F9A
ENCODING 20378
SWIDTH 1000 0
DWIDTH 15 0
BBX 15 14 0 -1
BITMAP
0D80
0D8C
19FE
1B0C
3E0C
7BFC
DB3C
1BFC
1B3C
1BFC
1B3C
180C
183C
1818
ENDCHAR
STARTCHAR U_4F9B
ENCODING 20379
SWIDTH 1000 0
DWIDTH 15 0
BBX 15 14 0 -1
BITMAP
19B0
19B0
19B0
31B0
37FC
31B0
71B0
F1B0
31B0
3FFE
3000
3198
330E
3606
ENDCHAR
STARTCHAR U_4F9C
ENCODING 20380
SWIDTH 1000 0
DWIDTH 15 0
BBX 15 14 0 -1
BITMAP
0C60
0CC0
1BFC
1B0C
3BCC
7B6C
DB6C
1FFE
1B0C
1BEC
1B6C
1E0C
1E3C
1C18
ENDCHAR
STARTCHAR U_4F9D
ENCODING 20381
SWIDTH 1000 0
DWIDTH 15 0
BBX 15 14 0 -1
BITMAP
18C0
1860
186C
37FE
3060
70C0
F1EC
33B8
37B0
3DB0
3198
31F8
31CC
3386
ENDCHAR
STARTCHAR U_4F9E
ENCODING 20382
SWIDTH 1000 0
DWIDTH 15 0
BBX 15 14 0 -1
BITMAP
0D80
0D80
19BE
1FF6
3BF6
7BF6
DBF6
1BF6
1BF6
1BF6
19B6
19BE
1BF6
1E00
ENDCHAR
STARTCHAR U_4F9F
ENCODING 20383
SWIDTH 1000 0
DWIDTH 15 0
BBX 15 14 0 -1
BITMAP
0CC0
0CCC
1FFE
1980
3980
7BFC
DF18
1F30
1BFE
1B30
1B30
1B30
1BF0
1B60
ENDCHAR
STARTCHAR U_4FA0
ENCODING 20384
SWIDTH 1000 0
DWIDTH 15 0
BBX 15 14 0 -1
BITMAP
1860
186C
1FFE
3060
336C
71F8
F1F8
37FE
3060
30F0
30F0
3198
3318
360E
ENDCHAR
STARTCHAR U_4FA1
ENCODING 20385
SWIDTH 1000 0
DWIDTH 15 0
BBX 15 14 0 -1
BITMAP
0C00
0C0C
0FFE
18F0
18F0
3BFC
7BFC
7BFC
1BFC
1BFC
1BFC
1BFC
1BFC
1B0C
ENDCHAR
STARTCHAR U_4FA2
ENCODING 20386
SWIDTH 1000 0
DWIDTH 15 0
BBX 15 14 0 -1
BITMAP
0C00
0C0C
0FFE
1860
1BFC
3B6C
7B6C
7BFC
1B6C
1FFE
1B0C
1B0C
1B3C
1B18
ENDCHAR
STARTCHAR U_4FA3
ENCODING 20387
SWIDTH 1000 0
DWIDTH 15 0
BBX 15 14 0 -1
BITMAP
1800
1BF8
1B18
3318
3318
73F8
F318
3000
37FC
360C
360C
360C
37FC
360C
ENDCHAR
STARTCHAR U_4FA4
ENCODING 20388
SWIDTH 1000 0
DWIDTH 15 0
BBX 15 14 0 -1
BITMAP
0CC0
0CCC
0FFC
18D8
18F0
3FFE
7860
D8FC
1BC0
1EFC
180C
180C
186C
1838
ENDCHAR
STARTCHAR U_4FA5
ENCODING 20389
SWIDTH 1000 0
DWIDTH 15 0
BBX 15 14 0 -1
BITMAP
1980
1980
1FFE
30CC
30DE
30F6
739E
F00C
37FE
31B0
31B0
31B6
3336
361E
ENDCHAR
STARTCHAR U_4FA6
ENCODING 20390
SWIDTH 1000 0
DWIDTH 15 0
BBX 15 14 0 -1
BITMAP
18C0
18C0
18FC
30C0
37F8
7618
F6D8
36D8
36D8
36D8
36D8
30E0
31B0
371C
ENDCHAR
STARTCHAR U_4FA7
ENCODING 20391
SWIDTH 1000 0
DWIDTH 15 0
BBX 15 14 0 -1
BITMAP
1806
1FE6
1E7E
367E
37FE
77FE
F7FE
37FE
37FE
37FE
379E
33C6
337E
366C
ENDCHAR
STARTCHAR U_4FA8
ENCODING 20392
SWIDTH 1000 0
DWIDTH 15 0
BBX 15 14 0 -1
BITMAP
183C
1FE0
18CC
37FE
31E0
71B0
F31C
3F8E
3198
3198
3198
3198
3318
3E18
ENDCHAR
STARTCHAR U_4FA9
ENCODING 20393
SWIDTH 1000 0
DWIDTH 15 0
BBX 15 14 0 -1
BITMAP
18C0
18C0
19E0
3330
3618
7FFC
F000
3018
3FFC
30C0
3180
3330
37F8
3318
ENDCHAR
STARTCHAR U_4FAA
ENCODING 20394
SWIDTH 1000 0
DWIDTH 15 0
BBX 15 14 0 -1
BITMAP
18C0
1860
1FFC
3318
31B0
70E0
F3B0
3E1E
3330
3330
3330
3330
3630
3C30
ENDCHAR
STARTCHAR U_4FAB
ENCODING 20395
SWIDTH 1000 0
DWIDTH 15 0
BBX 15 14 0 -1
BITMAP
0CC0
0C60
1FFE
1B00
3B00
7BFC
D8C0
18C0
1FFE
1998
18F0
1870
18DC
1B8C
ENDCHAR
STARTCHAR U_4FAC
ENCODING 20396
SWIDTH 1000 0
DWIDTH 15 0
BBX 15 14 0 -1
BITMAP
1860
1860
1860
33FE
336C
36E0
71E6
F1BC
33B8
37B0
3DB0
31F8
31CC
3186
ENDCHAR
STARTCHAR U_4FAD
ENCODING 20397
SWIDTH 1000 0
DWIDTH 15 0
BBX 15 14 0 -1
BITMAP
0C00
0FFC
0F0C
1B0C
1BFC
3B60
7E30
DF98
1CEC
1866
1980
18C0
1870
1830
ENDCHAR
STARTCHAR U_4FAE
ENCODING 20398
SWIDTH 1000 0
DWIDTH 15 0
BBX 15 14 0 -1
BITMAP
1B00
1B0C
1BFE
3600
3FF8
7798
F6D8
3FFE
3618
36D8
3678
3FFE
3018
30F0
ENDCHAR
STARTCHAR U_4FAF
ENCODING 20399
SWIDTH 1000 0
DWIDTH 15 0
BBX 15 14 0 -1
BITMAP
1BF8
1818
1818
37FE
3300
7300
F3FE
3660
3060
37FE
30F0
3198
330C
3606
ENDCHAR
STARTCHAR U_4FB0
ENCODING 20400
SWIDTH 1000 0
DWIDTH 15 0
BBX 15 14 0 -1
BITMAP
0C00
0FFC
0CCC
1FFE
18CC
3BFC
78C0
D98C
1BFE
1B8C
1F8C
1D8C
19FC
198C
ENDCHAR
STARTCHAR U_4FB1
ENCODING 20401
SWIDTH 1000 0
DWIDTH 15 0
BBX 15 14 0 -1
BITMAP
0C00
0DFC
0D8C
198C
19FC
398C
7800
DBFC
1860
1860
1BFC
1860
186C
1FFE
ENDCHAR
STARTCHAR U_4FB2
ENCODING 20402
SWIDTH 1000 0
DWIDTH 15 0
BBX 15 14 0 -1
BITMAP
0C0C
0FFE
0F00
1BFE
1B00
3B00
7BFE
DBF0
1BF6
1BDC
1ED8
1ECC
1EE6
1CC0
ENDCHAR
STARTCHAR U_4FB3
ENCODING 20403
SWIDTH 1000 0
DWIDTH 15 0
BBX 15 14 0 -1
BITMAP
0C60
0C60
0F78
1B78
1B78
3FFC
7CE6
D860
1BFC
1860
1860
1860
1860
1FFE
ENDCHAR
STARTCHAR U_4FB4
ENCODING 20404
SWIDTH 1000 0
DWIDTH 15 0
BBX 15 14 0 -1
BITMAP
0300
0380
06C0
0C60
1838
3FEE
E018
3F78
0F78
0F78
3FF8
1B78
1F98
7830
ENDCHAR
STARTCHAR U_4FB5
ENCODING 20405
SWIDTH 1000 0
DWIDTH 15 0
BBX 15 14 0 -1
BITMAP
1BFC
180C
1BFC
300C
33FC
7606
F7FE
3C0C
33F8
3330
31E0
30C0
33F0
3E1E
ENDCHAR
STARTCHAR U_4FB6
ENCODING 20406
SWIDTH 1000 0
DWIDTH 15 0
BBX 15 14 0 -1
BITMAP
0C00
0DFC
0D8C
198C
198C
39FC
7860
D8C0
1BFE
1B06
1B06
1B06
1BFE
1B06
ENDCHAR
STARTCHAR U_4FB7
ENCODING 20407
SWIDTH 1000 0
DWIDTH 15 0
BBX 15 14 0 -1
BITMAP
0C0C
0FFE
0F0C
1B0C
1BFC
3B00
7BFE
DB06
1BFE
1BDE
1EDE
1EFE
1E1E
1C0C
ENDCHAR
STARTCHAR U_4FB8
ENCODING 20408
SWIDTH 1000 0
DWIDTH 15 0
BBX 15 14 0 -1
BITMAP
0C00
0C0C
0FFE
1800
1BFC
3B0C
7B0C
DBFC
1800
1B18
1998
19B0
1830
1FFE
ENDCHAR
STARTCHAR U_4FB9
ENCODING 20409
SWIDTH 1000 0
DWIDTH 15 0
BBX 15 14 0 -1
BITMAP
0C00
0C1E
0FF8
1998
1B18
3BFE
7E18
DF98
1998
1FFE
1B80
1980
1BE0
1E3E
ENDCHAR
STARTCHAR U_4FBA
ENCODING 20410
SWIDTH 1000 0
DWIDTH 15 0
BBX 15 14 0 -1
BITMAP
0C60
0F6C
0F6C
1BFC
18C0
39E0
7B30
DED8
18CE
1FF8
1830
1860
18C0
18C0
ENDCHAR
STARTCHAR U_4FBB
ENCODING 20411
SWIDTH 1000 0
DWIDTH 15 0
BBX 15 14 0 -1
BITMAP
0F18
0D98
0DB0
1BFC
1B0C
3B0C
7B0C
DBFC
18F0
18F0
19B0
19B6
1B36
1E1E
ENDCHAR
STARTCHAR U_4FBC
ENCODING 20412
SWIDTH 1000 0
DWIDTH 15 0
BBX 15 14 0 -1
BITMAP
0C60
0C60
0FFC
1860
1FFE
3E06
79FC
D830
1860
1FFE
1860
1860
19E0
18C0
ENDCHAR
STARTCHAR U_4FBD
ENCODING 20413
SWIDTH 1000 0
DWIDTH 15 0
BBX 15 14 0 -1
BITMAP
0C00
0FFC
0F6C
1BFC
1B6C
3B6C
7BFC
D860
1FFE
18C6
18C6
1986
1B36
1E1C
ENDCHAR
STARTCHAR U_4FBE
ENCODING 20414
SWIDTH 1000 0
DWIDTH 15 0
BBX 15 14 0 -1
BITMAP
0CC0
0CC0
0FFC
18D8
1FFE
3860
7BFC
D998
1F70
1C6C
1BFE
1860
19E0
18C0
ENDCHAR
STARTCHAR U_4FBF
ENCODING 20415
SWIDTH 1000 0
DWIDTH 15 0
BBX 15 14 0 -1
BITMAP
1FFE
1860
1BFC
336C
336C
73FC
F36C
336C
33FC
3060
3360
31C0
3370
3E1E
ENDCHAR
STARTCHAR U_4FC0
ENCODING 20416
SWIDTH 1000 0
DWIDTH 15 0
BBX 15 14 0 -1
BITMAP
0C18
0C3C
0FE0
1C0C
19EC
39B8
78C0
D8D8
1FFE
1998
1BB0
18E0
19B0
1F1C
ENDCHAR
STARTCHAR U_4FC1
ENCODING 20417
SWIDTH 1000 0
DWIDTH 15 0
BBX 15 14 0 -1
BITMAP
0C00
0DF8
0D98
1998
1FF8
3E00
7FFC
D8CC
18CC
1FFE
19E0
19B0
1B18
1E0E
ENDCHAR
STARTCHAR U_4FC2
ENCODING 20418
SWIDTH 1000 0
DWIDTH 15 0
BBX 15 14 0 -1
BITMAP
0C3E
0FE0
0CC0
198C
1BF8
3830
7860
D8CC
1BFE
1836
19B0
19BC
1BF6
1B66
ENDCHAR
STARTCHAR U_4FC3
ENCODING 20419
SWIDTH 1000 0
DWIDTH 15 0
BBX 15 14 0 -1
BITMAP
1800
1BFC
330C
330C
330C
73FC
F36C
3060
337E
3360
3360
37E0
36E0
3C7E
ENDCHAR
STARTCHAR U_4FC4
ENCODING 20420
SWIDTH 1000 0
DWIDTH 15 0
BBX 15 14 0 -1
BITMAP
18F0
1FBC
19B6
31B6
31B0
7FFE
F1B0
31F6
33BC
3FB8
31B6
31FE
37CE
3306
ENDCHAR
STARTCHAR U_4FC5
ENCODING 20421
SWIDTH 1000 0
DWIDTH 15 0
BBX 15 14 0 -1
BITMAP
18F0
18D8
18D8
3FFE
30C0
76CC
F3F8
33F0
30F0
33D8
3ED8
30CC
33C6
3180
ENDCHAR
STARTCHAR U_4FC6
ENCODING 20422
SWIDTH 1000 0
DWIDTH 15 0
BBX 15 14 0 -1
BITMAP
0CC0
0CC0
0DE0
1B30
1E18
3FFE
78C0
D8C0
1FFC
18C0
1BF0
1BD8
1ECC
1D8C
ENDCHAR
STARTCHAR U_4FC7
ENCODING 20423
SWIDTH 1000 0
DWIDTH 15 0
BBX 15 14 0 -1
BITMAP
0CC0
0D8C
0FFE
1B18
3F98
7D98
D998
1BFE
1F98
1D98
1998
1998
1FFE
1B00
ENDCHAR
STARTCHAR U_4FC8
ENCODING 20424
SWIDTH 1000 0
DWIDTH 15 0
BBX 15 14 0 -1
BITMAP
0C60
0C60
0DE0
19F8
1BFC
3B60
7E60
DFFE
1800
1BFC
1B0C
1B0C
1BFC
1B0C
ENDCHAR
STARTCHAR U_4FC9
ENCODING 20425
SWIDTH 1000 0
DWIDTH 15 0
BBX 15 14 0 -1
BITMAP
0C00
0FFC
0CC0
18C0
1FF8
3998
7998
DFFE
1800
1BFC
1B0C
1B0C
1BFC
1B0C
ENDCHAR
STARTCHAR U_4FCA
ENCODING 20426
SWIDTH 1000 0
DWIDTH 15 0
BBX 15 14 0 -1
BITMAP
18C0
1980
1B18
37FC
31B6
7198
F3CC
37F8
3198
33F0
36F0
3060
31F8
370E
ENDCHAR
STARTCHAR U_4FCB
ENCODING 20427
SWIDTH 1000 0
DWIDTH 15 0
BBX 15 14 0 -1
BITMAP
0C00
0FF8
0F18
1B18
1BF8
3800
7FFC
DECC
1ECC
1FFC
1E00
1E06
1E06
1BFE
ENDCHAR
STARTCHAR U_4FCC
ENCODING 20428
SWIDTH 1000 0
DWIDTH 15 0
BBX 15 14 0 -1
BITMAP
0C00
0CD8
0CCC
1FFE
18C0
3FFC
7ECC
DFFC
1ECC
1FFC
1ECC
1ECC
1EFC
1ED8
ENDCHAR
STARTCHAR U_4FCD
ENCODING 20429
SWIDTH 1000 0
DWIDTH 15 0
BBX 15 14 0 -1
BITMAP
0CC0
0C6C
0FFE
1B0C
1BFC
3B0C
7BFC
DB66
1B6C
1B78
1B30
1B78
1BCE
1B0C
ENDCHAR
STARTCHAR U_4FCE
ENCODING 20430
SWIDTH 1000 0
DWIDTH 15 0
BBX 15 14 0 -1
BITMAP
0000
33F8
3318
3318
7B18
CFF8
C318
3318
3318
7BF8
6F18
CF18
C318
0FFE
ENDCHAR
STARTCHAR U_4FCF
ENCODING 20431
SWIDTH 1000 0
DWIDTH 15 0
BBX 15 14 0 -1
BITMAP
1860
1B66
19EC
31F8
3060
73FE
F306
33FE
3306
33FE
3306
3306
331E
330C
ENDCHAR
STARTCHAR U_4FD0
ENCODING 20432
SWIDTH 1000 0
DWIDTH 15 0
BBX 15 14 0 -1
BITMAP
18C6
19E6
1F06
3336
3336
7FF6
F336
33B6
37F6
3F36
3B36
3306
331E
330C
ENDCHAR
STARTCHAR U_4FD1
ENCODING 20433
SWIDTH 1000 0
DWIDTH 15 0
BBX 15 14 0 -1
BITMAP
180C
1BFE
18D8
3070
37FE
7666
F666
37FE
3666
37FE
3666
3666
367E
366C
ENDCHAR
STARTCHAR U_4FD2
ENCODING 20434
SWIDTH 1000 0
DWIDTH 15 0
BBX 15 14 0 -1
BITMAP
0CC0
0C60
0FFE
1B06
1E06
39F8
7800
DFFE
18F0
18F0
18F0
19B6
19B6
1B1C
ENDCHAR
STARTCHAR U_4FD3
ENCODING 20435
SWIDTH 1000 0
DWIDTH 15 0
BBX 15 14 0 -1
BITMAP
1818
1FFC
1800
336C
36D8
7DB0
F6D8
336C
3018
37FC
3060
3060
306C
3FFE
ENDCHAR
STARTCHAR U_4FD4
ENCODING 20436
SWIDTH 1000 0
DWIDTH 15 0
BBX 15 14 0 -1
BITMAP
1800
1FF8
1E18
37F8
3618
7618
F7F8
3618
37F8
31E0
31E0
31E6
3366
3E3E
ENDCHAR
STARTCHAR U_4FD5
ENCODING 20437
SWIDTH 1000 0
DWIDTH 15 0
BBX 15 14 0 -1
BITMAP
0CC0
0C70
0C60
1BFE
1B06
3E6C
7860
DBFC
18E0
19F0
1B78
1E6E
186C
1860
ENDCHAR
STARTCHAR U_4FD6
ENCODING 20438
SWIDTH 1000 0
DWIDTH 15 0
BBX 15 14 0 -1
BITMAP
180C
1FFE
1860
30E0
31F8
736E
F666
3060
33FC
330C
330C
330C
33FC
330C
ENDCHAR
STARTCHAR U_4FD7
ENCODING 20439
SWIDTH 1000 0
DWIDTH 15 0
BBX 15 14 0 -1
BITMAP
1830
1998
1B0C
366C
3060
70F0
F198
330E
37FC
318C
318C
318C
31FC
318C
ENDCHAR
STARTCHAR U_4FD8
ENCODING 20440
SWIDTH 1000 0
DWIDTH 15 0
BBX 15 14 0 -1
BITMAP
183C
1FE0
198C
36D8
33F0
7FF8
F030
3060
306C
3FFE
3060
3060
31E0
30C0
ENDCHAR
STARTCHAR U_4FD9
ENCODING 20441
SWIDTH 1000 0
DWIDTH 15 0
BBX 15 14 0 -1
BITMAP
0FB8
0CE0
0DF0
1FD8
1CC0
3FFE
79E0
DBFC
1FEC
1DEC
19EC
19FC
19F8
1860
ENDCHAR
STARTCHAR U_4FDA
ENCODING 20442
SWIDTH 1000 0
DWIDTH 15 0
BBX 15 14 0 -1
BITMAP
1800
1FF8
1ED8
36D8
37F8
76D8
F6D8
37F8
36D8
30C0
37F8
30C0
30C0
3FFC
ENDCHAR
STARTCHAR U_4FDB
ENCODING 20443
SWIDTH 1000 0
DWIDTH 15 0
BBX 15 14 0 -1
BITMAP
0D80
0DF8
0F18
1E30
1BFC
3B6C
7B6C
DBFC
18F0
18F0
18F0
19B6
1B36
1E1E
ENDCHAR
STARTCHAR U_4FDC
ENCODING 20444
SWIDTH 1000 0
DWIDTH 15 0
BBX 15 14 0 -1
BITMAP
1B6C
1BFE
1B6C
33FC
336C
73FC
F000
3FFE
3180
33FC
3018
3018
3078
3030
ENDCHAR
STARTCHAR U_4FDD
ENCODING 20445
SWIDTH 1000 0
DWIDTH 15 0
BBX 15 14 0 -1
BITMAP
1800
1BFC
1B0C
330C
33FC
7060
F060
37FE
3060
30F0
31F8
336E
3666
3060
ENDCHAR
STARTCHAR U_4FDE
ENCODING 20446
SWIDTH 1000 0
DWIDTH 15 0
BBX 15 14 0 -1
BITMAP
0180
03C0
0660
0C30
3FFE
E000
3F6C
336C
3F6C
336C
3F6C
336C
333C
3718
ENDCHAR
STARTCHAR U_4FDF
ENCODING 20447
SWIDTH 1000 0
DWIDTH 15 0
BBX 15 14 0 -1
BITMAP
18C0
18C0
198C
33FC
300C
7180
F3FC
3660
3060
37FE
3060
30F0
319C
370E
ENDCHAR
STARTCHAR U_4FE0
ENCODING 20448
SWIDTH 1000 0
DWIDTH 15 0
BBX 15 14 0 -1
BITMAP
0C60
0C6C
0FFE
1860
1B78
3B78
7B78
DFFC
1EE6
1CF0
19B0
1998
1B0C
1E06
ENDCHAR
STARTCHAR U_4FE1
ENCODING 20449
SWIDTH 1000 0
DWIDTH 15 0
BBX 15 14 0 -1
BITMAP
18C0
1860
186C
37FE
3000
73FC
F000
33FC
3000
33FC
330C
330C
33FC
330C
ENDCHAR
STARTCHAR U_4FE2
ENCODING 20450
SWIDTH 1000 0
DWIDTH 15 0
BBX 15 14 0 -1
BITMAP
0D80
0DF8
0F98
1ED8
1870
3878
79FE
DF30
18FE
19B6
18EC
19B8
18E0
1B80
ENDCHAR
STARTCHAR U_4FE3
ENCODING 20451
SWIDTH 1000 0
DWIDTH 15 0
BBX 15 14 0 -1
BITMAP
1800
1BFC
1B0C
330C
33FC
7000
F3FC
3060
3060
37FE
3060
30F0
319C
370E
ENDCHAR
STARTCHAR U_4FE4
ENCODING 20452
SWIDTH 1000 0
DWIDTH 15 0
BBX 15 14 0 -1
BITMAP
0D98
0CF0
0FFE
1866
1BFE
3B60
7B60
DBFE
18E6
19E6
1B7E
1E6C
1860
1860
ENDCHAR
STARTCHAR U_4FE5
ENCODING 20453
SWIDTH 1000 0
DWIDTH 15 0
BBX 15 14 0 -1
BITMAP
0C60
0C60
0FFE
1860
1BFC
3B6C
7BFC
DB6C
1BFC
1860
1FFE
1860
1860
1860
ENDCHAR
STARTCHAR U_4FE6
ENCODING 20454
SWIDTH 1000 0
DWIDTH 15 0
BBX 15 14 0 -1
BITMAP
18C0
18CC
1FFE
3180
37FC
7180
FFFE
3318
33FE
3798
3CD8
30D8
3078
3030
ENDCHAR
STARTCHAR U_4FE7
ENCODING 20455
SWIDTH 1000 0
DWIDTH 15 0
BBX 15 14 0 -1
BITMAP
0C60
0C60
0C60
1FFE
1860
3860
7BFC
D8C0
1EC0
1E78
1FEC
1D86
199E
18F8
ENDCHAR
STARTCHAR U_4FE8
ENCODING 20456
SWIDTH 1000 0
DWIDTH 15 0
BBX 15 14 0 -1
BITMAP
180C
1FFE
1EF6
33FC
30F0
77FE
F600
3600
3600
3600
3600
3600
3600
3C00
ENDCHAR
STARTCHAR U_4FE9
ENCODING 20457
SWIDTH 1000 0
DWIDTH 15 0
BBX 15 14 0 -1
BITMAP
180C
1FFE
19B0
31B0
37FE
77B6
F7B6
37FE
37FE
3766
3666
36C6
361E
360C
ENDCHAR
STARTCHAR U_4FEA
ENCODING 20458
SWIDTH 1000 0
DWIDTH 15 0
BBX 15 14 0 -1
BITMAP
180C
1FFE
1800
3000
37FE
76F6
F6F6
37FE
37FE
36F6
36F6
36F6
36F6
37FE
ENDCHAR
STARTCHAR U_4FEB
ENCODING 20459
SWIDTH 1000 0
DWIDTH 15 0
BBX 15 14 0 -1
BITMAP
0C60
0C60
0C6C
1FFE
1B78
39F8
79F0
DFFE
18E0
19F0
1B78
1E6C
1C66
1860
ENDCHAR
STARTCHAR U_4FEC
ENCODING 20460
SWIDTH 1000 0
DWIDTH 15 0
BBX 15 14 0 -1
BITMAP
1800
19D8
3F18
7318
F318
3FF8
3318
37B0
37FC
3FFC
3F36
3B66
337E
3306
ENDCHAR
STARTCHAR U_4FED
ENCODING 20461
SWIDTH 1000 0
DWIDTH 15 0
BBX 15 14 0 -1
BITMAP
18C0
18C0
19E0
31E0
3330
7618
FFFE
3000
30CC
366C
3378
3318
3030
3FFE
ENDCHAR
STARTCHAR U_4FEE
ENCODING 20462
SWIDTH 1000 0
DWIDTH 15 0
BBX 15 14 0 -1
BITMAP
1980
198C
19FC
3FD8
3F78
7C70
FDDE
3C60
3CD8
3FB0
3CEC
3FB8
30E0
3780
ENDCHAR
STARTCHAR U_4FEF
ENCODING 20463
SWIDTH 1000 0
DWIDTH 15 0
BBX 15 14 0 -1
BITMAP
18C0
1860
1FFE
36CC
36CC
778C
F7FE
378C
37EC
37BC
378C
378C
3DBC
3998
ENDCHAR
STARTCHAR U_4FF0
ENCODING 20464
SWIDTH 1000 0
DWIDTH 15 0
BBX 15 14 0 -1
BITMAP
0C00
0CE0
0F80
19BE
19B6
3FF6
7BB6
DBF6
1FF6
1FB6
1DBE
19B6
19B6
1980
ENDCHAR
STARTCHAR U_4FF1
ENCODING 20465
SWIDTH 1000 0
DWIDTH 15 0
BBX 15 14 0 -1
BITMAP
1818
1BFC
1B18
33F8
3318
73F8
F318
33F8
3318
3318
3FFE
31B0
331C
3E0E
ENDCHAR
STARTCHAR U_4FF2
ENCODING 20466
SWIDTH 1000 0
DWIDTH 15 0
BBX 15 14 0 -1
BITMAP
0F18
0D98
0D98
1FF8
19FE
3F9E
7EDE
DCFE
1F9E
1B36
1B36
1FE6
1C7E
18CC
ENDCHAR
STARTCHAR U_4FF3
ENCODING 20467
SWIDTH 1000 0
DWIDTH 15 0
BBX 15 14 0 -1
BITMAP
19B0
19B0
19B0
3FBE
31B0
71B0
FFBE
31B0
31B0
3FBE
31B0
31B0
31B0
31B0
ENDCHAR
STARTCHAR U_4FF4
ENCODING 20468
SWIDTH 1000 0
DWIDTH 15 0
BBX 15 14 0 -1
BITMAP
19E0
19B0
1FFC
30D8
30F6
7066
FFFE
31E0
31B0
3FFC
30D8
30F6
3076
3FDE
ENDCHAR
STARTCHAR U_4FF5
ENCODING 20469
SWIDTH 1000 0
DWIDTH 15 0
BBX 15 14 0 -1
BITMAP
18C0
18D8
1FFC
30C0
37FC
70C0
FFFE
31E0
336C
3778
3F30
33D8
338C
3706
ENDCHAR
STARTCHAR U_4FF6
ENCODING 20470
SWIDTH 1000 0
DWIDTH 15 0
BBX 15 14 0 -1
BITMAP
1B00
1B7E
1B36
33F6
3336
7FF6
F33C
333C
3FBC
3FD8
3BD8
333C
3F66
36C6
ENDCHAR
STARTCHAR U_4FF7
ENCODING 20471
SWIDTH 1000 0
DWIDTH 15 0
BBX 15 14 0 -1
BITMAP
1800
1FFE
1FFE
37FE
37FE
77FE
F7FE
37E6
37E0
37E0
37E6
3DE6
3DE6
3BBE
ENDCHAR
STARTCHAR U_4FF8
ENCODING 20472
SWIDTH 1000 0
DWIDTH 15 0
BBX 15 14 0 -1
BITMAP
18C0
18C0
1FFC
30C0
37F8
7180
FFFE
33D8
36CC
3FF6
30C0
37FC
30C0
30C0
ENDCHAR
STARTCHAR U_4FF9
ENCODING 20473
SWIDTH 1000 0
DWIDTH 15 0
BBX 15 14 0 -1
BITMAP
1800
1FFC
19B0
31B0
31B0
77BC
F60C
360C
360C
37BC
31B0
31B0
31B0
3FFE
ENDCHAR
STARTCHAR U_4FFA
ENCODING 20474
SWIDTH 1000 0
DWIDTH 15 0
BBX 15 14 0 -1
BITMAP
1980
1980
1FFE
3360
36F0
7FFC
FEDE
36D8
37F8
36D8
37F8
36DE
30C6
307E
ENDCHAR
STARTCHAR U_4FFB
ENCODING 20475
SWIDTH 1000 0
DWIDTH 15 0
BBX 15 14 0 -1
BITMAP
0D80
0D80
0FFC
1F98
1CF0
3860
79F8
DF0E
1BFC
1B6C
1BFC
1B6C
1BFC
1B0C
ENDCHAR
STARTCHAR U_4FFC
ENCODING 20476
SWIDTH 1000 0
DWIDTH 15 0
BBX 15 14 0 -1
BITMAP
1980
18CC
1FFE
31B0
3318
77FC
F00C
37F8
3618
37F8
3618
37F8
3618
3630
ENDCHAR
STARTCHAR U_4FFD
ENCODING 20477
SWIDTH 1000 0
DWIDTH 15 0
BBX 15 14 0 -1
BITMAP
19F0
1F30
1E3E
3666
3678
77D8
F798
3798
3798
37BC
37BC
3DEC
3DE6
39C6
ENDCHAR
STARTCHAR U_4FFE
ENCODING 20478
SWIDTH 1000 0
DWIDTH 15 0
BBX 15 14 0 -1
BITMAP
18C0
1980
1BFC
336C
33FC
736C
F36C
33FC
30F0
31BC
37FE
3030
3030
3030
ENDCHAR
STARTCHAR U_4FFF
ENCODING 20479
SWIDTH 1000 0
DWIDTH 15 0
BBX 15 14 0 -1
BITMAP
18C0
18F8
18C0
37FE
36C6
77F8
F6CC
367C
3600
36F8
36D8
3CD8
3D9E
3F1E
ENDCHAR
STARTCHAR U_5000
ENCODING 20480
SWIDTH 1000 0
DWIDTH 15 0
BBX 15 14 0 -1
BITMAP
0C18
0DFC
0D80
19F8
1980
39F8
7980
D98C
1FFE
19E0
19BC
19F8
19CC
1986
ENDCHAR
STARTCHAR U_5001
ENCODING 20481
SWIDTH 1000 0
DWIDTH 15 0
BBX 15 14 0 -1
BITMAP
1E00
1E00
1E3C
37FC
3F3C
7B3C
F33C
3FFC
333C
333C
37BC
36FC
3CFC
3800
ENDCHAR
STARTCHAR U_5002
ENCODING 20482
SWIDTH 1000 0
DWIDTH 15 0
BBX 15 14 0 -1
BITMAP
0D8C
0D8C
0D8C
1B18
1FFE
398C
798C
D98C
1FFE
198C
198C
1B0C
1B0C
1E0C
ENDCHAR
STARTCHAR U_5003
ENCODING 20483
SWIDTH 1000 0
DWIDTH 15 0
BBX 15 14 0 -1
BITMAP
1B18
1B18
1BF8
367C
3F7E
73DE
F1F8
3330
3E1E
37FC
360C
360C
37FC
360C
ENDCHAR
STARTCHAR U_5004
ENCODING 20484
SWIDTH 1000 0
DWIDTH 15 0
BBX 15 14 0 -1
BITMAP
1B18
19B0
18E0
31B0
33D8
7FFE
F300
37F8
3F18
3BF8
3318
33F8
3318
3338
ENDCHAR
STARTCHAR U_5005
ENCODING 20485
SWIDTH 1000 0
DWIDTH 15 0
BBX 15 14 0 -1
BITMAP
0CC0
0C6C
0FFE
1800
1998
3998
7BFC
DE76
1860
1FFE
1860
1860
1860
1860
ENDCHAR
STARTCHAR U_5006
ENCODING 20486
SWIDTH 1000 0
DWIDTH 15 0
BBX 15 14 0 -1
BITMAP
1800
1FFC
30C0
30C0
7FFE
FCC6
3EF6
3FDE
3FDE
3FDE
3FFE
3FEE
3CDE
3CCC
ENDCHAR
STARTCHAR U_5007
ENCODING 20487
SWIDTH 1000 0
DWIDTH 15 0
BBX 15 14 0 -1
BITMAP
1980
18C0
1FFE
3606
3F0C
7300
F3FC
36FC
36FC
3FFC
39BC
31B0
3336
361E
ENDCHAR
STARTCHAR U_5008
ENCODING 20488
SWIDTH 1000 0
DWIDTH 15 0
BBX 15 14 0 -1
BITMAP
0CC0
0CC0
0CCC
1FFE
1BD8
3BD8
7FFC
DEC6
1DE0
1BF0
1EF0
1CDE
18CC
18C0
ENDCHAR
STARTCHAR U_5009
ENCODING 20489
SWIDTH 1000 0
DWIDTH 15 0
BBX 15 14 0 -1
BITMAP
0300
0380
06C0
0F70
1998
3FFE
EC30
0FF0
0C30
0FF0
1800
1FF8
3618
67F8
ENDCHAR
STARTCHAR U_500A
ENCODING 20490
SWIDTH 1000 0
DWIDTH 15 0
BBX 15 14 0 -1
BITMAP
1860
1B60
1B60
37B0
3D98
7B6E
F330
37F8
3198
33C0
3FCC
3F36
3B36
31F0
ENDCHAR
STARTCHAR U_500B
ENCODING 20491
SWIDTH 1000 0
DWIDTH 15 0
BBX 15 14 0 -1
BITMAP
1800
1FFE
3666
3666
77FE
F666
3666
37FE
379E
379E
37FE
3606
37FE
3606
ENDCHAR
STARTCHAR U_500C
ENCODING 20492
SWIDTH 1000 0
DWIDTH 15 0
BBX 15 14 0 -1
BITMAP
18C0
1860
1FFE
3606
3FFC
7318
F318
33F8
3300
33FC
330C
330C
33FC
330C
ENDCHAR
STARTCHAR U_500D
ENCODING 20493
SWIDTH 1000 0
DWIDTH 15 0
BBX 15 14 0 -1
BITMAP
18C0
186C
1FFE
3198
30D8
70F0
F7FE
3000
33FC
330C
330C
330C
33FC
330C
ENDCHAR
STARTCHAR U_500E
ENCODING 20494
SWIDTH 1000 0
DWIDTH 15 0
BBX 15 14 0 -1
BITMAP
19B0
19B0
37FC
37BC
77BC
F7BC
37FC
37BC
37BC
37BC
3FFE
3318
360C
3C06
ENDCHAR
STARTCHAR U_500F
ENCODING 20495
SWIDTH 1000 0
DWIDTH 15 0
BBX 15 14 0 -1
BITMAP
198C
19FE
19CC
3378
3C30
7C78
FDCE
3F78
3C6C
3FFE
3C60
30F0
3198
370E
ENDCHAR
STARTCHAR U_5010
ENCODING 20496
SWIDTH 1000 0
DWIDTH 15 0
BBX 15 14 0 -1
BITMAP
1980
1980
19FC
3F98
3EF0
7C60
FDF8
3F6E
3DF8
3DF8
3FF0
3D98
330E
3E06
ENDCHAR
STARTCHAR U_5011
ENCODING 20497
SWIDTH 1000 0
DWIDTH 15 0
BBX 15 14 0 -1
BITMAP
1800
1FFE
36F6
37FE
76F6
F7FE
3606
3606
3606
3606
3606
3606
361E
360C
ENDCHAR
STARTCHAR U_5012
ENCODING 20498
SWIDTH 1000 0
DWIDTH 15 0
BBX 15 14 0 -1
BITMAP
1806
1FE6
1986
331E
36DE
77FE
F1FE
319E
37FE
319E
3186
31E6
3F1E
300C
ENDCHAR
STARTCHAR U_5013
ENCODING 20499
SWIDTH 1000 0
DWIDTH 15 0
BBX 15 14 0 -1
BITMAP
0CC0
0CC0
0FCE
1BD8
1EF0
38D8
798E
DBC0
1EDC
1BF0
1BE0
1FB0
1B18
1E0E
ENDCHAR
STARTCHAR U_5014
ENCODING 20500
SWIDTH 1000 0
DWIDTH 15 0
BBX 15 14 0 -1
BITMAP
1FFE
1E06
1E06
37FE
3636
7630
F7B6
37B6
37FE
3630
37B6
37B6
3DFE
3986
ENDCHAR
STARTCHAR U_5015
ENCODING 20501
SWIDTH 1000 0
DWIDTH 15 0
BBX 15 14 0 -1
BITMAP
1818
187C
1FC0
30C0
37FC
73F0
F3FC
3FFE
33F0
37FC
30C0
30C0
30C0
37FC
ENDCHAR
STARTCHAR U_5016
ENCODING 20502
SWIDTH 1000 0
DWIDTH 15 0
BBX 15 14 0 -1
BITMAP
18C0
18D8
1BFC
30C0
30C0
7FFE
F318
3198
31B0
3FFC
30C0
3FFE
30C0
30C0
ENDCHAR
STARTCHAR U_5017
ENCODING 20503
SWIDTH 1000 0
DWIDTH 15 0
BBX 15 14 0 -1
BITMAP
1800
1FFE
1EF6
36F6
37FE
76F6
F6F6
37FE
36F6
36F6
36F6
3FE6
3DFE
38CC
ENDCHAR
STARTCHAR U_5018
ENCODING 20504
SWIDTH 1000 0
DWIDTH 15 0
BBX 15 14 0 -1
BITMAP
1860
1B66
19EC
31F8
3060
77FE
F606
37F6
37B6
37B6
37F6
3606
361E
360C
ENDCHAR
STARTCHAR U_5019
ENCODING 20505
SWIDTH 1000 0
DWIDTH 15 0
BBX 15 14 0 -1
BITMAP
1800
19F8
1818
3018
3FFE
7D80
FDFC
3F60
3C6C
3FFE
3C60
30F0
3198
370E
ENDCHAR
STARTCHAR U_501A
ENCODING 20506
SWIDTH 1000 0
DWIDTH 15 0
BBX 15 14 0 -1
BITMAP
18C0
18D8
1FFC
30C0
31E0
7330
FFFE
3018
37D8
36D8
37D8
36D8
3078
3030
ENDCHAR
STARTCHAR U_501B
ENCODING 20507
SWIDTH 1000 0
DWIDTH 15 0
BBX 15 14 0 -1
BITMAP
1B18
1B18
1FFC
3318
33F8
7318
F318
33F8
3318
3318
3FFE
3198
330C
3606
ENDCHAR
STARTCHAR U_501C
ENCODING 20508
SWIDTH 1000 0
DWIDTH 15 0
BBX 15 14 0 -1
BITMAP
1800
1FFE
1E66
3666
37FE
7666
F7FE
3606
37FE
379E
37FE
3606
3C1E
380C
ENDCHAR
STARTCHAR U_501D
ENCODING 20509
SWIDTH 1000 0
DWIDTH 15 0
BBX 15 14 0 -1
BITMAP
0C30
7FB0
0C30
7F30
6330
6330
7F78
6378
7F78
0C78
0CCC
FFCC
0D86
0F06
ENDCHAR
STARTCHAR U_501E
ENCODING 20510
SWIDTH 1000 0
DWIDTH 15 0
BBX 15 14 0 -1
BITMAP
1980
18C0
18CC
3FFE
3000
77F8
F618
3618
37F8
30C0
33F0
36D8
3FCC
318C
ENDCHAR
STARTCHAR U_501F
ENCODING 20511
SWIDTH 1000 0
DWIDTH 15 0
BBX 15 14 0 -1
BITMAP
19B0
19B0
1FFC
31B0
31B0
7FFE
F000
33F8
3318
3318
33F8
3318
33F8
3318
ENDCHAR
STARTCHAR U_5020
ENCODING 20512
SWIDTH 1000 0
DWIDTH 15 0
BBX 15 14 0 -1
BITMAP
1BC0
1B60
1B6C
37FE
3660
7E60
FFFC
3660
3660
37FC
3660
3660
37FE
3600
ENDCHAR
STARTCHAR U_5021
ENCODING 20513
SWIDTH 1000 0
DWIDTH 15 0
BBX 15 14 0 -1
BITMAP
1800
1BF8
1B18
33F8
3318
73F8
F318
3000
37FC
360C
37FC
360C
37FC
360C
ENDCHAR
STARTCHAR U_5022
ENCODING 20514
SWIDTH 1000 0
DWIDTH 15 0
BBX 15 14 0 -1
BITMAP
18C0
18D8
1FFE
30C0
37F8
70D8
FFFE
30D8
37F8
30C0
36FC
36C0
3FC0
387E
ENDCHAR
STARTCHAR U_5023
ENCODING 20515
SWIDTH 1000 0
DWIDTH 15 0
BBX 15 14 0 -1
BITMAP
1E30
1B30
1B30
3FE0
367E
76EC
F7EC
37EC
37FC
37F8
3DB0
3DB0
3BF8
30CE
ENDCHAR
STARTCHAR U_5024
ENCODING 20516
SWIDTH 1000 0
DWIDTH 15 0
BBX 15 14 0 -1
BITMAP
18C0
18CC
3FFE
3180
73F8
F318
3FF8
3F18
3FF8
3F18
3FF8
3F18
3C00
3FFE
ENDCHAR
STARTCHAR U_5025
ENCODING 20517
SWIDTH 1000 0
DWIDTH 15 0
BBX 15 14 0 -1
BITMAP
18C0
1860
1BFE
330C
3798
718C
F306
3618
33FC
3060
3060
3060
306C
37FE
ENDCHAR
STARTCHAR U_5026
ENCODING 20518
SWIDTH 1000 0
DWIDTH 15 0
BBX 15 14 0 -1
BITMAP
1ED8
1BD8
1BF0
3FFC
3180
718C
FFFE
3330
37F8
3F3E
3B30
336C
330C
31FC
ENDCHAR
STARTCHAR U_5027
ENCODING 20519
SWIDTH 1000 0
DWIDTH 15 0
BBX 15 14 0 -1
BITMAP
0CC0
0C60
0C60
1BFE
1B06
3E0C
7BF8
D800
1FFE
1860
19F8
1B6C
1FE6
18C6
ENDCHAR
STARTCHAR U_5028
ENCODING 20520
SWIDTH 1000 0
DWIDTH 15 0
BBX 15 14 0 -1
BITMAP
1BFC
1B0C
1B0C
33FC
3330
733C
F3FE
3330
3330
37FC
378C
378C
37FC
3D8C
ENDCHAR
STARTCHAR U_5029
ENCODING 20521
SWIDTH 1000 0
DWIDTH 15 0
BBX 15 14 0 -1
BITMAP
186C
1FFE
1860
33FC
3060
7FFE
F000
33FC
330C
33FC
330C
33FC
330C
333C
ENDCHAR
STARTCHAR U_502A
ENCODING 20522
SWIDTH 1000 0
DWIDTH 15 0
BBX 15 14 0 -1
BITMAP
18C0
19BC
1F0C
360C
37FC
760C
F60C
37FC
37BC
31B0
31B0
3336
3636
3C1E
ENDCHAR
STARTCHAR U_502B
ENCODING 20523
SWIDTH 1000 0
DWIDTH 15 0
BBX 15 14 0 -1
BITMAP
18C0
18C0
19E0
3330
3618
7FFC
F806
37F8
37F8
37F8
37F8
37F8
37F8
3638
ENDCHAR
STARTCHAR U_502C
ENCODING 20524
SWIDTH 1000 0
DWIDTH 15 0
BBX 15 14 0 -1
BITMAP
18C0
18CC
18FE
30C0
37F8
7618
F7F8
3618
37F8
30CC
3FFE
30C0
30C0
30C0
ENDCHAR
STARTCHAR U_502D
ENCODING 20525
SWIDTH 1000 0
DWIDTH 15 0
BBX 15 14 0 -1
BITMAP
1838
1FE0
18CC
3FFE
31F0
73D8
FECE
30C0
3FFE
3198
3330
31E0
30F8
3F9E
ENDCHAR
STARTCHAR U_502E
ENCODING 20526
SWIDTH 1000 0
DWIDTH 15 0
BBX 15 14 0 -1
BITMAP
1BFC
1B6C
1B6C
33FC
336C
736C
F3FC
3060
3FFE
30E0
31F0
3378
3E6E
3060
ENDCHAR
STARTCHAR U_502F
ENCODING 20527
SWIDTH 1000 0
DWIDTH 15 0
BBX 15 14 0 -1
BITMAP
1E18
1E78
1E78
366C
3FEC
76CC
F6FC
3FF6
3FB6
3FE0
3660
36CC
36FE
3606
ENDCHAR
STARTCHAR U_5030
ENCODING 20528
SWIDTH 1000 0
DWIDTH 15 0
BBX 15 14 0 -1
BITMAP
18C0
18D8
1FFC
30C0
3FFE
7318
F6CE
3D86
3BF8
3798
3CF0
3060
31F8
370E
ENDCHAR
STARTCHAR U_5031
ENCODING 20529
SWIDTH 1000 0
DWIDTH 15 0
BBX 15 14 0 -1
BITMAP
1818
1FFC
1E18
37F8
3618
7618
F7F8
3000
3630
37FE
3638
37F6
3736
361E
ENDCHAR
STARTCHAR U_5032
ENCODING 20530
SWIDTH 1000 0
DWIDTH 15 0
BBX 15 14 0 -1
BITMAP
18C0
18D8
1FFC
30C0
37F8
76D8
F7F8
36D8
37F8
36D8
31E0
33F0
36D8
3CCE
ENDCHAR
STARTCHAR U_5033
ENCODING 20531
SWIDTH 1000 0
DWIDTH 15 0
BBX 15 14 0 -1
BITMAP
18CC
1FFE
18C0
37F8
36D8
77F8
F0C0
37F8
30D8
3FFE
30D8
37F8
30C0
31C0
ENDCHAR
STARTCHAR U_5034
ENCODING 20532
SWIDTH 1000 0
DWIDTH 15 0
BBX 15 14 0 -1
BITMAP
18C0
18CC
1FFE
31B0
33D8
77FC
FCC6
33F0
3330
3FFE
3330
3330
3630
3C30
ENDCHAR
STARTCHAR U_5035
ENCODING 20533
SWIDTH 1000 0
DWIDTH 15 0
BBX 15 14 0 -1
BITMAP
1860
1878
1FEC
306C
3FFE
7360
F360
3F60
3FF0
3F30
3F1E
3FDE
3F0E
3006
ENDCHAR
STARTCHAR U_5036
ENCODING 20534
SWIDTH 1000 0
DWIDTH 15 0
BBX 15 14 0 -1
BITMAP
1818
1BFC
1B18
33F8
3318
73F8
F318
33F8
3318
300C
3FFE
31B0
3318
360E
ENDCHAR
STARTCHAR U_5037
ENCODING 20535
SWIDTH 1000 0
DWIDTH 15 0
BBX 15 14 0 -1
BITMAP
18C0
18D8
1FFC
31B0
31B0
7318
F7FC
3C06
3FFC
30C0
33F0
33D8
36CC
3DCC
ENDCHAR
STARTCHAR U_5038
ENCODING 20536
SWIDTH 1000 0
DWIDTH 15 0
BBX 15 14 0 -1
BITMAP
1818
183C
1FE0
318C
3CCC
76D8
F630
30C0
3FFE
30C0
31E0
33F0
36DE
3CCC
ENDCHAR
STARTCHAR U_5039
ENCODING 20537
SWIDTH 1000 0
DWIDTH 15 0
BBX 15 14 0 -1
BITMAP
18C0
18C0
19E0
3330
3618
7FFC
F8C6
3FFC
3CCC
3FFC
3CCC
31E0
3330
3E1C
ENDCHAR
STARTCHAR U_503A
ENCODING 20538
SWIDTH 1000 0
DWIDTH 15 0
BBX 15 14 0 -1
BITMAP
18C0
1FFC
18C0
37F8
30C0
7FFC
F000
37F8
3618
36D8
36D8
36C0
31B8
3F0E
ENDCHAR
STARTCHAR U_503B
ENCODING 20539
SWIDTH 1000 0
DWIDTH 15 0
BBX 15 14 0 -1
BITMAP
1800
1FE0
1EFE
36F6
37F6
76FC
F6FC
37F6
36F6
36FE
3FFC
30F0
30F0
30F0
ENDCHAR
STARTCHAR U_503C
ENCODING 20540
SWIDTH 1000 0
DWIDTH 15 0
BBX 15 14 0 -1
BITMAP
1860
186C
1FFE
30C0
33F8
7318
F3F8
3318
3318
33F8
3318
33F8
3318
3FFE
ENDCHAR
STARTCHAR U_503D
ENCODING 20541
SWIDTH 1000 0
DWIDTH 15 0
BBX 15 14 0 -1
BITMAP
18C0
18C0
19E0
3330
3618
7FFE
F986
3180
3FFC
3180
37F8
3618
3618
37F8
ENDCHAR
STARTCHAR U_503E
ENCODING 20542
SWIDTH 1000 0
DWIDTH 15 0
BBX 15 14 0 -1
BITMAP
180C
19FE
3C18
3C30
3CFE
7FC6
FCF6
3CF6
3CF6
3FF6
3EF6
3C78
30CE
3186
ENDCHAR
STARTCHAR U_503F
ENCODING 20543
SWIDTH 1000 0
DWIDTH 15 0
BBX 15 14 0 -1
BITMAP
1980
18C0
1FFC
3318
31B0
7FFE
F0C0
30C0
3FFE
3198
3318
33B0
30F0
379C
ENDCHAR
STARTCHAR U_5040
ENCODING 20544
SWIDTH 1000 0
DWIDTH 15 0
BBX 15 14 0 -1
BITMAP
1B30
1B3C
1FFE
3330
33F0
70C0
F7FC
36CC
36CC
3FFE
31E0
31B0
3318
3E0E
ENDCHAR
STARTCHAR U_5041
ENCODING 20545
SWIDTH 1000 0
DWIDTH 15 0
BBX 15 14 0 -1
BITMAP
183C
1FE0
1998
3CD8
3630
70C0
F7F8
36D8
36D8
37F8
36D8
3FFE
3618
3638
ENDCHAR
STARTCHAR U_5042
ENCODING 20546
SWIDTH 1000 0
DWIDTH 15 0
BBX 15 14 0 -1
BITMAP
1B18
1998
19B0
3FFE
3000
77C6
F6F6
36F6
37F6
36F6
37F6
36C6
36DE
37CC
ENDCHAR
STARTCHAR U_5043
ENCODING 20547
SWIDTH 1000 0
DWIDTH 15 0
BBX 15 14 0 -1
BITMAP
1FFE
1E00
1FFC
378C
37FC
778C
F7FC
366C
37FE
36D8
36F0
367C
36C6
37FE
ENDCHAR
STARTCHAR U_5044
ENCODING 20548
SWIDTH 1000 0
DWIDTH 15 0
BBX 15 14 0 -1
BITMAP
180C
1FFE
1860
30C0
37FC
77BC
F7BC
37BC
36DC
30C0
3FFE
31B0
3318
3E0E
ENDCHAR
STARTCHAR U_5045
ENCODING 20549
SWIDTH 1000 0
DWIDTH 15 0
BBX 15 14 0 -1
BITMAP
1818
18FC
1FC0
30CC
3FFE
76D8
F7F8
36D8
37F8
30C0
37F8
30C0
30CC
3FFE
ENDCHAR
STARTCHAR U_5046
ENCODING 20550
SWIDTH 1000 0
DWIDTH 15 0
BBX 15 14 0 -1
BITMAP
18C0
18D8
1FFC
30C0
37F8
7180
FFFE
31B0
3318
37FC
3F1E
3BF8
3318
33F8
ENDCHAR
STARTCHAR U_5047
ENCODING 20551
SWIDTH 1000 0
DWIDTH 15 0
BBX 15 14 0 -1
BITMAP
1800
1FFC
1ECC
36CC
37FC
7600
F67C
37EC
366C
366C
37FC
3618
367C
37C6
ENDCHAR
STARTCHAR U_5048
ENCODING 20552
SWIDTH 1000 0
DWIDTH 15 0
BBX 15 14 0 -1
BITMAP
180C
1BFE
1B0C
33FC
330C
73FC
F180
33FE
3766
3FF6
339E
3306
33F6
301C
ENDCHAR
STARTCHAR U_5049
ENCODING 20553
SWIDTH 1000 0
DWIDTH 15 0
BBX 15 14 0 -1
BITMAP
18C0
1BF8
18D8
3FFE
3000
73FC
F30C
33FC
3060
37FC
3660
37FE
3060
3060
ENDCHAR
STARTCHAR U_504A
ENCODING 20554
SWIDTH 1000 0
DWIDTH 15 0
BBX 15 14 0 -1
BITMAP
1818
187C
1FC0
30C0
37FC
76CC
F7FC
30C0
3FFE
3CC6
3CDE
3CFE
3FDE
3C0E
ENDCHAR
STARTCHAR U_504B
ENCODING 20555
SWIDTH 1000 0
DWIDTH 15 0
BBX 15 14 0 -1
BITMAP
1800
1FFC
1E0C
37FC
3798
76F0
F7FC
36F0
36F0
37FE
36F0
3CF0
3DB0
3B30
ENDCHAR
STARTCHAR U_504C
ENCODING 20556
SWIDTH 1000 0
DWIDTH 15 0
BBX 15 14 0 -1
BITMAP
1998
1998
1FFE
3198
31F8
7060
FFFE
3180
33FC
378C
3D8C
318C
31FC
318C
ENDCHAR
STARTCHAR U_504D
ENCODING 20557
SWIDTH 1000 0
DWIDTH 15 0
BBX 15 14 0 -1
BITMAP
1800
1BF8
1B18
33F8
3318
73F8
F00C
3FFE
30C0
36C0
36F8
3FC0
3DC0
38FE
ENDCHAR
STARTCHAR U_504E
ENCODING 20558
SWIDTH 1000 0
DWIDTH 15 0
BBX 15 14 0 -1
BITMAP
1800
1BFC
1B6C
33FC
336C
73FC
F000
3FFE
33C0
337C
3330
33D8
378C
3306
ENDCHAR
STARTCHAR U_504F
ENCODING 20559
SWIDTH 1000 0
DWIDTH 15 0
BBX 15 14 0 -1
BITMAP
18C0
1860
1FFE
3606
37FE
7600
F7FE
37FE
37FE
37FE
37FE
37FE
3DFE
398E
ENDCHAR
STARTCHAR U_5050
ENCODING 20560
SWIDTH 1000 0
DWIDTH 15 0
BBX 15 14 0 -1
BITMAP
0CC0
0C60
1FFE
3198
70D8
F0F0
37FE
3618
3670
37CC
3638
3DE6
3C1C
39F0
ENDCHAR
STARTCHAR U_5051
ENCODING 20561
SWIDTH 1000 0
DWIDTH 15 0
BBX 15 14 0 -1
BITMAP
1800
1FFC
1E3C
1FEC
36CC
37FC
77FC
F7FC
37FC
36CC
36FC
3CFC
3FCE
3806
ENDCHAR
STARTCHAR U_5052
ENCODING 20562
SWIDTH 1000 0
DWIDTH 15 0
BBX 15 14 0 -1
BITMAP
0C00
0FF8
0F18
1BF8
1B18
3BF8
7800
DFFE
1B00
1FFC
1EFC
1DBC
1B6C
1EDC
ENDCHAR
STARTCHAR U_5053
ENCODING 20563
SWIDTH 1000 0
DWIDTH 15 0
BBX 15 14 0 -1
BITMAP
1800
1FF8
1E18
3618
37F8
7600
F7FC
36F0
3798
37FC
366C
3DF8
3C60
3BFE
ENDCHAR
STARTCHAR U_5054
ENCODING 20564
SWIDTH 1000 0
DWIDTH 15 0
BBX 15 14 0 -1
BITMAP
1800
1FBC
1FBC
37BC
3000
73F8
F000
3FFE
3180
33F8
3018
3018
30F0
3060
ENDCHAR
STARTCHAR U_5055
ENCODING 20565
SWIDTH 1000 0
DWIDTH 15 0
BBX 15 14 0 -1
BITMAP
1B30
1B36
1BFE
3338
3336
73F6
F77E
30C0
33FC
330C
33FC
330C
33FC
330C
ENDCHAR
STARTCHAR U_5056
ENCODING 20566
SWIDTH 1000 0
DWIDTH 15 0
BBX 15 14 0 -1
BITMAP
0C60
0C60
0FFE
186C
1878
3FFE
7860
D8C0
1BFC
1F8C
19FC
198C
198C
19FC
ENDCHAR
STARTCHAR U_5057
ENCODING 20567
SWIDTH 1000 0
DWIDTH 15 0
BBX 15 14 0 -1
BITMAP
18C0
1BD8
1BCC
36CE
3CF6
71C0
F7FC
3E0C
37FC
360C
37FC
360C
37FC
360C
ENDCHAR
STARTCHAR U_5058
ENCODING 20568
SWIDTH 1000 0
DWIDTH 15 0
BBX 15 14 0 -1
BITMAP
0C0C
0FFE
0F0C
1B0C
1B0C
3BFC
7B0C
D800
1FFE
1EF6
1EF6
1EF6
1FFE
1EF6
ENDCHAR
STARTCHAR U_5059
ENCODING 20569
SWIDTH 1000 0
DWIDTH 15 0
BBX 15 14 0 -1
BITMAP
1980
18D8
1FFC
3330
31E0
7FFE
FC06
38CC
37F8
36D8
36D8
36F8
30F0
30C0
ENDCHAR
STARTCHAR U_505A
ENCODING 20570
SWIDTH 1000 0
DWIDTH 15 0
BBX 15 14 0 -1
BITMAP
1B60
1B60
1B6C
337E
3FEC
736C
F3EC
3FEC
3DBC
3DBC
3D98
3F98
3DBC
30E6
ENDCHAR
STARTCHAR U_505B
ENCODING 20571
SWIDTH 1000 0
DWIDTH 15 0
BBX 15 14 0 -1
BITMAP
1818
187C
1FE0
3060
306C
7FFE
F060
31FE
3766
3666
37FE
3666
37FE
3606
ENDCHAR
STARTCHAR U_505C
ENCODING 20572
SWIDTH 1000 0
DWIDTH 15 0
BBX 15 14 0 -1
BITMAP
18C0
1FFE
1800
33F8
3318
73F8
F000
3FFE
3C06
37FC
3060
3060
31E0
30C0
ENDCHAR
STARTCHAR U_505D
ENCODING 20573
SWIDTH 1000 0
DWIDTH 15 0
BBX 15 14 0 -1
BITMAP
19B0
19BE
1FB8
31B0
33B6
7FBE
F000
33FC
330C
33FC
330C
33FC
330C
331C
ENDCHAR
STARTCHAR U_505E
ENCODING 20574
SWIDTH 1000 0
DWIDTH 15 0
BBX 15 14 0 -1
BITMAP
18D8
1BD8
1BD8
3FFE
73D8
F3F8
3300
33FC
3060
3FFE
30F0
31F8
336C
3E66
ENDCHAR
STARTCHAR U_505F
ENCODING 20575
SWIDTH 1000 0
DWIDTH 15 0
BBX 15 14 0 -1
BITMAP
18C0
1980
1FFC
360C
760C
F7FC
360C
37FC
3000
3FFE
30C0
37FC
30C0
3FFE
ENDCHAR
STARTCHAR U_5060
ENCODING 20576
SWIDTH 1000 0
DWIDTH 15 0
BBX 15 14 0 -1
BITMAP
180C
1FFE
19B0
37FC
37BC
77BC
F7FC
3180
3FFE
31B0
33B0
30E0
33B8
3E0C
ENDCHAR
STARTCHAR U_5061
ENCODING 20577
SWIDTH 1000 0
DWIDTH 15 0
BBX 15 14 0 -1
BITMAP
1998
1998
1FFE
3198
31F8
7198
F1F8
3198
3FFE
33F0
33D8
338C
330C
33FE
ENDCHAR
STARTCHAR U_5062
ENCODING 20578
SWIDTH 1000 0
DWIDTH 15 0
BBX 15 14 0 -1
BITMAP
1830
1BB0
1E30
36FC
36FC
7FF8
F6F0
3730
37B0
3E78
3E78
36CC
36CC
3786
ENDCHAR
STARTCHAR U_5063
ENCODING 20579
SWIDTH 1000 0
DWIDTH 15 0
BBX 15 14 0 -1
BITMAP
1980
18C0
1FFC
3318
3318
71B0
FFFE
3000
33F8
3318
33F8
3318
33F8
3318
ENDCHAR
STARTCHAR U_5064
ENCODING 20580
SWIDTH 1000 0
DWIDTH 15 0
BBX 15 14 0 -1
BITMAP
1B18
1998
19B0
3FFE
31B0
77FC
F7BC
37BC
373C
360C
37FC
360C
37FC
360C
ENDCHAR
STARTCHAR U_5065
ENCODING 20581
SWIDTH 1000 0
DWIDTH 15 0
BBX 15 14 0 -1
BITMAP
1800
1830
1FFC
363C
37FE
7C3C
FFFC
3330
33FE
3F30
3FFE
3630
3FB0
38FE
ENDCHAR
STARTCHAR U_5066
ENCODING 20582
SWIDTH 1000 0
DWIDTH 15 0
BBX 15 14 0 -1
BITMAP
1FFC
18CC
1BC0
33F8
37C0
767E
FC00
33F8
3318
33F8
3318
33F8
3318
3338
ENDCHAR
STARTCHAR U_5067
ENCODING 20583
SWIDTH 1000 0
DWIDTH 15 0
BBX 15 14 0 -1
BITMAP
18C0
18C0
1FFC
31E0
3330
76D8
FDFC
37F0
30E0
37F8
30D8
33F0
3060
37C0
ENDCHAR
STARTCHAR U_5068
ENCODING 20584
SWIDTH 1000 0
DWIDTH 15 0
BBX 15 14 0 -1
BITMAP
19B0
19BE
1FF8
37B0
37B0
77F6
FF1E
30C0
3FFE
30C0
31E0
33F0
36DE
3CCC
ENDCHAR
STARTCHAR U_5069
ENCODING 20585
SWIDTH 1000 0
DWIDTH 15 0
BBX 15 14 0 -1
BITMAP
1B00
1BF8
1E30
3C60
37FC
760C
F7FC
360C
37FC
360C
37FC
3198
330C
3E06
ENDCHAR
STARTCHAR U_506A
ENCODING 20586
SWIDTH 1000 0
DWIDTH 15 0
BBX 15 14 0 -1
BITMAP
1FFE
1800
1BFC
330C
330C
73FC
F000
37FE
3666
3666
37FE
3666
3666
37FE
ENDCHAR
STARTCHAR U_506B
ENCODING 20587
SWIDTH 1000 0
DWIDTH 15 0
BBX 15 14 0 -1
BITMAP
1B18
1B18
1E7E
3798
3D98
73FE
F30C
370C
3FFE
330C
336C
333C
330C
331C
ENDCHAR
STARTCHAR U_506C
ENCODING 20588
SWIDTH 1000 0
DWIDTH 15 0
BBX 15 14 0 -1
BITMAP
1980
1986
1BFE
36F6
3FB6
71E6
F776
31DE
300E
31E0
37BC
379E
3D9E
30F8
ENDCHAR
STARTCHAR U_506D
ENCODING 20589
SWIDTH 1000 0
DWIDTH 15 0
BBX 15 14 0 -1
BITMAP
180C
1FFE
18C0
30C0
3180
7FFE
FDB6
3DF6
3DB6
3DB6
3DF6
3DB6
3DB6
3FFE
ENDCHAR
STARTCHAR U_506E
ENCODING 20590
SWIDTH 1000 0
DWIDTH 15 0
BBX 15 14 0 -1
BITMAP
1818
1BFC
1B18
33F8
3000
7FFE
F318
33F8
3318
33F8
3318
3FFE
3018
3018
ENDCHAR
STARTCHAR U_506F
ENCODING 20591
SWIDTH 1000 0
DWIDTH 15 0
BBX 15 14 0 -1
BITMAP
1980
18C0
1FFE
3000
37F8
7618
F618
37F8
31E0
336E
3738
3F30
33D8
338E
ENDCHAR
STARTCHAR U_5070
ENCODING 20592
SWIDTH 1000 0
DWIDTH 15 0
BBX 15 14 0 -1
BITMAP
1B00
1B7C
1FFC
333C
3FFC
733C
FFEC
337C
30C0
3FFE
30E0
31B0
3318
3E0E
ENDCHAR
STARTCHAR U_5071
ENCODING 20593
SWIDTH 1000 0
DWIDTH 15 0
BBX 15 14 0 -1
BITMAP
180C
183E
1FF0
3630
37FE
7630
F7FE
3786
37FE
3786
37FE
3D86
3DFE
3986
ENDCHAR
STARTCHAR U_5072
ENCODING 20594
SWIDTH 1000 0
DWIDTH 15 0
BBX 15 14 0 -1
BITMAP
1800
1FFC
1E6C
366C
37FC
766C
F66C
37FC
360C
30C0
3F6C
3F7E
3B1E
31F8
ENDCHAR
STARTCHAR U_5073
ENCODING 20595
SWIDTH 1000 0
DWIDTH 15 0
BBX 15 14 0 -1
BITMAP
1860
1E66
1E66
3666
37FE
7000
FFFE
30C0
3FFE
3DB6
3DB6
3DB6
3DB6
3C0E
ENDCHAR
STARTCHAR U_5074
ENCODING 20596
SWIDTH 1000 0
DWIDTH 15 0
BBX 15 14 0 -1
BITMAP
1806
1FE6
1E7E
367E
37FE
767E
F67E
37FE
367E
367E
37FE
33C6
3666
3C3E
ENDCHAR
STARTCHAR U_5075
ENCODING 20597
SWIDTH 1000 0
DWIDTH 15 0
BBX 15 14 0 -1
BITMAP
18C0
18C0
18FC
30C0
37F8
7618
F7F8
3618
37F8
3618
37F8
3330
3618
3C0C
ENDCHAR
STARTCHAR U_5076
ENCODING 20598
SWIDTH 1000 0
DWIDTH 15 0
BBX 15 14 0 -1
BITMAP
1BFC
1B6C
1BFC
336C
33FC
736C
F060
37FE
3666
367E
367E
37FE
3606
361E
ENDCHAR
STARTCHAR U_5077
ENCODING 20599
SWIDTH 1000 0
DWIDTH 15 0
BBX 15 14 0 -1
BITMAP
1860
18F0
1998
330C
37FE
7C00
F7CC
36FC
37FC
36FC
37FC
36FC
36CC
37FC
ENDCHAR
STARTCHAR U_5078
ENCODING 20600
SWIDTH 1000 0
DWIDTH 15 0
BBX 15 14 0 -1
BITMAP
0CC0
0CC0
0DE0
1B30
1E18
3FFE
7000
F7FC
36FC
37F8
36F8
37FC
36FC
36FC
ENDCHAR
STARTCHAR U_5079
ENCODING 20601
SWIDTH 1000 0
DWIDTH 15 0
BBX 15 14 0 -1
BITMAP
1980
19F8
3318
3F98
7EF0
FC60
3DF8
3F0E
3FFC
3F6C
3FFC
3F6C
33FC
330C
ENDCHAR
STARTCHAR U_507A
ENCODING 20602
SWIDTH 1000 0
DWIDTH 15 0
BBX 15 14 0 -1
BITMAP
1B18
1B18
1BFC
367E
3FDE
7198
F3D8
3670
3C1E
37F8
3618
37F8
3618
37F8
ENDCHAR
STARTCHAR U_507B
ENCODING 20603
SWIDTH 1000 0
DWIDTH 15 0
BBX 15 14 0 -1
BITMAP
1860
1B6C
19F8
37FE
31F8
736C
F666
30C0
37FE
3198
3330
31F0
30D8
378E
ENDCHAR
STARTCHAR U_507C
ENCODING 20604
SWIDTH 1000 0
DWIDTH 15 0
BBX 15 14 0 -1
BITMAP
18C0
18F8
18C0
30C0
77F8
F018
3FFE
3018
37F8
30D8
36C0
36F8
3FC0
39FE
ENDCHAR
STARTCHAR U_507D
ENCODING 20605
SWIDTH 1000 0
DWIDTH 15 0
BBX 15 14 0 -1
BITMAP
1B60
19E0
19E0
37F8
30D8
7198
F3FC
330C
360C
37FE
3C06
3FF6
3FFE
301C
ENDCHAR
STARTCHAR U_507E
ENCODING 20606
SWIDTH 1000 0
DWIDTH 15 0
BBX 15 14 0 -1
BITMAP
1860
1FFE
1860
3198
37FE
7198
F3FC
330C
336C
336C
336C
336C
30F0
339E
ENDCHAR
STARTCHAR U_507F
ENCODING 20607
SWIDTH 1000 0
DWIDTH 15 0
BBX 15 14 0 -1
BITMAP
1800
1B6C
19F8
3360
33FE
7606
F1F8
3000
37FE
3060
30C0
3198
33FC
318C
ENDCHAR
STARTCHAR U_5080
ENCODING 20608
SWIDTH 1000 0
DWIDTH 15 0
BBX 15 14 0 -1
BITMAP
1860
18CC
1BFE
336C
33FC
736C
F36C
33FC
30EC
31F8
31FE
337E
3666
3C3E
ENDCHAR
STARTCHAR U_5081
ENCODING 20609
SWIDTH 1000 0
DWIDTH 15 0
BBX 15 14 0 -1
BITMAP
1860
19EC
1F7E
366C
37FC
766C
F7FC
366C
3060
37FC
3318
31B0
30E0
3FBE
ENDCHAR
STARTCHAR U_5082
ENCODING 20610
SWIDTH 1000 0
DWIDTH 15 0
BBX 15 14 0 -1
BITMAP
183E
1FE0
1E7C
3660
37FE
77E6
F7F8
37E6
37FE
3780
37F8
3DF8
3F7E
3EDE
ENDCHAR
STARTCHAR U_5083
ENCODING 20611
SWIDTH 1000 0
DWIDTH 15 0
BBX 15 14 0 -1
BITMAP
18C0
1FFC
18C0
33F8
30C0
7FFE
F198
33F0
30D8
37FC
306C
3378
37EC
3CC6
ENDCHAR
STARTCHAR U_5084
ENCODING 20612
SWIDTH 1000 0
DWIDTH 15 0
BBX 15 14 0 -1
BITMAP
18C0
18C0
1FFE
31E0
37BC
7318
FFFE
3618
37F8
3618
37F8
3618
37F8
3618
ENDCHAR
STARTCHAR U_5085
ENCODING 20613
SWIDTH 1000 0
DWIDTH 15 0
BBX 15 14 0 -1
BITMAP
1878
186C
1FFE
336C
336C
73FC
F36C
33FC
3378
3FFE
3318
3198
3198
3038
ENDCHAR
STARTCHAR U_5086
ENCODING 20614
SWIDTH 1000 0
DWIDTH 15 0
BBX 15 14 0 -1
BITMAP
180C
1FFE
1E60
37FC
378C
77FC
F78C
37FC
37BC
3630
3DBC
3DBC
3FF6
3E66
ENDCHAR
STARTCHAR U_5087
ENCODING 20615
SWIDTH 1000 0
DWIDTH 15 0
BBX 15 14 0 -1
BITMAP
19B0
19BC
1FFE
31B0
3000
7FFE
F318
33F8
3318
33F8
331E
3FF8
3018
3018
ENDCHAR
STARTCHAR U_5088
ENCODING 20616
SWIDTH 1000 0
DWIDTH 15 0
BBX 15 14 0 -1
BITMAP
180C
1FFE
18F0
37FE
36F6
76F6
F7FE
3060
3FFE
30E0
31F0
337C
366E
3060
ENDCHAR
STARTCHAR U_5089
ENCODING 20617
SWIDTH 1000 0
DWIDTH 15 0
BBX 15 14 0 -1
BITMAP
180C
1FFE
1E00
37FC
3600
77FE
F7BC
37F8
37CE
3618
37FE
3D98
3CD8
3878
ENDCHAR
STARTCHAR U_508A
ENCODING 20618
SWIDTH 1000 0
DWIDTH 15 0
BBX 15 14 0 -1
BITMAP
1818
1BFC
1B18
33F8
3000
77FC
F60C
37FC
360C
37FC
360C
37FC
3318
360C
ENDCHAR
STARTCHAR U_508B
ENCODING 20619
SWIDTH 1000 0
DWIDTH 15 0
BBX 15 14 0 -1
BITMAP
19B0
1FFE
19B0
37FC
31B0
7FFE
F0C0
37FC
36CC
37FC
36CC
3FFE
360C
363C
ENDCHAR
STARTCHAR U_508C
ENCODING 20620
SWIDTH 1000 0
DWIDTH 15 0
BBX 15 14 0 -1
BITMAP
180C
1FFE
1E60
37FC
3660
7660
F7FC
3660
37FE
3006
33F6
37FE
37E6
3C1C
ENDCHAR
STARTCHAR U_508D
ENCODING 20621
SWIDTH 1000 0
DWIDTH 15 0
BBX 15 14 0 -1
BITMAP
18C0
186C
1FFE
3198
36F6
77FE
FC6C
3FFE
3180
31FC
318C
330C
363C
3C18
ENDCHAR
STARTCHAR U_508E
ENCODING 20622
SWIDTH 1000 0
DWIDTH 15 0
BBX 15 14 0 -1
BITMAP
18C0
18CC
1FFE
3318
33F8
7318
F3F8
3318
33F8
3318
3FFE
31B0
3318
3E0E
ENDCHAR
STARTCHAR U_508F
ENCODING 20623
SWIDTH 1000 0
DWIDTH 15 0
BBX 15 14 0 -1
BITMAP
18C0
1860
1FFE
3660
37FC
766C
F7FE
366C
37FC
3660
37FC
3F0C
3F0C
3BFC
ENDCHAR
STARTCHAR U_5090
ENCODING 20624
SWIDTH 1000 0
DWIDTH 15 0
BBX 15 14 0 -1
BITMAP
18C0
1860
1FFE
3000
33F8
7318
F3F8
3000
3FFE
3C06
3DF6
3DB6
3DF6
3C0E
ENDCHAR
STARTCHAR U_5091
ENCODING 20625
SWIDTH 1000 0
DWIDTH 15 0
BBX 15 14 0 -1
BITMAP
1B18
1B18
1FFE
3DF8
3FF8
73FE
F618
3CD8
3FFE
33F0
36D8
3CCE
38C6
30C0
ENDCHAR
STARTCHAR U_5092
ENCODING 20626
SWIDTH 1000 0
DWIDTH 15 0
BBX 15 14 0 -1
BITMAP
183C
1FE0
198C
36D8
3330
77E0
F198
37F8
30CC
3FFE
30C0
31E0
3338
3E1E
ENDCHAR
STARTCHAR U_5093
ENCODING 20627
SWIDTH 1000 0
DWIDTH 15 0
BBX 15 14 0 -1
BITMAP
18C0
1860
1FFC
360C
360C
77FC
F600
37FC
36CC
37FC
37DC
3FFC
3CCC
39DC
ENDCHAR
STARTCHAR U_5094
ENCODING 20628
SWIDTH 1000 0
DWIDTH 15 0
BBX 15 14 0 -1
BITMAP
1B30
19EC
1FFE
31E0
3FFC
71EC
FFFE
31EC
3FFC
33F0
37F8
3DEE
39E6
31E0
ENDCHAR
STARTCHAR U_5095
ENCODING 20629
SWIDTH 1000 0
DWIDTH 15 0
BBX 15 14 0 -1
BITMAP
18C0
18C0
1FFE
36CC
3DE0
71FC
F360
3760
3FFC
3360
33FC
3360
33FE
3300
ENDCHAR
STARTCHAR U_5096
ENCODING 20630
SWIDTH 1000 0
DWIDTH 15 0
BBX 15 14 0 -1
BITMAP
1860
18F0
1998
336C
37FE
7F0C
F3FC
330C
33FC
3300
37FC
378C
3DFC
398C
ENDCHAR
STARTCHAR U_5097
ENCODING 20631
SWIDTH 1000 0
DWIDTH 15 0
BBX 15 14 0 -1
BITMAP
1980
18CC
1FFE
3180
3330
77E0
F318
3FFC
300C
37F8
36D8
37F8
36D8
37F8
ENDCHAR
STARTCHAR U_5098
ENCODING 20632
SWIDTH 1000 0
DWIDTH 15 0
BBX 15 14 0 -1
BITMAP
0180
03C0
0E60
39B8
EDBE
1FF8
33CC
0DB0
1FF8
33CC
0180
7FFE
0180
0180
ENDCHAR
STARTCHAR U_5099
ENCODING 20633
SWIDTH 1000 0
DWIDTH 15 0
BBX 15 14 0 -1
BITMAP
19B0
19B0
1FFE
31B0
3FFE
7180
F3FC
376C
3FFC
336C
33FC
336C
336C
337C
ENDCHAR
STARTCHAR U_509A
ENCODING 20634
SWIDTH 1000 0
DWIDTH 15 0
BBX 15 14 0 -1
BITMAP
1E30
1B30
1B30
3FFE
37EC
76FC
FDBC
37BC
333C
3318
3798
36D8
3C3C
30E6
ENDCHAR
STARTCHAR U_509B
ENCODING 20635
SWIDTH 1000 0
DWIDTH 15 0
BBX 15 14 0 -1
BITMAP
18C0
186C
1FFE
3C0C
3F30
76DC
FDEC
3330
3618
3FFE
3318
3318
33F8
3318
ENDCHAR
STARTCHAR U_509C
ENCODING 20636
SWIDTH 1000 0
DWIDTH 15 0
BBX 15 14 0 -1
BITMAP
187C
1FE0
1F98
33D8
30F0
7300
F3FC
36C0
3FFE
30C0
36CC
36CC
37FC
360C
ENDCHAR
STARTCHAR U_509D
ENCODING 20637
SWIDTH 1000 0
DWIDTH 15 0
BBX 15 14 0 -1
BITMAP
180C
1BFE
1B0C
33FC
330C
73FC
F000
3FFE
36F6
33DE
31CE
37FE
3CE6
33DE
ENDCHAR
STARTCHAR U_509E
ENCODING 20638
SWIDTH 1000 0
DWIDTH 15 0
BBX 15 14 0 -1
BITMAP
1E38
1BB0
19E0
37FC
30C0
77FC
F0C0
3FFE
3180
3318
33FC
3660
3C6C
37FE
ENDCHAR
STARTCHAR U_509F
ENCODING 20639
SWIDTH 1000 0
DWIDTH 15 0
BBX 15 14 0 -1
BITMAP
19E0
19E0
1B30
36D8
3DBE
73F0
F000
3FFC
318C
3FFC
339C
37BC
3DEC
339C
ENDCHAR
STARTCHAR U_50A0
ENCODING 20640
SWIDTH 1000 0
DWIDTH 15 0
BBX 15 14 0 -1
BITMAP
1E0C
1B0C
1B0C
3FCC
307E
77CC
F06C
3FFC
303C
37FC
36CC
36CC
37FC
36D8
ENDCHAR
STARTCHAR U_50A1
ENCODING 20641
SWIDTH 1000 0
DWIDTH 15 0
BBX 15 14 0 -1
BITMAP
1E30
1B18
1B18
3000
3FFE
7000
FDEC
3DEC
3DBC
37BC
333C
3398
3E18
31FE
ENDCHAR
STARTCHAR U_50A2
ENCODING 20642
SWIDTH 1000 0
DWIDTH 15 0
BBX 15 14 0 -1
BITMAP
18C0
1860
1BFE
360C
33F8
70C0
F1CE
3778
31F8
377C
30FC
37B6
30F6
3060
ENDCHAR
STARTCHAR U_50A3
ENCODING 20643
SWIDTH 1000 0
DWIDTH 15 0
BBX 15 14 0 -1
BITMAP
18C0
1FFC
18C0
37F8
3180
7FFE
F3F0
36D8
3CFE
3BE6
31F0
33DC
3ECC
31C0
ENDCHAR
STARTCHAR U_50A4
ENCODING 20644
SWIDTH 1000 0
DWIDTH 15 0
BBX 15 14 0 -1
BITMAP
1B30
1B3C
1FB6
3330
3FFE
7330
FFFC
363C
3F3C
3FD8
331E
3FDE
333E
3366
ENDCHAR
STARTCHAR U_50A5
ENCODING 20645
SWIDTH 1000 0
DWIDTH 15 0
BBX 15 14 0 -1
BITMAP
1860
1B6C
19F8
37FE
3C0C
73F8
F318
3318
33F8
31E0
31E0
31E6
3366
3E3E
ENDCHAR
STARTCHAR U_50A6
ENCODING 20646
SWIDTH 1000 0
DWIDTH 15 0
BBX 15 14 0 -1
BITMAP
1BF8
1B18
1BF8
3378
3FFE
7C06
F3F8
3318
33F8
3318
33F8
3318
3378
3330
ENDCHAR
STARTCHAR U_50A7
ENCODING 20647
SWIDTH 1000 0
DWIDTH 15 0
BBX 15 14 0 -1
BITMAP
18C0
1860
1FFE
363C
3FEC
7300
F3FC
3330
3330
333C
3FFE
31B0
331C
3E0C
ENDCHAR
STARTCHAR U_50A8
ENCODING 20648
SWIDTH 1000 0
DWIDTH 15 0
BBX 15 14 0 -1
BITMAP
1800
1C60
1E7E
37FC
3078
77FE
FE60
36FC
37CC
37CC
37FC
37CC
3EFC
30CC
ENDCHAR
STARTCHAR U_50A9
ENCODING 20649
SWIDTH 1000 0
DWIDTH 15 0
BBX 15 14 0 -1
BITMAP
1878
186C
1FCC
33FE
33D8
7FD8
FFFE
36D8
36D8
36FE
3FD8
3BD8
30FE
30C0
ENDCHAR
STARTCHAR U_50AA
ENCODING 20650
SWIDTH 1000 0
DWIDTH 15 0
BBX 15 14 0 -1
BITMAP
18C0
1998
1FFC
3318
36F6
7FFE
F0C0
31E0
3738
3CEE
33B8
30EC
3038
37E0
ENDCHAR
STARTCHAR U_50AB
ENCODING 20651
SWIDTH 1000 0
DWIDTH 15 0
BBX 15 14 0 -1
BITMAP
180C
1FFE
1E6C
37FC
366C
77FC
F198
37F0
30CC
3FFE
3060
3378
366C
3CE6
ENDCHAR
STARTCHAR U_50AC
ENCODING 20652
SWIDTH 1000 0
DWIDTH 15 0
BBX 15 14 0 -1
BITMAP
1860
1E66
1E66
37FE
31E0
7330
F3FE
3330
37FE
3F30
33FE
3330
33FE
3300
ENDCHAR
STARTCHAR U_50AD
ENCODING 20653
SWIDTH 1000 0
DWIDTH 15 0
BBX 15 14 0 -1
BITMAP
18C0
1860
1FFE
3C6C
3FFE
7C6C
FDFC
3C60
3FFC
3F6C
3FFC
3F6C
3FFC
3B6C
ENDCHAR
STARTCHAR U_50AE
ENCODING 20654
SWIDTH 1000 0
DWIDTH 15 0
BBX 15 14 0 -1
BITMAP
19B0
19B0
1FFE
31B0
3FFE
7DB6
FFFE
3DB6
3FFE
3318
33F8
3318
33F8
3318
ENDCHAR
STARTCHAR U_50AF
ENCODING 20655
SWIDTH 1000 0
DWIDTH 15 0
BBX 15 14 0 -1
BITMAP
1860
18CC
1BFE
336C
33FC
73FC
F33C
337C
33FC
3060
37BC
378E
3D9E
30F8
ENDCHAR
STARTCHAR U_50B0
ENCODING 20656
SWIDTH 1000 0
DWIDTH 15 0
BBX 15 14 0 -1
BITMAP
1860
1E66
1E66
37FE
3000
77FE
F6F6
37FE
36F6
36F6
37FE
36F6
36F6
3DFE
ENDCHAR
STARTCHAR U_50B1
ENCODING 20657
SWIDTH 1000 0
DWIDTH 15 0
BBX 15 14 0 -1
BITMAP
1BD8
1BD8
1ED8
3CFC
31B6
7366
F630
3EF0
3EF0
36FE
36F0
36F0
37F0
373E
ENDCHAR
STARTCHAR U_50B2
ENCODING 20658
SWIDTH 1000 0
DWIDTH 15 0
BBX 15 14 0 -1
BITMAP
1B00
1B30
1FF0
3330
3FFE
737C
FFFC
363C
37FC
36FC
36D8
36D8
3CFC
33E6
ENDCHAR
STARTCHAR U_50B3
ENCODING 20659
SWIDTH 1000 0
DWIDTH 15 0
BBX 15 14 0 -1
BITMAP
18C0
1FFC
18C0
37F8
76D8
F7F8
36D8
37F8
30D8
3FFC
3030
3FFE
31B0
3070
ENDCHAR
STARTCHAR U_50B4
ENCODING 20660
SWIDTH 1000 0
DWIDTH 15 0
BBX 15 14 0 -1
BITMAP
180C
1FFE
1E00
36FC
36CC
76FC
F600
37FE
37FE
37FE
37FE
37FE
3600
37FE
ENDCHAR
STARTCHAR U_50B5
ENCODING 20661
SWIDTH 1000 0
DWIDTH 15 0
BBX 15 14 0 -1
BITMAP
1860
1FFE
1860
33FC
3060
7FFE
F30C
33FC
330C
33FC
330C
33FC
30F0
379E
ENDCHAR
STARTCHAR U_50B6
ENCODING 20662
SWIDTH 1000 0
DWIDTH 15 0
BBX 15 14 0 -1
BITMAP
1830
183C
1836
3FFE
3DB0
7DF0
FDBC
3FFC
3DBC
3DFC
3FF8
3FFE
3DBE
3BE6
ENDCHAR
STARTCHAR U_50B7
ENCODING 20663
SWIDTH 1000 0
DWIDTH 15 0
BBX 15 14 0 -1
BITMAP
198C
19FE
1B00
37FC
3D8C
71FC
F18C
3FFE
3180
33FE
36DE
31B6
3366
30DC
ENDCHAR
STARTCHAR U_50B8
ENCODING 20664
SWIDTH 1000 0
DWIDTH 15 0
BBX 15 14 0 -1
BITMAP
18C0
18CC
1FFE
30C0
3FFC
76D8
FFFC
3FFC
36D8
3FFC
31E0
3330
3618
3C0E
ENDCHAR
STARTCHAR U_50B9
ENCODING 20665
SWIDTH 1000 0
DWIDTH 15 0
BBX 15 14 0 -1
BITMAP
1980
18C0
1FFC
31B0
3FFE
7000
F7F8
3618
37F8
3618
37F8
3330
3336
3E3E
ENDCHAR
STARTCHAR U_50BA
ENCODING 20666
SWIDTH 1000 0
DWIDTH 15 0
BBX 15 14 0 -1
BITMAP
1B30
1BFE
1EF6
37FC
3D98
3798
73FC
F606
3FFC
3060
3378
366E
3DE6
30C0
ENDCHAR
STARTCHAR U_50BB
ENCODING 20667
SWIDTH 1000 0
DWIDTH 15 0
BBX 15 14 0 -1
BITMAP
1980
1FFC
1FBC
36EC
37BC
37FC
71B0
F31C
36CC
3DF8
33F0
3660
30F0
379E
ENDCHAR
STARTCHAR U_50BC
ENCODING 20668
SWIDTH 1000 0
DWIDTH 15 0
BBX 15 14 0 -1
BITMAP
1B30
1FFC
1B30
33F0
30C0
77F8
F6D8
37F8
30C0
37F8
30C0
3FFE
3330
3E1C
ENDCHAR
STARTCHAR U_50BD
ENCODING 20669
SWIDTH 1000 0
DWIDTH 15 0
BBX 15 14 0 -1
BITMAP
1980
18C0
1FFC
31B0
3FFE
3000
77F8
F618
37F8
3618
37F8
30C0
3FFE
30C0
ENDCHAR
STARTCHAR U_50BE
ENCODING 20670
SWIDTH 1000 0
DWIDTH 15 0
BBX 15 14 0 -1
BITMAP
180C
19FE
1E30
36FC
36CC
37CC
76FC
F6CC
36FC
37CC
37FC
3C00
30EE
3186
ENDCHAR
STARTCHAR U_50BF
ENCODING 20671
SWIDTH 1000 0
DWIDTH 15 0
BBX 15 14 0 -1
BITMAP
180C
1FFE
1860
337C
3360
3FFE
7300
F3F0
330C
37FE
33FC
37FC
3DEC
3038
ENDCHAR
STARTCHAR U_50C0
ENCODING 20672
SWIDTH 1000 0
DWIDTH 15 0
BBX 15 14 0 -1
BITMAP
1FBC
1FBC
1FFE
37BC
3DFE
7000
FFFE
3CC6
3CC6
37FC
36CC
36FC
36D8
30C0
ENDCHAR
STARTCHAR U_50C1
ENCODING 20673
SWIDTH 1000 0
DWIDTH 15 0
BBX 15 14 0 -1
BITMAP
181E
1FFC
1ED8
33F0
3FFE
33F0
73D8
F6CE
3C06
30C0
37EC
37FE
3D9E
30F8
ENDCHAR
STARTCHAR U_50C2
ENCODING 20674
SWIDTH 1000 0
DWIDTH 15 0
BBX 15 14 0 -1
BITMAP
18C0
1FF8
1ED8
3FFE
76D8
F7F8
36D8
37F8
3180
3FFE
3330
37E0
31E0
3738
ENDCHAR
STARTCHAR U_50C3
ENCODING 20675
SWIDTH 1000 0
DWIDTH 15 0
BBX 15 14 0 -1
BITMAP
19B0
1FFC
19B0
360C
77FE
FC0C
3FFC
37BC
37FC
37BC
37FC
37BC
3DFC
301C
ENDCHAR
STARTCHAR U_50C4
ENCODING 20676
SWIDTH 1000 0
DWIDTH 15 0
BBX 15 14 0 -1
BITMAP
1FF8
19E0
1FF8
37F8
77F8
F000
33F0
3000
3FFC
30C0
36D8
36D8
3FCC
3180
ENDCHAR
STARTCHAR U_50C5
ENCODING 20677
SWIDTH 1000 0
DWIDTH 15 0
BBX 15 14 0 -1
BITMAP
19B0
1FFE
19B0
31F0
70C0
F7FC
36CC
37FC
30C0
37F8
30C0
33F0
30C0
3FFE
ENDCHAR
STARTCHAR U_50C6
ENCODING 20678
SWIDTH 1000 0
DWIDTH 15 0
BBX 15 14 0 -1
BITMAP
1830
19FE
3C30
76FC
F0FC
3EFC
36FC
36FC
3630
3630
37FE
3630
3F00
39FE
ENDCHAR
STARTCHAR U_50C7
ENCODING 20679
SWIDTH 1000 0
DWIDTH 15 0
BBX 15 14 0 -1
BITMAP
1800
1FFE
1EF6
33DE
71CE
F7FE
3060
31F0
377C
3DC6
3030
31EC
3038
33E0
ENDCHAR
STARTCHAR U_50C8
ENCODING 20680
SWIDTH 1000 0
DWIDTH 15 0
BBX 15 14 0 -1
BITMAP
1FF8
1E18
1FF8
3618
37F8
7000
FFFC
3DEC
3FFC
3000
37F8
3330
31E0
3F3C
ENDCHAR
STARTCHAR U_50C9
ENCODING 20681
SWIDTH 1000 0
DWIDTH 15 0
BBX 15 14 0 -1
BITMAP
0180
03C0
0660
0C30
381C
EFFE
0000
3EF8
36D8
3EF8
1860
3C70
66D8
C38E
ENDCHAR
STARTCHAR U_50CA
ENCODING 20682
SWIDTH 1000 0
DWIDTH 15 0
BBX 15 14 0 -1
BITMAP
180C
1FFE
31B0
77FC
F7BC
37FC
30CC
3FFE
31B0
37FC
3F1E
33F8
330C
31FC
ENDCHAR
STARTCHAR U_50CB
ENCODING 20683
SWIDTH 1000 0
DWIDTH 15 0
BBX 15 14 0 -1
BITMAP
18C0
19F0
1FDE
3FFC
7060
F3F8
3318
33F8
3318
33F8
3318
33F8
31B0
371C
ENDCHAR
STARTCHAR U_50CC
ENCODING 20684
SWIDTH 1000 0
DWIDTH 15 0
BBX 15 14 0 -1
BITMAP
1B18
1FF8
333E
3FF6
7FF6
FFF6
3FFC
3FFC
3318
3318
3FFC
333C
3366
33C6
ENDCHAR
STARTCHAR U_50CD
ENCODING 20685
SWIDTH 1000 0
DWIDTH 15 0
BBX 15 14 0 -1
BITMAP
1B98
1F18
1B7E
3FDE
331E
7FDE
FFDE
3FDE
3FDE
3FDE
3336
3FF6
3336
3FEE
ENDCHAR
STARTCHAR U_50CE
ENCODING 20686
SWIDTH 1000 0
DWIDTH 15 0
BBX 15 14 0 -1
BITMAP
1800
1FBC
3FBC
77BC
76F6
F7FE
F1B0
33F8
31B0
31B0
3FFE
31B0
3318
3E0E
ENDCHAR
STARTCHAR U_50CF
ENCODING 20687
SWIDTH 1000 0
DWIDTH 15 0
BBX 15 14 0 -1
BITMAP
1980
19F8
19B0
33FC
3F6C
33FC
73CC
F1EC
37F8
31F0
37F8
31BC
3736
30E0
ENDCHAR
STARTCHAR U_50D0
ENCODING 20688
SWIDTH 1000 0
DWIDTH 15 0
BBX 15 14 0 -1
BITMAP
1998
18F0
1FFE
3060
33FC
7060
F7FE
336C
31F8
3FFE
3000
33FC
330C
33FC
ENDCHAR
STARTCHAR U_50D1
ENCODING 20689
SWIDTH 1000 0
DWIDTH 15 0
BBX 15 14 0 -1
BITMAP
1878
1FC0
18C0
3FFE
71B0
F3F8
3FBE
31F0
3000
3FFE
3C06
3DF6
3DB6
3DFE
ENDCHAR
STARTCHAR U_50D2
ENCODING 20690
SWIDTH 1000 0
DWIDTH 15 0
BBX 15 14 0 -1
BITMAP
3180
3FFE
7F36
761C
EFFE
E19C
7FFE
6198
6FF8
6700
6FFC
6F0C
7B0C
73FC
ENDCHAR
STARTCHAR U_50D3
ENCODING 20691
SWIDTH 1000 0
DWIDTH 15 0
BBX 15 14 0 -1
BITMAP
18C0
1BF8
33D8
33F8
7000
FFFE
3318
33F8
3318
33F8
3318
33F8
31B0
371C
ENDCHAR
STARTCHAR U_50D4
ENCODING 20692
SWIDTH 1000 0
DWIDTH 15 0
BBX 15 14 0 -1
BITMAP
1B18
19B0
3FFE
31B0
77FC
F7BC
373C
37FC
360C
37FC
3018
3FFE
30D8
3078
ENDCHAR
STARTCHAR U_50D5
ENCODING 20693
SWIDTH 1000 0
DWIDTH 15 0
BBX 15 14 0 -1
BITMAP
31E0
3DEC
37F8
7FFE
E330
61E0
6FFC
60C0
67F8
60C0
7FFE
61E0
6738
7C0E
ENDCHAR
STARTCHAR U_50D6
ENCODING 20694
SWIDTH 1000 0
DWIDTH 15 0
BBX 15 14 0 -1
BITMAP
1860
1FFE
1860
33FC
3000
37FC
760C
F7FC
31B0
3FFE
3000
37FC
360C
37FC
ENDCHAR
STARTCHAR U_50D7
ENCODING 20695
SWIDTH 1000 0
DWIDTH 15 0
BBX 15 14 0 -1
BITMAP
3318
3FFC
3318
67BC
6CEC
E000
7FFE
78C6
67F8
60D8
60D8
6198
6378
6630
ENDCHAR
STARTCHAR U_50D8
ENCODING 20696
SWIDTH 1000 0
DWIDTH 15 0
BBX 15 14 0 -1
BITMAP
1B30
1B38
1BF0
3FF0
37BE
3FEC
7CEC
FFFC
3FFC
3FD8
3FFC
3FF6
3CF6
3DE0
ENDCHAR
STARTCHAR U_50D9
ENCODING 20697
SWIDTH 1000 0
DWIDTH 15 0
BBX 15 14 0 -1
BITMAP
1998
1BFC
1998
3198
37FE
7060
F3FC
336C
33FC
336C
33FC
3198
330C
3606
ENDCHAR
STARTCHAR U_50DA
ENCODING 20698
SWIDTH 1000 0
DWIDTH 15 0
BBX 15 14 0 -1
BITMAP
18C0
18CC
1FFE
37BC
3318
37FC
7F1E
F3F8
3318
33F8
3060
3378
37EE
3CC6
ENDCHAR
STARTCHAR U_50DB
ENCODING 20699
SWIDTH 1000 0
DWIDTH 15 0
BBX 15 14 0 -1
BITMAP
1EF0
1EF0
1FFE
36F6
36FE
37D8
76D8
F7D8
36D8
3FF8
3018
37BC
3CEC
38C6
ENDCHAR
STARTCHAR U_50DC
ENCODING 20700
SWIDTH 1000 0
DWIDTH 15 0
BBX 15 14 0 -1
BITMAP
1FFC
18F8
1EF6
339C
330C
77FE
FC00
33F8
3318
33F8
3000
3318
31B0
3FFE
ENDCHAR
STARTCHAR U_50DD
ENCODING 20701
SWIDTH 1000 0
DWIDTH 15 0
BBX 15 14 0 -1
BITMAP
1FFE
1E06
1FFE
3606
37F8
3630
77FE
F630
37FC
36CC
3798
37FE
3D98
3BB8
ENDCHAR
STARTCHAR U_50DE
ENCODING 20702
SWIDTH 1000 0
DWIDTH 15 0
BBX 15 14 0 -1
BITMAP
1878
1FC0
1ED8
3370
77F8
F618
37FC
360C
37FE
3606
37FE
3DFE
3F06
381C
ENDCHAR
STARTCHAR U_50DF
ENCODING 20703
SWIDTH 1000 0
DWIDTH 15 0
BBX 15 14 0 -1
BITMAP
1B6C
1B6C
1FFE
336C
77FE
F7FE
3360
37FE
3360
336C
3378
37B0
3C7E
39CE
ENDCHAR
STARTCHAR U_50E0
ENCODING 20704
SWIDTH 1000 0
DWIDTH 15 0
BBX 15 14 0 -1
BITMAP
181C
1FF0
1ED8
33F0
3FFE
31F0
73D8
F6CC
3FFE
36CC
37FC
36CC
37FC
360C
ENDCHAR
STARTCHAR U_50E1
ENCODING 20705
SWIDTH 1000 0
DWIDTH 15 0
BBX 15 14 0 -1
BITMAP
18C0
1FFE
18C0
37F8
36D8
77F8
F6D8
37F8
30CC
3FFC
33C0
3F6C
3F1E
31F8
ENDCHAR
STARTCHAR U_50E2
ENCODING 20706
SWIDTH 1000 0
DWIDTH 15 0
BBX 15 14 0 -1
BITMAP
183C
1FE0
36CC
3378
3FFE
7C06
F618
37FC
3798
3DF8
37FE
3318
3618
3C18
ENDCHAR
STARTCHAR U_50E3
ENCODING 20707
SWIDTH 1000 0
DWIDTH 15 0
BBX 15 14 0 -1
BITMAP
1B30
1B30
1FFC
3330
3FFE
3330
77F8
FCCC
33F8
3318
33F8
3318
33F8
3318
ENDCHAR
STARTCHAR U_50E4
ENCODING 20708
SWIDTH 1000 0
DWIDTH 15 0
BBX 15 14 0 -1
BITMAP
1FFE
1EF6
1FFE
36F6
3000
37FE
7666
F7FE
3666
37FE
3060
37FE
3060
3060
ENDCHAR
STARTCHAR U_50E5
ENCODING 20709
SWIDTH 1000 0
DWIDTH 15 0
BBX 15 14 0 -1
BITMAP
1860
1BFC
1860
37FE
3318
3FFE
7318
FFFE
3000
3FFE
31B0
31B6
3336
3E1E
ENDCHAR
STARTCHAR U_50E6
ENCODING 20710
SWIDTH 1000 0
DWIDTH 15 0
BBX 15 14 0 -1
BITMAP
1E38
1B3C
1B3C
3FF0
307E
37B0
77B0
F7B0
3378
37F8
3FFE
3F7E
337E
37CE
ENDCHAR
STARTCHAR U_50E7
ENCODING 20711
SWIDTH 1000 0
DWIDTH 15 0
BBX 15 14 0 -1
BITMAP
1B0C
1998
18F0
37FE
376E
37FE
77FE
F606
33FC
330C
33FC
330C
33FC
330C
ENDCHAR
STARTCHAR U_50E8
ENCODING 20712
SWIDTH 1000 0
DWIDTH 15 0
BBX 15 14 0 -1
BITMAP
18C0
1FF8
1BF0
3FFC
3330
37F8
7618
F7F8
3618
37F8
3618
37F8
3330
3E1C
ENDCHAR
STARTCHAR U_50E9
ENCODING 20713
SWIDTH 1000 0
DWIDTH 15 0
BBX 15 14 0 -1
BITMAP
3FFE
3DE6
3FFE
3DE6
3FFE
3C06
7DF6
FDB6
3DF6
3DB6
3DF6
3DB6
3F36
3E7E
ENDCHAR
STARTCHAR U_50EA
ENCODING 20714
SWIDTH 1000 0
DWIDTH 15 0
BBX 15 14 0 -1
BITMAP
1FFC
1998
18F0
3FFE
30EC
33EC
7E60
F7FC
37BC
371C
37FC
37BC
37FC
361C
ENDCHAR
STARTCHAR U_50EB
ENCODING 20715
SWIDTH 1000 0
DWIDTH 15 0
BBX 15 14 0 -1
BITMAP
180C
1FFE
19B0
37BC
360C
77BC
F1B0
31B0
3FFE
30C0
3F6C
3F06
3B18
31F8
ENDCHAR
STARTCHAR U_50EC
ENCODING 20716
SWIDTH 1000 0
DWIDTH 15 0
BBX 15 14 0 -1
BITMAP
1BC0
1B60
1BFE
3360
3760
3FFC
7360
F3FC
3360
33FE
3300
37BC
36DE
3CDE
ENDCHAR
STARTCHAR U_50ED
ENCODING 20717
SWIDTH 1000 0
DWIDTH 15 0
BBX 15 14 0 -1
BITMAP
1FFE
1B18
1F78
3FFE
37BC
37FC
77EE
FC00
33FC
330C
33FC
330C
33FC
330C
ENDCHAR
STARTCHAR U_50EE
ENCODING 20718
SWIDTH 1000 0
DWIDTH 15 0
BBX 15 14 0 -1
BITMAP
18C0
1860
1FFE
31B0
37FE
336C
73FC
F36C
33FC
3060
33FC
3060
3060
37FE
ENDCHAR
STARTCHAR U_50EF
ENCODING 20719
SWIDTH 1000 0
DWIDTH 15 0
BBX 15 14 0 -1
BITMAP
1B6C
19F8
1FFE
30F0
31F8
736E
FE6C
330C
33FE
36FC
3FFC
31FE
330C
3E0C
ENDCHAR
STARTCHAR U_50F0
ENCODING 20720
SWIDTH 1000 0
DWIDTH 15 0
BBX 15 14 0 -1
BITMAP
1830
1830
7FFE
1830
7FFE
7BF6
7BF6
3DF8
7FFC
D9B6
03C0
0660
0C30
781E
ENDCHAR
STARTCHAR U_50F1
ENCODING 20721
SWIDTH 1000 0
DWIDTH 15 0
BBX 15 14 0 -1
BITMAP
18C0
186C
1FFE
360C
37FC
36F0
77FC
F7B0
37FC
37B0
37FC
3DB0
3DFE
3980
ENDCHAR
STARTCHAR U_50F2
ENCODING 20722
SWIDTH 1000 0
DWIDTH 15 0
BBX 15 14 0 -1
BITMAP
180C
1FFE
19B0
37FC
37BC
77FC
F000
3618
37FE
3DF8
3FF8
33FE
3618
3C18
ENDCHAR
STARTCHAR U_50F3
ENCODING 20723
SWIDTH 1000 0
DWIDTH 15 0
BBX 15 14 0 -1
BITMAP
180C
1FFE
19B0
37FC
37BC
37FC
766C
F378
31F0
3FFE
31F8
336C
3666
3060
ENDCHAR
STARTCHAR U_50F4
ENCODING 20724
SWIDTH 1000 0
DWIDTH 15 0
BBX 15 14 0 -1
BITMAP
180C
1FFE
1FEC
37FC
37EC
77FC
F60C
37FC
37BC
37FC
37BC
37FC
360C
361C
ENDCHAR
STARTCHAR U_50F5
ENCODING 20725
SWIDTH 1000 0
DWIDTH 15 0
BBX 15 14 0 -1
BITMAP
180C
1FFE
1800
37FC
36CC
37FC
76CC
FFFE
3000
37FC
36CC
37FC
36CC
3FFE
ENDCHAR
STARTCHAR U_50F6
ENCODING 20726
SWIDTH 1000 0
DWIDTH 15 0
BBX 15 14 0 -1
BITMAP
3000
3FFC
3DEC
3FFC
31E0
3FFC
7DEC
FDEC
3FFC
3DEC
3FFC
3DEC
31E6
30FE
ENDCHAR
STARTCHAR U_50F7
ENCODING 20727
SWIDTH 1000 0
DWIDTH 15 0
BBX 15 14 0 -1
BITMAP
1B30
1FFE
1B30
36D8
3FFE
76D8
F6F8
3600
37FC
3060
3FFE
3378
366C
3C66
ENDCHAR
STARTCHAR U_50F8
ENCODING 20728
SWIDTH 1000 0
DWIDTH 15 0
BBX 15 14 0 -1
BITMAP
1B18
1B18
1FFE
3398
37FC
3FFE
7318
F7FC
3000
3FFE
3060
336C
37E6
3CC6
ENDCHAR
STARTCHAR U_50F9
ENCODING 20729
SWIDTH 1000 0
DWIDTH 15 0
BBX 15 14 0 -1
BITMAP
3FFE
31B0
3FFE
3DB6
3FFE
3000
77FC
F60C
37FC
360C
37FC
360C
37FC
3E0E
ENDCHAR
STARTCHAR U_50FA
ENCODING 20730
SWIDTH 1000 0
DWIDTH 15 0
BBX 15 14 0 -1
BITMAP
1800
1BF8
1B18
33F8
7000
FFFE
3DE6
3FFE
30C0
3FFE
31E0
33F0
36D8
3CCE
ENDCHAR
STARTCHAR U_50FB
ENCODING 20731
SWIDTH 1000 0
DWIDTH 15 0
BBX 15 14 0 -1
BITMAP
1830
1F98
3DFE
3D80
3DE6
7FBC
FC7E
3C18
3FD8
3EFE
3ED8
36D8
37D8
36D8
ENDCHAR
STARTCHAR U_50FC
ENCODING 20732
SWIDTH 1000 0
DWIDTH 15 0
BBX 15 14 0 -1
BITMAP
19B0
1DB0
1FFC
37BC
37FC
77BC
F7FC
3000
3FFE
360C
37FC
3318
31B0
3FFE
ENDCHAR
STARTCHAR U_50FD
ENCODING 20733
SWIDTH 1000 0
DWIDTH 15 0
BBX 15 14 0 -1
BITMAP
19D8
1F18
1B18
3FFE
337C
7798
FFFC
3F66
33C0
306C
37B6
37B6
3D8C
30FC
ENDCHAR
STARTCHAR U_50FE
ENCODING 20734
SWIDTH 1000 0
DWIDTH 15 0
BBX 15 14 0 -1
BITMAP
183C
1FEC
1ECC
3378
3FFE
33CC
777E
FFFE
3180
31F8
3330
37B0
30E0
3FBE
ENDCHAR
STARTCHAR U_50FF
ENCODING 20735
SWIDTH 1000 0
DWIDTH 15 0
BBX 15 14 0 -1
BITMAP
18C0
1860
1FFE
3DBC
3FF8
31B0
77F8
F1B0
3FFE
36D8
3FFE
30C0
30CC
3FFE
ENDCHAR
STARTCHAR U_5100
ENCODING 20736
SWIDTH 1000 0
DWIDTH 15 0
BBX 15 14 0 -1
BITMAP
19B0
1FFC
30C0
3FFC
60C0
7FFE
E018
6FF8
636C
7FFE
63BC
7F38
637E
6ECE
ENDCHAR
STARTCHAR U_5101
ENCODING 20737
SWIDTH 1000 0
DWIDTH 15 0
BBX 15 14 0 -1
BITMAP
1B60
1FFC
1B60
37FC
3F60
73FC
F360
33FE
3300
37FE
36F6
36F6
361E
360C
ENDCHAR
STARTCHAR U_5102
ENCODING 20738
SWIDTH 1000 0
DWIDTH 15 0
BBX 15 14 0 -1
BITMAP
18F0
1BFC
1BFC
33FC
33FC
37FE
7600
F7FC
3600
37FE
37EC
37B8
3DF8
3FCE
ENDCHAR
STARTCHAR U_5103
ENCODING 20739
SWIDTH 1000 0
DWIDTH 15 0
BBX 15 14 0 -1
BITMAP
18C0
1FFE
1E0C
37FC
37BC
37FC
760C
F7FC
3318
33F8
3318
33F8
3318
3FFE
ENDCHAR
STARTCHAR U_5104
ENCODING 20740
SWIDTH 1000 0
DWIDTH 15 0
BBX 15 14 0 -1
BITMAP
1860
1FFC
1B18
31B0
3FFE
3318
73F8
F318
33F8
3318
30CC
37FE
379E
3CF8
ENDCHAR
STARTCHAR U_5105
ENCODING 20741
SWIDTH 1000 0
DWIDTH 15 0
BBX 15 14 0 -1
BITMAP
1ED8
1ED8
1BF0
37FE
3C0C
33F8
7318
F3F8
3000
37FC
366C
37FC
366C
37FC
ENDCHAR
STARTCHAR U_5106
ENCODING 20742
SWIDTH 1000 0
DWIDTH 15 0
BBX 15 14 0 -1
BITMAP
1FB0
1FB0
1FFC
37BE
37FC
37FC
7CFC
FFFC
3FFC
3FD8
3FD8
30D8
37BC
3366
ENDCHAR
STARTCHAR U_5107
ENCODING 20743
SWIDTH 1000 0
DWIDTH 15 0
BBX 15 14 0 -1
BITMAP
1800
1FFC
1FBC
37BC
3FFE
3000
77FC
F60C
37FC
31E6
336C
3F38
33D8
378E
ENDCHAR
STARTCHAR U_5108
ENCODING 20744
SWIDTH 1000 0
DWIDTH 15 0
BBX 15 14 0 -1
BITMAP
18E0
19B0
1B18
3FFE
3000
3FFC
7FFC
FDEC
3FFC
3618
37F8
3618
37F8
3618
ENDCHAR
STARTCHAR U_5109
ENCODING 20745
SWIDTH 1000 0
DWIDTH 15 0
BBX 15 14 0 -1
BITMAP
1860
18F0
1998
330C
37FE
3000
77FE
F6F6
37FE
36F6
3318
33BC
36E6
3CC6
ENDCHAR
STARTCHAR U_510A
ENCODING 20746
SWIDTH 1000 0
DWIDTH 15 0
BBX 15 14 0 -1
BITMAP
1B18
1B18
1FFE
3318
37FC
3F7E
7318
FFFE
336C
3360
337C
3360
37E0
3C7E
ENDCHAR
STARTCHAR U_510B
ENCODING 20747
SWIDTH 1000 0
DWIDTH 15 0
BBX 15 14 0 -1
BITMAP
1980
19F8
1B30
37FE
3EFC
37B6
77FE
F600
36FC
3600
37FC
378C
3DFC
398C
ENDCHAR
STARTCHAR U_510C
ENCODING 20748
SWIDTH 1000 0
DWIDTH 15 0
BBX 15 14 0 -1
BITMAP
1B30
1E30
1FF0
3CFE
3FFC
3CFC
7FFC
F33C
3FFC
363C
37D8
36D8
3FFC
39E6
ENDCHAR
STARTCHAR U_510D
ENCODING 20749
SWIDTH 1000 0
DWIDTH 15 0
BBX 15 14 0 -1
BITMAP
18C0
1FFC
1FFC
37FC
76FC
F7FC
3318
378C
3DFE
33B6
3EE0
31B0
3318
3E0E
ENDCHAR
STARTCHAR U_510E
ENCODING 20750
SWIDTH 1000 0
DWIDTH 15 0
BBX 15 14 0 -1
BITMAP
0030
1F38
1B3C
3FFE
7330
FFFC
3FFE
3FFC
3FF8
3FF0
3336
3FFE
33CE
3306
ENDCHAR
STARTCHAR U_510F
ENCODING 20751
SWIDTH 1000 0
DWIDTH 15 0
BBX 15 14 0 -1
BITMAP
1B00
1BFC
1B0C
37FC
76D8
FFBE
33E6
3ED8
33F0
3FFE
31F0
33D8
36CE
3CCC
ENDCHAR
STARTCHAR U_5110
ENCODING 20752
SWIDTH 1000 0
DWIDTH 15 0
BBX 15 14 0 -1
BITMAP
1860
1FFE
1E06
3FFC
31EC
3378
73FC
FF0C
33FC
330C
33FC
330C
33FC
370E
ENDCHAR
STARTCHAR U_5111
ENCODING 20753
SWIDTH 1000 0
DWIDTH 15 0
BBX 15 14 0 -1
BITMAP
1FFC
1E0C
1FFC
360C
37FC
3318
7318
F6F6
3FFC
36F6
3FFE
336C
3DB6
39B6
ENDCHAR
STARTCHAR U_5112
ENCODING 20754
SWIDTH 1000 0
DWIDTH 15 0
BBX 15 14 0 -1
BITMAP
1800
1FFE
18C0
3FFE
3FFC
3DEC
73F0
FFFE
30C0
37FE
37B6
37B6
37B6
360E
ENDCHAR
STARTCHAR U_5113
ENCODING 20755
SWIDTH 1000 0
DWIDTH 15 0
BBX 15 14 0 -1
BITMAP
18C0
1FFE
18C0
37FC
3318
3FFE
7C06
FFFE
3198
37F8
306C
37FC
3060
3FFE
ENDCHAR
STARTCHAR U_5114
ENCODING 20756
SWIDTH 1000 0
DWIDTH 15 0
BBX 15 14 0 -1
BITMAP
18C0
1FFC
18C0
37F8
3000
3FFE
70CC
FFFE
300C
3FFE
3DEC
3DBC
3F8C
3DBC
ENDCHAR
STARTCHAR U_5115
ENCODING 20757
SWIDTH 1000 0
DWIDTH 15 0
BBX 15 14 0 -1
BITMAP
18C0
186C
1FFE
31E6
3FFC
3FFC
7FFE
FFCC
33FC
330C
33FC
330C
360C
3C0C
ENDCHAR
STARTCHAR U_5116
ENCODING 20758
SWIDTH 1000 0
DWIDTH 15 0
BBX 15 14 0 -1
BITMAP
1FF0
1FB0
1FFE
36F0
77FC
F7B6
37E6
37C0
3000
37FC
37EC
37EC
37EC
3FFE
ENDCHAR
STARTCHAR U_5117
ENCODING 20759
SWIDTH 1000 0
DWIDTH 15 0
BBX 15 14 0 -1
BITMAP
1E7E
1F8C
1FF8
36D8
33FE
3C1E
7FD8
FF78
337E
3FF8
3378
37F8
3CF8
399E
ENDCHAR
STARTCHAR U_5118
ENCODING 20760
SWIDTH 1000 0
DWIDTH 15 0
BBX 15 14 0 -1
BITMAP
18C0
1FF8
18D8
3FFE
30D8
37F8
70C0
FFFE
37EC
3CF6
37FC
37EC
37EC
3FFE
ENDCHAR
STARTCHAR U_5119
ENCODING 20761
SWIDTH 1000 0
DWIDTH 15 0
BBX 15 14 0 -1
BITMAP
1860
19FC
19EC
3FFE
7600
F1FC
3F8C
37FC
3780
37FC
378C
37FC
3F00
39FE
ENDCHAR
STARTCHAR U_511A
ENCODING 20762
SWIDTH 1000 0
DWIDTH 15 0
BBX 15 14 0 -1
BITMAP
19B0
1FFE
19B0
37FC
37BC
37FC
7000
FFFE
3D86
3FFE
3730
3DE0
30C0
3F80
ENDCHAR
STARTCHAR U_511B
ENCODING 20763
SWIDTH 1000 0
DWIDTH 15 0
BBX 15 14 0 -1
BITMAP
1E00
1FFC
1FF8
3FFC
77F8
F7F8
3FFE
3618
3FFC
3DF8
3FFE
3318
3618
3C18
ENDCHAR
STARTCHAR U_511C
ENCODING 20764
SWIDTH 1000 0
DWIDTH 15 0
BBX 15 14 0 -1
BITMAP
18C0
1860
1FFE
3FC6
377C
3DFE
7000
F7F8
37F8
3FFE
3000
3FFE
3060
31E0
ENDCHAR
STARTCHAR U_511D
ENCODING 20765
SWIDTH 1000 0
DWIDTH 15 0
BBX 15 14 0 -1
BITMAP
1B30
1FFC
1FF8
3330
77F8
FC0C
3FFE
3CCC
30C0
37FC
33F0
36D8
3CCE
30C0
ENDCHAR
STARTCHAR U_511E
ENCODING 20766
SWIDTH 1000 0
DWIDTH 15 0
BBX 15 14 0 -1
BITMAP
180C
1FFE
1BF8
36CC
7FFE
FCCC
3FFC
3FFC
3FFC
3CCC
3FFC
3FFC
3FFC
3CDC
ENDCHAR
STARTCHAR U_511F
ENCODING 20767
SWIDTH 1000 0
DWIDTH 15 0
BBX 15 14 0 -1
BITMAP
1ED8
1BF0
1FFE
3C06
3FFE
3318
77FC
F60C
37FC
360C
37FC
360C
33B8
3E0E
ENDCHAR
STARTCHAR U_5120
ENCODING 20768
SWIDTH 1000 0
DWIDTH 15 0
BBX 15 14 0 -1
BITMAP
1B6C
1ED8
1ED8
336C
37FE
36F6
77FE
F000
37FC
36FC
37FC
36FC
37EC
3FF6
ENDCHAR
STARTCHAR U_5121
ENCODING 20769
SWIDTH 1000 0
DWIDTH 15 0
BBX 15 14 0 -1
BITMAP
37F8
36D8
36D8
67F8
66D8
67F8
E000
7FFE
7FFE
7FFE
7FFE
7FFE
7FFE
79E6
ENDCHAR
STARTCHAR U_5122
ENCODING 20770
SWIDTH 1000 0
DWIDTH 15 0
BBX 15 14 0 -1
BITMAP
18FC
18C0
1FFE
3CC6
3FF8
3CC6
7FFC
FF6C
3FFC
3F6C
3FFC
3DEC
3F9E
3EFE
ENDCHAR
STARTCHAR U_5123
ENCODING 20771
SWIDTH 1000 0
DWIDTH 15 0
BBX 15 14 0 -1
BITMAP
1860
1FFE
1ED8
37FC
76D8
F7FE
3660
37FC
37EC
37FC
37EC
3DFC
3CD8
3B8E
ENDCHAR
STARTCHAR U_5124
ENCODING 20772
SWIDTH 1000 0
DWIDTH 15 0
BBX 15 14 0 -1
BITMAP
1FFC
1E0C
1FFC
360C
37FC
31B0
77FC
F1B0
3FFE
31B0
3F7E
31F0
30F8
37EE
ENDCHAR
STARTCHAR U_5125
ENCODING 20773
SWIDTH 1000 0
DWIDTH 15 0
BBX 15 14 0 -1
BITMAP
18C0
1FFE
18C0
37FC
3000
37FC
77BC
F7FC
3318
33F8
3318
33F8
31B0
3F1E
ENDCHAR
STARTCHAR U_5126
ENCODING 20774
SWIDTH 1000 0
DWIDTH 15 0
BBX 15 14 0 -1
BITMAP
18C0
186C
1FFE
3DB0
3FFC
3DBC
7FFC
FF30
3FFC
3F36
3FFE
3FFC
3F7E
3E7E
ENDCHAR
STARTCHAR U_5127
ENCODING 20775
SWIDTH 1000 0
DWIDTH 15 0
BBX 15 14 0 -1
BITMAP
1998
1FFE
3198
37FE
7198
F3FC
3666
33FC
330C
33FC
330C
33FC
3198
370E
ENDCHAR
STARTCHAR U_5128
ENCODING 20776
SWIDTH 1000 0
DWIDTH 15 0
BBX 15 14 0 -1
BITMAP
1FFE
1E30
37FE
37BC
7DEC
F7FC
360C
37FC
360C
37FC
360C
37FC
3318
3E0E
ENDCHAR
STARTCHAR U_5129
ENCODING 20777
SWIDTH 1000 0
DWIDTH 15 0
BBX 15 14 0 -1
BITMAP
18FC
1FCC
3FFC
3FCC
6FFC
FF60
3FFE
3FFE
3F7E
3FDE
3FB6
3F66
39FC
3018
ENDCHAR
STARTCHAR U_512A
ENCODING 20778
SWIDTH 1000 0
DWIDTH 15 0
BBX 15 14 0 -1
BITMAP
1FFC
18C0
33F8
73D8
F378
3FFE
3F7E
37FC
3300
37F8
3D98
30F0
3198
370E
ENDCHAR
STARTCHAR U_512B
ENCODING 20779
SWIDTH 1000 0
DWIDTH 15 0
BBX 15 14 0 -1
BITMAP
18C0
1FFC
3000
73F0
F330
3FFE
3C06
33F8
30C0
33F8
36E0
31F0
3778
31DC
ENDCHAR
STARTCHAR U_512C
ENCODING 20780
SWIDTH 1000 0
DWIDTH 15 0
BBX 15 14 0 -1
BITMAP
1EFC
1FCC
36CC
7FFC
F6CC
3FFC
30CC
3FCC
3FFC
3F78
3F78
3FD8
3FDE
3F9E
ENDCHAR
STARTCHAR U_512D
ENCODING 20781
SWIDTH 1000 0
DWIDTH 15 0
BBX 15 14 0 -1
BITMAP
1E7E
1B66
3FFE
7DE6
F7FE
3FE6
337E
3FFC
333C
37BC
3FEC
336C
3F6C
36CE
ENDCHAR
STARTCHAR U_512E
ENCODING 20782
SWIDTH 1000 0
DWIDTH 15 0
BBX 15 14 0 -1
BITMAP
1FFE
1E00
3FFC
7D98
FFFE
3D98
3FFC
3F9E
3DF8
3C60
3DFC
3DE0
39E0
3FFE
ENDCHAR
STARTCHAR U_512F
ENCODING 20783
SWIDTH 1000 0
DWIDTH 15 0
BBX 15 14 0 -1
BITMAP
1B6C
19F8
37FC
3060
7FFE
F0F0
37FC
3F36
33FC
3330
33FE
3006
37F6
3FDE
ENDCHAR
STARTCHAR U_5130
ENCODING 20784
SWIDTH 1000 0
DWIDTH 15 0
BBX 15 14 0 -1
BITMAP
19B0
1FFE
31B0
37FC
73D8
F1F0
37F8
3618
37FC
360C
37FE
3606
37FE
3FFC
ENDCHAR
STARTCHAR U_5131
ENCODING 20785
SWIDTH 1000 0
DWIDTH 15 0
BBX 15 14 0 -1
BITMAP
1B60
1B7C
3FE0
37FC
730C
FFFC
3060
3FFC
3DE0
3FFC
3DE0
3FFC
3DE6
3FBE
ENDCHAR
STARTCHAR U_5132
ENCODING 20786
SWIDTH 1000 0
DWIDTH 15 0
BBX 15 14 0 -1
BITMAP
1E30
3336
3FFE
703C
FFFE
3018
3FB0
307C
3FEC
3DEC
3DFC
3DEC
3FEC
3DFC
ENDCHAR
STARTCHAR U_5133
ENCODING 20787
SWIDTH 1000 0
DWIDTH 15 0
BBX 15 14 0 -1
BITMAP
1BF8
1E30
3FF8
3618
77F8
F7EC
373C
33F8
3630
3FF8
36D8
37F8
31FE
3F3E
ENDCHAR
STARTCHAR U_5134
ENCODING 20788
SWIDTH 1000 0
DWIDTH 15 0
BBX 15 14 0 -1
BITMAP
18C0
1FFE
37F8
37F8
7330
FFFC
3330
3FFC
3330
3FFE
36D8
3E70
3F98
370E
ENDCHAR
STARTCHAR U_5135
ENCODING 20789
SWIDTH 1000 0
DWIDTH 15 0
BBX 15 14 0 -1
BITMAP
1980
19FC
33D8
3E70
7CD8
FFFE
3FFC
3FFC
3C60
3FFC
3C60
3FFE
376C
3DB6
ENDCHAR
STARTCHAR U_5136
ENCODING 20790
SWIDTH 1000 0
DWIDTH 15 0
BBX 15 14 0 -1
BITMAP
1E66
1E66
37FE
3360
77FE
FE60
3FFE
3660
3FFE
3D9E
3FFE
3F9E
3DFE
3C0E
ENDCHAR
STARTCHAR U_5137
ENCODING 20791
SWIDTH 1000 0
DWIDTH 15 0
BBX 15 14 0 -1
BITMAP
1FFE
1800
37FE
37FE
7060
F7FE
36F0
37FC
36FC
37FC
37B0
3DFC
3DB0
39FE
ENDCHAR
STARTCHAR U_5138
ENCODING 20792
SWIDTH 1000 0
DWIDTH 15 0
BBX 15 14 0 -1
BITMAP
1FFC
1FBC
1FBC
37FC
7378
F66C
3FFE
3FD8
36D8
3CFE
3FD8
30FE
3FD8
3FFE
ENDCHAR
STARTCHAR U_5139
ENCODING 20793
SWIDTH 1000 0
DWIDTH 15 0
BBX 15 14 0 -1
BITMAP
1F78
3FFC
3B18
7FFE
F7BC
3FFC
3B0C
33FC
330C
33FC
330C
33FC
3198
370E
ENDCHAR
STARTCHAR U_513A
ENCODING 20794
SWIDTH 1000 0
DWIDTH 15 0
BBX 15 14 0 -1
BITMAP
1FBC
1FBC
3FFC
37BE
77FC
F3FC
3FFC
3FFE
3FFC
333C
3FFE
37BC
3CFC
387E
ENDCHAR
STARTCHAR U_513B
ENCODING 20795
SWIDTH 1000 0
DWIDTH 15 0
BBX 15 14 0 -1
BITMAP
36D8
33F0
7FFE
7806
E3F0
6330
6FFC
6FFC
6DEC
6FFC
60C0
7FFE
6F78
7B6C
ENDCHAR
STARTCHAR U_513C
ENCODING 20796
SWIDTH 1000 0
DWIDTH 15 0
BBX 15 14 0 -1
BITMAP
37F8
37F8
7FFE
FF60
7B7E
7FEC
7FEC
7FBC
7FBC
7F98
7FB8
7FBC
79EC
71C6
ENDCHAR
STARTCHAR U_513D
ENCODING 20797
SWIDTH 1000 0
DWIDTH 15 0
BBX 15 14 0 -1
BITMAP
33F0
33F0
63F0
E3F0
7FFE
7FFE
7FFE
7FFE
7FFE
6318
67F0
6198
6FFC
66D8
ENDCHAR
STARTCHAR U_513E
ENCODING 20798
SWIDTH 1000 0
DWIDTH 15 0
BBX 15 14 0 -1
BITMAP
18C0
1FFE
30C0
77F8
F6D8
3FFE
3FFE
37F8
3330
3FFE
33CC
3778
3FF0
339E
ENDCHAR
STARTCHAR U_513F
ENCODING 20799
SWIDTH 1000 0
DWIDTH 15 0
BBX 15 14 0 -1
BITMAP
0CC0
0CC0
0CC0
0CC0
0CC0
0CC0
0CC0
0CC0
18C0
18CC
30CC
60CC
C07C
0000
ENDCHAR
STARTCHAR U_5140
ENCODING 20800
SWIDTH 1000 0
DWIDTH 15 0
BBX 15 14 0 -1
BITMAP
0018
FFFC
0CC0
0CC0
0CC0
0CC0
0CC0
0CC0
18C0
18CC
30CC
60CC
C07C
0000
ENDCHAR
STARTCHAR U_5141
ENCODING 20801
SWIDTH 1000 0
DWIDTH 15 0
BBX 15 14 0 -1
BITMAP
0600
0600
0C00
0C60
1830
7FF8
0D98
0D80
0D80
0D80
0D8C
198C
318C
E0FC
ENDCHAR
STARTCHAR U_5142
ENCODING 20802
SWIDTH 1000 0
DWIDTH 15 0
BBX 15 14 0 -1
BITMAP
0300
0300
3FFC
1B00
1B00
3300
7FFE
06C0
06C0
0CC0
0CC6
18C6
30C6
E07E
ENDCHAR
STARTCHAR U_5143
ENCODING 20803
SWIDTH 1000 0
DWIDTH 15 0
BBX 15 14 0 -1
BITMAP
0000
3FF0
0000
0000
0000
FFFC
0D80
0D80
0D80
1980
198C
318C
618C
C0FC
ENDCHAR
STARTCHAR U_5144
ENCODING 20804
SWIDTH 1000 0
DWIDTH 15 0
BBX 15 14 0 -1
BITMAP
0000
3FF0
3030
3030
3030
3030
3FF0
3DB0
0D80
0D80
0D8C
198C
318C
E0FC
ENDCHAR
STARTCHAR U_5145
ENCODING 20805
SWIDTH 1000 0
DWIDTH 15 0
BBX 15 14 0 -1
BITMAP
0600
0300
FFFC
0600
0CC0
1860
3FF0
0DB0
0D80
0D80
0D80
198C
318C
E0FC
ENDCHAR
STARTCHAR U_5146
ENCODING 20806
SWIDTH 1000 0
DWIDTH 15 0
BBX 15 14 0 -1
BITMAP
0D80
CD98
6DB0
3DE0
3DC0
0D80
1DE0
3DB0
ED98
1980
198C
318C
E0FC
0000
ENDCHAR
STARTCHAR U_5147
ENCODING 20807
SWIDTH 1000 0
DWIDTH 15 0
BBX 15 14 0 -1
BITMAP
0C60
666C
63CC
618C
63CC
7E7C
600C
7FFC
06C0
06C0
0EC6
0CC6
18C6
F0FE
ENDCHAR
STARTCHAR U_5148
ENCODING 20808
SWIDTH 1000 0
DWIDTH 15 0
BBX 15 14 0 -1
BITMAP
0300
3300
3300
3FF8
6300
C300
0300
FFFC
0D80
0D80
0D80
198C
318C
E0FC
ENDCHAR
STARTCHAR U_5149
ENCODING 20809
SWIDTH 1000 0
DWIDTH 15 0
BBX 15 14 0 -1
BITMAP
0300
6318
3330
1B60
1BC0
0300
FFFC
0D80
0D80
0D80
1980
198C
318C
E0FC
ENDCHAR
STARTCHAR U_514A
ENCODING 20810
SWIDTH 1000 0
DWIDTH 15 0
BBX 15 14 0 -1
BITMAP
06C0
0C60
1B30
331E
E60C
0C30
3FF8
1818
0CC0
0CC0
0CC0
18C6
30C6
E0FE
ENDCHAR
STARTCHAR U_514B
ENCODING 20811
SWIDTH 1000 0
DWIDTH 15 0
BBX 15 14 0 -1
BITMAP
0300
0300
FFFC
0300
0300
3FF0
3030
3030
3FF0
3DB0
0D80
0D8C
198C
70FC
ENDCHAR
STARTCHAR U_514C
ENCODING 20812
SWIDTH 1000 0
DWIDTH 15 0
BBX 15 14 0 -1
BITMAP
0780
0CC0
1860
3030
FFFE
1860
1860
1FE0
0780
0780
0D80
1986
3186
E0FE
ENDCHAR
STARTCHAR U_514D
ENCODING 20813
SWIDTH 1000 0
DWIDTH 15 0
BBX 15 14 0 -1
BITMAP
0C00
0D80
1FC0
3180
7FF0
F330
3330
3330
3FF0
37B0
0780
0D8C
198C
70FC
ENDCHAR
STARTCHAR U_514E
ENCODING 20814
SWIDTH 1000 0
DWIDTH 15 0
BBX 15 14 0 -1
BITMAP
0038
7FE0
0300
7FF8
6318
6318
6318
7FF8
0780
07B0
0D98
199E
3186
E0FE
ENDCHAR
STARTCHAR U_514F
ENCODING 20815
SWIDTH 1000 0
DWIDTH 15 0
BBX 15 14 0 -1
BITMAP
0000
3FFE
3180
3180
31F8
3180
3180
3FFE
33C0
33C0
63C0
66C6
6CC6
F87E
ENDCHAR
STARTCHAR U_5150
ENCODING 20816
SWIDTH 1000 0
DWIDTH 15 0
BBX 15 14 0 -1
BITMAP
3000
37F8
3618
3618
37F8
3618
3618
37F8
3000
0CC0
0CC0
18C6
30C6
E07E
ENDCHAR
STARTCHAR U_5151
ENCODING 20817
SWIDTH 1000 0
DWIDTH 15 0
BBX 15 14 0 -1
BITMAP
60C0
3180
1B00
7FC0
60C0
60C0
60C0
7FC0
7BC0
1B00
1B00
1B18
3318
E1F8
ENDCHAR
STARTCHAR U_5152
ENCODING 20818
SWIDTH 1000 0
DWIDTH 15 0
BBX 15 14 0 -1
BITMAP
0700
3CF8
3018
3018
3EF8
3018
3018
3FF8
06C0
06C0
0CC6
0CC6
38C6
E07E
ENDCHAR
STARTCHAR U_5153
ENCODING 20819
SWIDTH 1000 0
DWIDTH 15 0
BBX 15 14 0 -1
BITMAP
0000
FFFE
1830
D9B0
D9B0
D9B0
FFFE
3C30
3C70
3C70
3FF0
6EF6
6DB6
C71E
ENDCHAR
STARTCHAR U_5154
ENCODING 20820
SWIDTH 1000 0
DWIDTH 15 0
BBX 15 14 0 -1
BITMAP
0C00
0C00
1FC0
3180
7FF0
F330
3330
3FF0
37B0
07E0
07B0
0DBC
198C
70FC
ENDCHAR
STARTCHAR U_5155
ENCODING 20821
SWIDTH 1000 0
DWIDTH 15 0
BBX 15 14 0 -1
BITMAP
7CF8
6CD8
6CD8
6FD8
6018
6018
7FF8
6CD8
0CC0
0CC0
18CC
30CC
E07C
0000
ENDCHAR
STARTCHAR U_5156
ENCODING 20822
SWIDTH 1000 0
DWIDTH 15 0
BBX 15 14 0 -1
BITMAP
0600
0300
FFFC
18C0
3070
6618
CCC0
1860
3FF0
0DB0
0D80
0D8C
198C
70FC
ENDCHAR
STARTCHAR U_5157
ENCODING 20823
SWIDTH 1000 0
DWIDTH 15 0
BBX 15 14 0 -1
BITMAP
0600
0300
FFFE
0C60
1830
3018
7FFC
1830
1830
1FF0
06C0
06C6
1CC6
F07E
ENDCHAR
STARTCHAR U_5158
ENCODING 20824
SWIDTH 1000 0
DWIDTH 15 0
BBX 15 14 0 -1
BITMAP
0060
7E60
00C0
00D8
FF8C
3DFC
3C00
3DF8
3D98
3D98
3D98
6DFE
6C06
C7FE
ENDCHAR
STARTCHAR U_5159
ENCODING 20825
SWIDTH 1000 0
DWIDTH 15 0
BBX 15 14 0 -1
BITMAP
1830
1830
FFB0
1830
7F30
63FE
6330
6330
7F30
3630
3630
3636
6606
C3FE
ENDCHAR
STARTCHAR U_515A
ENCODING 20826
SWIDTH 1000 0
DWIDTH 15 0
BBX 15 14 0 -1
BITMAP
3330
1B60
1B60
7FFC
C00C
DFF8
1860
1860
1FE0
0D80
0D80
198C
318C
E0FC
ENDCHAR
STARTCHAR U_515B
ENCODING 20827
SWIDTH 1000 0
DWIDTH 15 0
BBX 15 14 0 -1
BITMAP
180C
1838
FFF0
1830
7F30
63FE
6330
7F30
3630
3630
3630
6636
6606
C3FE
ENDCHAR
STARTCHAR U_515C
ENCODING 20828
SWIDTH 1000 0
DWIDTH 15 0
BBX 15 14 0 -1
BITMAP
0300
3600
EFFC
CCCC
CFCC
CCCC
CCCC
FFFC
C00C
0D80
0D80
0D8C
198C
70FC
ENDCHAR
STARTCHAR U_515D
ENCODING 20829
SWIDTH 1000 0
DWIDTH 15 0
BBX 15 14 0 -1
BITMAP
1800
1878
FF78
1878
FFCC
C386
C3FC
FF6C
3C6C
3C6C
3CFC
3D9E
3C06
E7FE
ENDCHAR
STARTCHAR U_515E
ENCODING 20830
SWIDTH 1000 0
DWIDTH 15 0
BBX 15 14 0 -1
BITMAP
183C
19E0
FF60
187C
7FE0
6660
667C
7FE0
3C60
3C6C
3C6C
6C3E
6C06
C7FE
ENDCHAR
STARTCHAR U_515F
ENCODING 20831
SWIDTH 1000 0
DWIDTH 15 0
BBX 15 14 0 -1
BITMAP
1830
78F0
7EFC
78F0
D9B0
1B30
FFFE
3C78
3C78
3C78
3FDE
6EDE
6D9E
C30E
ENDCHAR
STARTCHAR U_5160
ENCODING 20832
SWIDTH 1000 0
DWIDTH 15 0
BBX 15 14 0 -1
BITMAP
31B0
3330
3FFE
FCF8
3FF0
3CF0
7CF6
FFDE
0000
0CC0
0CC0
18C6
30C6
E07E
ENDCHAR
STARTCHAR U_5161
ENCODING 20833
SWIDTH 1000 0
DWIDTH 15 0
BBX 15 14 0 -1
BITMAP
180C
19FE
FF30
1860
FFFC
C3CC
C3CC
FFFC
3CCC
3CCC
3CFC
3CCE
3C06
EFFE
ENDCHAR
STARTCHAR U_5162
ENCODING 20834
SWIDTH 1000 0
DWIDTH 15 0
BBX 15 14 0 -1
BITMAP
1830
1830
7FFE
1830
7FFC
678C
678C
7FFC
7DFC
3C78
3F78
3EDE
6D9E
C30E
ENDCHAR
STARTCHAR U_5163
ENCODING 20835
SWIDTH 1000 0
DWIDTH 15 0
BBX 15 14 0 -1
BITMAP
1800
19FE
FF80
19FE
FFFE
C7FE
C7FE
FFFE
3D98
3DFE
3D98
3F7E
3C06
EFFE
ENDCHAR
STARTCHAR U_5164
ENCODING 20836
SWIDTH 1000 0
DWIDTH 15 0
BBX 15 14 0 -1
BITMAP
1830
DBFE
7F78
7FFC
1B78
FFFE
3FFC
3FFC
3FFC
3FFC
3F78
6ECC
6D86
C7FE
ENDCHAR
STARTCHAR U_5165
ENCODING 20837
SWIDTH 1000 0
DWIDTH 15 0
BBX 15 14 0 -1
BITMAP
1C00
0600
0300
0300
0300
0780
0780
0CC0
0CC0
1860
1830
3018
600E
C00C
ENDCHAR
STARTCHAR U_5166
ENCODING 20838
SWIDTH 1000 0
DWIDTH 15 0
BBX 15 14 0 -1
BITMAP
0000
3600
3300
3180
3180
3180
33C0
33C0
3660
3630
3C1C
3818
3000
3FFC
ENDCHAR
STARTCHAR U_5167
ENCODING 20839
SWIDTH 1000 0
DWIDTH 15 0
BBX 15 14 0 -1
BITMAP
0300
0300
0300
7FF8
6318
6318
6318
6798
66F8
6C78
7818
6018
6078
6030
ENDCHAR
STARTCHAR U_5168
ENCODING 20840
SWIDTH 1000 0
DWIDTH 15 0
BBX 15 14 0 -1
BITMAP
0300
0300
0780
0CC0
1860
3030
FFFC
0300
0300
1FE0
0300
0300
0300
FFFC
ENDCHAR
STARTCHAR U_5169
ENCODING 20841
SWIDTH 1000 0
DWIDTH 15 0
BBX 15 14 0 -1
BITMAP
0000
FFFE
0300
0300
7FFC
630C
7BCC
6F6C
6F3C
7F7C
77DC
630C
630C
631C
ENDCHAR
STARTCHAR U_516A
ENCODING 20842
SWIDTH 1000 0
DWIDTH 15 0
BBX 15 14 0 -1
BITMAP
0300
0780
0CC0
3870
EFDE
0000
7E6C
666C
7ED8
67B0
7ED8
66D8
666C
6E6C
ENDCHAR
STARTCHAR U_516B
ENCODING 20843
SWIDTH 1000 0
DWIDTH 15 0
BBX 15 14 0 -1
BITMAP
00C0
00C0
0CC0
0CC0
0CC0
0C60
0C60
0C60
1830
1830
3018
3018
600C
C006
ENDCHAR
STARTCHAR U_516C
ENCODING 20844
SWIDTH 1000 0
DWIDTH 15 0
BBX 15 14 0 -1
BITMAP
0180
1980
18C0
18C0
3060
3630
6618
C60C
0C00
0D80
18C0
33E0
7E30
3030
ENDCHAR
STARTCHAR U_516D
ENCODING 20845
SWIDTH 1000 0
DWIDTH 15 0
BBX 15 14 0 -1
BITMAP
0600
0300
0300
0000
FFFC
0000
0000
0CC0
0C60
1830
3030
6018
C018
0000
ENDCHAR
STARTCHAR U_516E
ENCODING 20846
SWIDTH 1000 0
DWIDTH 15 0
BBX 15 14 0 -1
BITMAP
0CC0
0CC0
18C0
1860
3030
7FF8
C60C
0C00
1FE0
0060
0060
0060
03C0
0180
ENDCHAR
STARTCHAR U_516F
ENCODING 20847
SWIDTH 1000 0
DWIDTH 15 0
BBX 15 14 0 -1
BITMAP
3018
1818
0C30
0660
06C0
FFFC
030C
030C
030C
030C
030C
033C
0318
0300
ENDCHAR
STARTCHAR U_5170
ENCODING 20848
SWIDTH 1000 0
DWIDTH 15 0
BBX 15 14 0 -1
BITMAP
3060
1860
0CC0
0180
7FFC
0000
0000
0000
3FF0
0000
0000
0000
0000
FFFC
ENDCHAR
STARTCHAR U_5171
ENCODING 20849
SWIDTH 1000 0
DWIDTH 15 0
BBX 15 14 0 -1
BITMAP
0CC0
0CC0
0CC0
0CC0
7FF8
0CC0
0CC0
0CC0
FFFC
0000
0C60
1830
3018
6018
ENDCHAR
STARTCHAR U_5172
ENCODING 20850
SWIDTH 1000 0
DWIDTH 15 0
BBX 15 14 0 -1
BITMAP
0000
7FFC
0300
3FF8
0300
0300
7FFC
0000
0F00
0D80
18C0
1860
3030
E01C
ENDCHAR
STARTCHAR U_5173
ENCODING 20851
SWIDTH 1000 0
DWIDTH 15 0
BBX 15 14 0 -1
BITMAP
1860
0C60
0CC0
0000
7FF8
0300
0300
FFFC
0300
0780
0CC0
1860
3030
E01C
ENDCHAR
STARTCHAR U_5174
ENCODING 20852
SWIDTH 1000 0
DWIDTH 15 0
BBX 15 14 0 -1
BITMAP
0000
0C30
6630
3330
3360
1B60
18C0
FFFC
0000
0CC0
1860
1830
3018
6018
ENDCHAR
STARTCHAR U_5175
ENCODING 20853
SWIDTH 1000 0
DWIDTH 15 0
BBX 15 14 0 -1
BITMAP
0070
1FC0
1800
1800
1FF8
18C0
18C0
18C0
FFFC
0C00
0C60
1838
7018
0000
ENDCHAR
STARTCHAR U_5176
ENCODING 20854
SWIDTH 1000 0
DWIDTH 15 0
BBX 15 14 0 -1
BITMAP
1860
FFFC
1860
1860
1FE0
1860
1860
1FE0
1860
1860
FFFC
0CC0
1860
7038
ENDCHAR
STARTCHAR U_5177
ENCODING 20855
SWIDTH 1000 0
DWIDTH 15 0
BBX 15 14 0 -1
BITMAP
0000
1FE0
1860
1FE0
1860
1FE0
1860
1FE0
1860
1860
FFFC
0CC0
1860
7038
ENDCHAR
STARTCHAR U_5178
ENCODING 20856
SWIDTH 1000 0
DWIDTH 15 0
BBX 15 14 0 -1
BITMAP
0780
0780
0780
3FF0
37B0
37B0
3FF0
37B0
37B0
FFFC
0000
1860
3038
6018
ENDCHAR
STARTCHAR U_5179
ENCODING 20857
SWIDTH 1000 0
DWIDTH 15 0
BBX 15 14 0 -1
BITMAP
1860
0CC0
0CD8
FFFC
1860
30C0
36D8
6DB0
7DF0
1860
30C0
3CD8
7FFC
060C
ENDCHAR
STARTCHAR U_517A
ENCODING 20858
SWIDTH 1000 0
DWIDTH 15 0
BBX 15 14 0 -1
BITMAP
0780
0CC0
3870
E01E
3FF0
0630
0C30
38F0
E060
7EDC
66F0
66C6
7EC6
667E
ENDCHAR
STARTCHAR U_517B
ENCODING 20859
SWIDTH 1000 0
DWIDTH 15 0
BBX 15 14 0 -1
BITMAP
1860
0CC0
7FF8
0300
7FF0
0600
FFFC
1860
3CF0
6CDC
0CC0
0CC0
18C0
70C0
ENDCHAR
STARTCHAR U_517C
ENCODING 20860
SWIDTH 1000 0
DWIDTH 15 0
BBX 15 14 0 -1
BITMAP
1860
0CC0
FFFC
0D80
7FF0
0DB0
FFFC
0DB0
7FF0
1DC0
3DE0
6DB0
CD9C
0D80
ENDCHAR
STARTCHAR U_517D
ENCODING 20861
SWIDTH 1000 0
DWIDTH 15 0
BBX 15 14 0 -1
BITMAP
1860
0CC0
7FF8
6318
7FF8
6318
7FF8
6018
FFFC
0000
3FF0
3030
3FF0
3030
ENDCHAR
STARTCHAR U_517E
ENCODING 20862
SWIDTH 1000 0
DWIDTH 15 0
BBX 15 14 0 -1
BITMAP
1830
0C60
3FF8
3318
3FF8
3318
3FF8
0C60
7FFC
0C60
FFFE
0C60
1838
700E
ENDCHAR
STARTCHAR U_517F
ENCODING 20863
SWIDTH 1000 0
DWIDTH 15 0
BBX 15 14 0 -1
BITMAP
1860
0CC0
FFFE
18C0
7FF0
18F0
FFF0
19B6
3BDE
1FF0
0000
FFFE
0C30
3FF8
ENDCHAR
STARTCHAR U_5180
ENCODING 20864
SWIDTH 1000 0
DWIDTH 15 0
BBX 15 14 0 -1
BITMAP
0D80
FDFC
0D8C
FFFC
3330
3FF0
3330
3FF0
0CC0
7FF8
0CC0
FFFC
1860
F03C
ENDCHAR
STARTCHAR U_5181
ENCODING 20865
SWIDTH 1000 0
DWIDTH 15 0
BBX 15 14 0 -1
BITMAP
CFFE
6F06
7B06
1BFE
FF78
FFFE
FF78
FF78
FFFE
33D8
FFDE
33CC
36FC
3DC6
ENDCHAR
STARTCHAR U_5182
ENCODING 20866
SWIDTH 1000 0
DWIDTH 15 0
BBX 15 14 0 -1
BITMAP
7FF8
6018
6018
6018
6018
6018
6018
6018
6018
6018
6018
6018
6078
6030
ENDCHAR
STARTCHAR U_5183
ENCODING 20867
SWIDTH 1000 0
DWIDTH 15 0
BBX 15 14 0 -1
BITMAP
0000
7FF8
6018
6018
6018
7FF8
6018
6018
7FF8
6018
6018
6078
6030
0000
ENDCHAR
STARTCHAR U_5184
ENCODING 20868
SWIDTH 1000 0
DWIDTH 15 0
BBX 15 14 0 -1
BITMAP
0000
3FF0
3030
3030
7FFE
3030
3030
3030
FFFE
3030
3030
3030
30F0
3060
ENDCHAR
STARTCHAR U_5185
ENCODING 20869
SWIDTH 1000 0
DWIDTH 15 0
BBX 15 14 0 -1
BITMAP
0600
0600
0600
FFF0
C630
C630
C630
CF30
CDB0
D8F0
F0F0
C030
C0F0
C060
ENDCHAR
STARTCHAR U_5186
ENCODING 20870
SWIDTH 1000 0
DWIDTH 15 0
BBX 15 14 0 -1
BITMAP
0000
7FFC
630C
630C
630C
630C
630C
7FFC
600C
600C
600C
600C
603C
6018
ENDCHAR
STARTCHAR U_5187
ENCODING 20871
SWIDTH 1000 0
DWIDTH 15 0
BBX 15 14 0 -1
BITMAP
0300
0300
FFFE
0600
0C00
1FF8
3C18
EC18
0C18
0C18
0C18
0C18
0C78
0C30
ENDCHAR
STARTCHAR U_5188
ENCODING 20872
SWIDTH 1000 0
DWIDTH 15 0
BBX 15 14 0 -1
BITMAP
7FFC
600C
600C
606C
6C6C
66CC
638C
618C
63CC
666C
6C6C
780C
603C
6018
ENDCHAR
STARTCHAR U_5189
ENCODING 20873
SWIDTH 1000 0
DWIDTH 15 0
BBX 15 14 0 -1
BITMAP
0300
0300
0300
3FF0
3330
3330
3FF0
3330
3330
FFFC
3030
3030
31F0
3060
ENDCHAR
STARTCHAR U_518A
ENCODING 20874
SWIDTH 1000 0
DWIDTH 15 0
BBX 15 14 0 -1
BITMAP
0000
7FFC
66CC
66CC
66CC
66CC
FFFE
66CC
66CC
66CC
66CC
66CC
603C
6018
ENDCHAR
STARTCHAR U_518B
ENCODING 20875
SWIDTH 1000 0
DWIDTH 15 0
BBX 15 14 0 -1
BITMAP
0000
FFFC
C00C
C00C
C00C
DFEC
D86C
D86C
D86C
DFEC
C00C
C00C
C03C
C018
ENDCHAR
STARTCHAR U_518C
ENCODING 20876
SWIDTH 1000 0
DWIDTH 15 0
BBX 15 14 0 -1
BITMAP
3EF8
36D8
36D8
36D8
36D8
FFFE
36D8
36D8
36D8
36D8
36D8
6798
7FF8
CF30
ENDCHAR
STARTCHAR U_518D
ENCODING 20877
SWIDTH 1000 0
DWIDTH 15 0
BBX 15 14 0 -1
BITMAP
FFFC
0300
0300
3FF0
3330
3330
3FF0
3330
3330
FFFC
3030
3030
30F0
3060
ENDCHAR
STARTCHAR U_518E
ENCODING 20878
SWIDTH 1000 0
DWIDTH 15 0
BBX 15 14 0 -1
BITMAP
1FF0
1830
1830
1FB0
19B0
19B0
19B0
7FFC
600C
600C
600C
600C
603C
6018
ENDCHAR
STARTCHAR U_518F
ENCODING 20879
SWIDTH 1000 0
DWIDTH 15 0
BBX 15 14 0 -1
BITMAP
FFFC
C00C
C00C
CCCC
CC6C
D83C
FFFC
CCCC
CCCC
CCCC
CFCC
CCCC
C03C
C018
ENDCHAR
STARTCHAR U_5190
ENCODING 20880
SWIDTH 1000 0
DWIDTH 15 0
BBX 15 14 0 -1
BITMAP
3FFC
300C
3FFC
300C
3FFC
300C
1FF8
1818
1FF8
1818
1FF8
1818
1878
1830
ENDCHAR
STARTCHAR U_5191
ENCODING 20881
SWIDTH 1000 0
DWIDTH 15 0
BBX 15 14 0 -1
BITMAP
0300
3FF8
3318
3FF8
3318
3FF8
0000
1FF0
1830
1FF0
1830
1FF0
1830
1870
ENDCHAR
STARTCHAR U_5192
ENCODING 20882
SWIDTH 1000 0
DWIDTH 15 0
BBX 15 14 0 -1
BITMAP
FFF0
C030
FFF0
C030
FFF0
C030
7FE0
6060
7FE0
6060
7FE0
6060
7FE0
6060
ENDCHAR
STARTCHAR U_5193
ENCODING 20883
SWIDTH 1000 0
DWIDTH 15 0
BBX 15 14 0 -1
BITMAP
0C60
7FFC
0C60
3FF8
0C60
FFFE
0300
1FF0
1B30
1FF0
1B30
FFFE
1830
1830
ENDCHAR
STARTCHAR U_5194
ENCODING 20884
SWIDTH 1000 0
DWIDTH 15 0
BBX 15 14 0 -1
BITMAP
0000
3FF8
3018
3FF8
3018
3FF8
0000
7EFC
6630
67FE
6630
7E30
6630
0070
ENDCHAR
STARTCHAR U_5195
ENCODING 20885
SWIDTH 1000 0
DWIDTH 15 0
BBX 15 14 0 -1
BITMAP
3FF0
3030
3FF0
3030
3FF0
3030
0FC0
1980
3FF0
F330
3FF0
37BC
0D8C
78FC
ENDCHAR
STARTCHAR U_5196
ENCODING 20886
SWIDTH 1000 0
DWIDTH 15 0
BBX 15 14 0 -1
BITMAP
0000
7FFC
6018
C030
0000
0000
0000
0000
0000
0000
0000
0000
0000
0000
ENDCHAR
STARTCHAR U_5197
ENCODING 20887
SWIDTH 1000 0
DWIDTH 15 0
BBX 15 14 0 -1
BITMAP
7FFC
6018
C030
1FC0
18C0
18C0
18C0
18C0
18C0
18C0
30CC
30CC
E07C
0000
ENDCHAR
STARTCHAR U_5198
ENCODING 20888
SWIDTH 1000 0
DWIDTH 15 0
BBX 15 14 0 -1
BITMAP
0300
0300
0300
7FFE
6306
C30C
03C0
03C0
06C0
06C0
0CC6
18C6
30C6
E07E
ENDCHAR
STARTCHAR U_5199
ENCODING 20889
SWIDTH 1000 0
DWIDTH 15 0
BBX 15 14 0 -1
BITMAP
0000
7FFE
600C
C600
07F0
0600
0C00
0FF8
0018
0018
7F98
0018
00F0
0060
ENDCHAR
STARTCHAR U_519A
ENCODING 20890
SWIDTH 1000 0
DWIDTH 15 0
BBX 15 14 0 -1
BITMAP
0000
7FFE
6006
C00C
0300
0300
0300
630C
630C
630C
630C
630C
7FFC
600C
ENDCHAR
STARTCHAR U_519B
ENCODING 20891
SWIDTH 1000 0
DWIDTH 15 0
BBX 15 14 0 -1
BITMAP
0000
7FFC
6C18
CC00
7FF0
1B00
1B00
3FF0
0300
0300
FFFC
0300
0300
0300
ENDCHAR
STARTCHAR U_519C
ENCODING 20892
SWIDTH 1000 0
DWIDTH 15 0
BBX 15 14 0 -1
BITMAP
0300
0300
0300
7FFC
6318
C600
0F00
1B30
39E0
78C0
D8C0
1860
1E30
1C1C
ENDCHAR
STARTCHAR U_519D
ENCODING 20893
SWIDTH 1000 0
DWIDTH 15 0
BBX 15 14 0 -1
BITMAP
0000
3FFC
300C
6018
0FE0
0C60
0C60
0FE0
0C60
0C60
0FE0
0C60
0C6C
FFFE
ENDCHAR
STARTCHAR U_519E
ENCODING 20894
SWIDTH 1000 0
DWIDTH 15 0
BBX 15 14 0 -1
BITMAP
0000
7FFC
C00C
0300
1B30
0F60
0FC0
7FFC
07C0
0F60
1B30
3318
E30E
0300
ENDCHAR
STARTCHAR U_519F
ENCODING 20895
SWIDTH 1000 0
DWIDTH 15 0
BBX 15 14 0 -1
BITMAP
0000
7FFC
630C
C618
1FF0
1830
1FF0
1830
1FF0
0000
3FF0
300C
300C
1FFC
ENDCHAR
STARTCHAR U_51A0
ENCODING 20896
SWIDTH 1000 0
DWIDTH 15 0
BBX 15 14 0 -1
BITMAP
7FFC
600C
C018
7E30
0030
01FC
FF30
3DB0
3CF0
3CF0
3C30
6CFC
6C0C
C7FC
ENDCHAR
STARTCHAR U_51A1
ENCODING 20897
SWIDTH 1000 0
DWIDTH 15 0
BBX 15 14 0 -1
BITMAP
0000
7FFC
600C
DFF8
0000
7FFC
0600
1F38
73E0
0FE0
79F0
07D8
FCCE
0180
ENDCHAR
STARTCHAR U_51A2
ENCODING 20898
SWIDTH 1000 0
DWIDTH 15 0
BBX 15 14 0 -1
BITMAP
0000
7FFC
C018
3FE0
0600
0E30
3B60
E7C0
1DC0
F3E0
0FB0
199C
FD80
0700
ENDCHAR
STARTCHAR U_51A3
ENCODING 20899
SWIDTH 1000 0
DWIDTH 15 0
BBX 15 14 0 -1
BITMAP
7FFC
600C
C018
7FF0
3300
33FC
3F6C
336C
3F78
3330
3FF8
F378
03CC
0306
ENDCHAR
STARTCHAR U_51A4
ENCODING 20900
SWIDTH 1000 0
DWIDTH 15 0
BBX 15 14 0 -1
BITMAP
7FFC
600C
CC18
1FE0
3180
7FF0
F330
3330
3FF0
3780
07E0
0DBC
198C
70FC
ENDCHAR
STARTCHAR U_51A5
ENCODING 20901
SWIDTH 1000 0
DWIDTH 15 0
BBX 15 14 0 -1
BITMAP
0000
7FFC
6018
DFE0
1860
1FE0
1860
1FE0
0300
FFFC
0000
0C60
1830
7018
ENDCHAR
STARTCHAR U_51A6
ENCODING 20902
SWIDTH 1000 0
DWIDTH 15 0
BBX 15 14 0 -1
BITMAP
0000
7FFC
600C
C078
3F60
0078
FFE0
36FC
36D8
3670
3676
36DE
6606
C3FE
ENDCHAR
STARTCHAR U_51A7
ENCODING 20903
SWIDTH 1000 0
DWIDTH 15 0
BBX 15 14 0 -1
BITMAP
7FFE
6006
D83C
1830
1830
FFFE
1830
3C70
3F78
7BFC
78FC
D9B6
1B30
1830
ENDCHAR
STARTCHAR U_51A8
ENCODING 20904
SWIDTH 1000 0
DWIDTH 15 0
BBX 15 14 0 -1
BITMAP
7FFE
6006
DFFC
0000
0FF0
0C30
0FF0
0000
3FFC
318C
3FFC
318C
318C
3FFC
ENDCHAR
STARTCHAR U_51A9
ENCODING 20905
SWIDTH 1000 0
DWIDTH 15 0
BBX 15 14 0 -1
BITMAP
7FFE
6006
7FFE
1818
1FF8
1818
1FF8
1E18
0C00
1FFE
3066
FFB6
1BFE
33CC
ENDCHAR
STARTCHAR U_51AA
ENCODING 20906
SWIDTH 1000 0
DWIDTH 15 0
BBX 15 14 0 -1
BITMAP
7FFE
6666
7FFE
0660
0FF0
0C30
0FF0
0F30
7FFE
07E0
1FF8
7DBE
0DB0
0DF0
ENDCHAR
STARTCHAR U_51AB
ENCODING 20907
SWIDTH 1000 0
DWIDTH 15 0
BBX 15 14 0 -1
BITMAP
6000
3000
1800
1E00
0C00
0C00
1800
1800
3000
F000
3000
3000
3000
3000
ENDCHAR
STARTCHAR U_51AC
ENCODING 20908
SWIDTH 1000 0
DWIDTH 15 0
BBX 15 14 0 -1
BITMAP
0C00
0C00
0FF0
1860
3CC0
6780
0300
0780
1CE0
F33E
018C
0E00
0380
0180
ENDCHAR
STARTCHAR U_51AD
ENCODING 20909
SWIDTH 1000 0
DWIDTH 15 0
BBX 15 14 0 -1
BITMAP
0300
030C
FFFE
0780
0CC0
1860
3738
E18E
00E0
0E60
0300
0180
00C0
0060
ENDCHAR
STARTCHAR U_51AE
ENCODING 20910
SWIDTH 1000 0
DWIDTH 15 0
BBX 15 14 0 -1
BITMAP
0000
6000
37FC
30C0
30C0
00C0
0CC0
18C0
30C0
F0C0
30C0
30C0
30C0
3FFE
ENDCHAR
STARTCHAR U_51AF
ENCODING 20911
SWIDTH 1000 0
DWIDTH 15 0
BBX 15 14 0 -1
BITMAP
0000
67F0
3030
0330
1B60
1E60
1FFC
300C
F00C
3FEC
300C
300C
307C
0018
ENDCHAR
STARTCHAR U_51B0
ENCODING 20912
SWIDTH 1000 0
DWIDTH 15 0
BBX 15 14 0 -1
BITMAP
00C0
60C0
30C0
00CC
0FD8
1BF0
1BE0
33F0
F6D8
36CC
36C6
3CC0
33C0
0180
ENDCHAR
STARTCHAR U_51B1
ENCODING 20913
SWIDTH 1000 0
DWIDTH 15 0
BBX 15 14 0 -1
BITMAP
0000
6FFE
3180
0180
1980
19F8
1B18
3318
F318
37F0
3030
3030
3030
3FFE
ENDCHAR
STARTCHAR U_51B2
ENCODING 20914
SWIDTH 1000 0
DWIDTH 15 0
BBX 15 14 0 -1
BITMAP
0060
6060
3060
07FE
1E66
1E66
1E66
3666
F7FE
3666
3060
3060
3060
0060
ENDCHAR
STARTCHAR U_51B3
ENCODING 20915
SWIDTH 1000 0
DWIDTH 15 0
BBX 15 14 0 -1
BITMAP
00C0
60C0
30C0
07F8
18D8
18D8
18D8
37FE
F0C0
30C0
31E0
3330
361C
3C0E
ENDCHAR
STARTCHAR U_51B4
ENCODING 20916
SWIDTH 1000 0
DWIDTH 15 0
BBX 15 14 0 -1
BITMAP
07FE
6198
3198
3198
0318
07FE
1818
3038
3078
E0D8
6198
6318
6E78
0030
ENDCHAR
STARTCHAR U_51B5
ENCODING 20917
SWIDTH 1000 0
DWIDTH 15 0
BBX 15 14 0 -1
BITMAP
0000
63FC
330C
030C
1B0C
1B0C
1BFC
33FC
F0F0
30F0
31B0
31B6
3336
0E1E
ENDCHAR
STARTCHAR U_51B6
ENCODING 20918
SWIDTH 1000 0
DWIDTH 15 0
BBX 15 14 0 -1
BITMAP
0060
6060
30C0
0198
1B0C
1FFE
1806
33FC
F30C
330C
330C
330C
33FC
030C
ENDCHAR
STARTCHAR U_51B7
ENCODING 20919
SWIDTH 1000 0
DWIDTH 15 0
BBX 15 14 0 -1
BITMAP
0060
6060
30F0
0198
1BCC
1E66
1C60
3000
F3FC
300C
3018
31F0
3060
3030
ENDCHAR
STARTCHAR U_51B8
ENCODING 20920
SWIDTH 1000 0
DWIDTH 15 0
BBX 15 14 0 -1
BITMAP
00C0
66CC
33CC
33D8
0CC0
1FFC
30C0
30C0
E0C0
7FFE
60C0
60C0
00C0
00C0
ENDCHAR
STARTCHAR U_51B9
ENCODING 20921
SWIDTH 1000 0
DWIDTH 15 0
BBX 15 14 0 -1
BITMAP
01E0
61B0
3198
0FFE
1980
1980
19FC
3198
F3D8
3370
3660
36F0
3D98
3F0E
ENDCHAR
STARTCHAR U_51BA
ENCODING 20922
SWIDTH 1000 0
DWIDTH 15 0
BBX 15 14 0 -1
BITMAP
07FC
660C
360C
360C
0FFC
1E60
3660
37FE
E660
6660
6630
66F6
679E
060E
ENDCHAR
STARTCHAR U_51BB
ENCODING 20923
SWIDTH 1000 0
DWIDTH 15 0
BBX 15 14 0 -1
BITMAP
00C0
60C0
37FE
0180
19E0
1B60
1BFE
3060
F1E0
3378
366C
3C66
31E6
00C0
ENDCHAR
STARTCHAR U_51BC
ENCODING 20924
SWIDTH 1000 0
DWIDTH 15 0
BBX 15 14 0 -1
BITMAP
0060
6360
3360
03FC
1E60
1860
1FFE
31B0
F1B0
31B0
31B0
31B6
3336
0E1E
ENDCHAR
STARTCHAR U_51BD
ENCODING 20925
SWIDTH 1000 0
DWIDTH 15 0
BBX 15 14 0 -1
BITMAP
0006
6FE6
3306
0336
1BF6
1EF6
1EF6
3FF6
FDF6
30F6
31B6
3306
361E
0C0C
ENDCHAR
STARTCHAR U_51BE
ENCODING 20926
SWIDTH 1000 0
DWIDTH 15 0
BBX 15 14 0 -1
BITMAP
00C0
60E0
31B0
0318
1E0C
1FFE
1800
3000
F3F8
3318
3318
3318
33F8
0318
ENDCHAR
STARTCHAR U_51BF
ENCODING 20927
SWIDTH 1000 0
DWIDTH 15 0
BBX 15 14 0 -1
BITMAP
00C0
60C0
37F8
30D8
0FFE
18D8
37F8
30C0
E0C0
67F8
60C0
7FFE
60C0
00C0
ENDCHAR
STARTCHAR U_51C0
ENCODING 20928
SWIDTH 1000 0
DWIDTH 15 0
BBX 15 14 0 -1
BITMAP
0300
63F8
3330
0660
1FF8
18D8
18D8
3FFE
F0D8
30D8
37F8
30C0
30C0
01C0
ENDCHAR
STARTCHAR U_51C1
ENCODING 20929
SWIDTH 1000 0
DWIDTH 15 0
BBX 15 14 0 -1
BITMAP
0060
6060
37FE
3060
03FC
0F6C
1B6C
336C
33FC
E0E0
61F0
6378
666C
1C66
ENDCHAR
STARTCHAR U_51C2
ENCODING 20930
SWIDTH 1000 0
DWIDTH 15 0
BBX 15 14 0 -1
BITMAP
0300
6300
37F8
3618
0C30
1FF8
36D8
36D8
E7F8
61E0
61E6
6366
6666
1C3E
ENDCHAR
STARTCHAR U_51C3
ENCODING 20931
SWIDTH 1000 0
DWIDTH 15 0
BBX 15 14 0 -1
BITMAP
00C0
60C0
31E0
3330
0618
1BFE
30C0
30C0
E7F8
60C0
66F0
66D8
0FCC
198C
ENDCHAR
STARTCHAR U_51C4
ENCODING 20932
SWIDTH 1000 0
DWIDTH 15 0
BBX 15 14 0 -1
BITMAP
00C0
6FFE
30C0
07F8
18D8
1FFE
18D8
37F8
F0C0
3FFE
3330
31E0
30F0
0F9E
ENDCHAR
STARTCHAR U_51C5
ENCODING 20933
SWIDTH 1000 0
DWIDTH 15 0
BBX 15 14 0 -1
BITMAP
07FE
6606
3666
0666
1FFE
1E66
1E66
37FE
F79E
37FE
379E
3606
37FE
0606
ENDCHAR
STARTCHAR U_51C6
ENCODING 20934
SWIDTH 1000 0
DWIDTH 15 0
BBX 15 14 0 -1
BITMAP
01E0
61B0
3330
03FE
1B30
1F30
1FFC
3330
F330
33FC
3330
3330
33FE
0300
ENDCHAR
STARTCHAR U_51C7
ENCODING 20935
SWIDTH 1000 0
DWIDTH 15 0
BBX 15 14 0 -1
BITMAP
0618
6678
3678
0678
1FCC
1ECC
1E36
3F30
FFE0
3E60
366C
36C6
37FE
06C6
ENDCHAR
STARTCHAR U_51C8
ENCODING 20936
SWIDTH 1000 0
DWIDTH 15 0
BBX 15 14 0 -1
BITMAP
001C
67F0
36CC
0378
1B78
1FFC
186C
3FFE
F06C
37FC
306C
3060
33E0
30C0
ENDCHAR
STARTCHAR U_51C9
ENCODING 20937
SWIDTH 1000 0
DWIDTH 15 0
BBX 15 14 0 -1
BITMAP
00C0
6060
37FE
0000
1BFC
1B0C
1B0C
33FC
F36C
3060
336C
3666
3DE6
00C0
ENDCHAR
STARTCHAR U_51CA
ENCODING 20938
SWIDTH 1000 0
DWIDTH 15 0
BBX 15 14 0 -1
BITMAP
0060
67FE
3060
03FC
1860
1FFE
1800
33FC
F30C
33FC
330C
33FC
330C
033C
ENDCHAR
STARTCHAR U_51CB
ENCODING 20939
SWIDTH 1000 0
DWIDTH 15 0
BBX 15 14 0 -1
BITMAP
07FE
6606
3666
07FE
1E66
1E66
1FFE
3606
F7FE
379E
379E
3DFE
3D9E
180E
ENDCHAR
STARTCHAR U_51CC
ENCODING 20940
SWIDTH 1000 0
DWIDTH 15 0
BBX 15 14 0 -1
BITMAP
00C0
60C0
37FC
00C0
1FFE
1800
1B38
378E
FDF8
3398
36F0
3CE0
33B8
0E0E
ENDCHAR
STARTCHAR U_51CD
ENCODING 20941
SWIDTH 1000 0
DWIDTH 15 0
BBX 15 14 0 -1
BITMAP
0060
6060
3FFE
0060
1FFC
1E6C
1FFC
366C
F7FC
366C
30F0
31F8
336E
3666
ENDCHAR
STARTCHAR U_51CE
ENCODING 20942
SWIDTH 1000 0
DWIDTH 15 0
BBX 15 14 0 -1
BITMAP
0060
60F0
3198
030C
1E06
1BFC
1860
3060
F7FE
3060
336C
31F8
31F8
3FFE
ENDCHAR
STARTCHAR U_51CF
ENCODING 20943
SWIDTH 1000 0
DWIDTH 15 0
BBX 15 14 0 -1
BITMAP
0018
601C
301E
07FE
1E18
1FF8
1E18
37FE
F7FE
37FC
37F8
37FE
3C3E
38E6
ENDCHAR
STARTCHAR U_51D0
ENCODING 20944
SWIDTH 1000 0
DWIDTH 15 0
BBX 15 14 0 -1
BITMAP
0000
6FFE
31B0
01B0
1FFC
1FBC
1FBC
37FC
F060
3060
37FC
3060
3060
3FFE
ENDCHAR
STARTCHAR U_51D1
ENCODING 20945
SWIDTH 1000 0
DWIDTH 15 0
BBX 15 14 0 -1
BITMAP
00C0
60D8
37FC
00C0
1BFC
1980
1FFE
3318
F7FC
3CC6
37FC
31E0
3338
3E0E
ENDCHAR
STARTCHAR U_51D2
ENCODING 20946
SWIDTH 1000 0
DWIDTH 15 0
BBX 15 14 0 -1
BITMAP
0060
636C
336C
33FC
0C00
1FFE
1800
33FC
330C
F30C
33FC
3198
30F0
0FFE
ENDCHAR
STARTCHAR U_51D3
ENCODING 20947
SWIDTH 1000 0
DWIDTH 15 0
BBX 15 14 0 -1
BITMAP
0000
6FFE
31B0
37FC
07BC
1FBC
1FFC
30C0
3FFE
E0E0
61F0
63D8
66CE
1CCC
ENDCHAR
STARTCHAR U_51D4
ENCODING 20948
SWIDTH 1000 0
DWIDTH 15 0
BBX 15 14 0 -1
BITMAP
0060
60F0
3198
03CC
1E66
1BFC
1B0C
33FC
F30C
33FC
3600
37FE
3D86
3DFE
ENDCHAR
STARTCHAR U_51D5
ENCODING 20949
SWIDTH 1000 0
DWIDTH 15 0
BBX 15 14 0 -1
BITMAP
0FFE
6C06
3FFE
3318
03F8
1B18
33F8
30C0
E060
6FFE
61B0
6198
030C
0E0C
ENDCHAR
STARTCHAR U_51D6
ENCODING 20950
SWIDTH 1000 0
DWIDTH 15 0
BBX 15 14 0 -1
BITMAP
6360
3330
33FE
1F30
1FFC
3330
F3FC
3330
33FE
0180
FFFE
0180
0180
0180
ENDCHAR
STARTCHAR U_51D7
ENCODING 20951
SWIDTH 1000 0
DWIDTH 15 0
BBX 15 14 0 -1
BITMAP
0060
6666
3666
07FE
1BC0
1B60
1BFE
3760
FFFC
3360
33FC
3360
3360
33FE
ENDCHAR
STARTCHAR U_51D8
ENCODING 20952
SWIDTH 1000 0
DWIDTH 15 0
BBX 15 14 0 -1
BITMAP
06C6
66FC
3FF0
06F0
1EF0
1FFE
1EFC
37FC
F6FC
36FC
3FFC
37BC
3CEC
386C
ENDCHAR
STARTCHAR U_51D9
ENCODING 20953
SWIDTH 1000 0
DWIDTH 15 0
BBX 15 14 0 -1
BITMAP
07FC
67BC
37BC
37FC
0060
1BFC
3060
3FFE
E198
63FC
6060
6FFE
6060
0060
ENDCHAR
STARTCHAR U_51DA
ENCODING 20954
SWIDTH 1000 0
DWIDTH 15 0
BBX 15 14 0 -1
BITMAP
0318
6318
3FFE
3318
07BC
1FFE
337E
3000
E7F8
6000
7FFE
66F0
0FD8
398C
ENDCHAR
STARTCHAR U_51DB
ENCODING 20955
SWIDTH 1000 0
DWIDTH 15 0
BBX 15 14 0 -1
BITMAP
00C0
6FFE
360C
07FC
1FBC
1FFC
1E0C
37FC
F000
33F8
3000
3FFE
3378
3FEE
ENDCHAR
STARTCHAR U_51DC
ENCODING 20956
SWIDTH 1000 0
DWIDTH 15 0
BBX 15 14 0 -1
BITMAP
00C0
6FFE
3000
07FC
1FBC
1FFC
1E0C
37FC
F030
37E0
30C0
3FFE
33F0
3EDC
ENDCHAR
STARTCHAR U_51DD
ENCODING 20957
SWIDTH 1000 0
DWIDTH 15 0
BBX 15 14 0 -1
BITMAP
0C0C
6FFE
3E0C
0CF8
1FD8
1E7E
1E1E
37D8
FF18
3FFE
3378
37F8
3CF8
399E
ENDCHAR
STARTCHAR U_51DE
ENCODING 20958
SWIDTH 1000 0
DWIDTH 15 0
BBX 15 14 0 -1
BITMAP
CFFE
6FDE
0FDE
3FFE
3F7E
3F7E
EFF8
6FDE
7BDE
73FE
0000
3CCC
6666
6666
ENDCHAR
STARTCHAR U_51DF
ENCODING 20959
SWIDTH 1000 0
DWIDTH 15 0
BBX 15 14 0 -1
BITMAP
00C0
6FFE
30C0
37FC
0000
0FFE
3DB6
3FFE
360C
E7FC
660C
67FC
63B8
0E0E
ENDCHAR
STARTCHAR U_51E0
ENCODING 20960
SWIDTH 1000 0
DWIDTH 15 0
BBX 15 14 0 -1
BITMAP
0000
1FC0
18C0
18C0
18C0
18C0
18C0
18C0
18C0
18C0
30CC
30CC
60CC
C07C
ENDCHAR
STARTCHAR U_51E1
ENCODING 20961
SWIDTH 1000 0
DWIDTH 15 0
BBX 15 14 0 -1
BITMAP
0000
1FC0
18C0
18C0
18C0
1EC0
1BC0
1BC0
18C0
18C0
30CC
30CC
60CC
C07C
ENDCHAR
STARTCHAR U_51E2
ENCODING 20962
SWIDTH 1000 0
DWIDTH 15 0
BBX 15 14 0 -1
BITMAP
0300
0300
0600
0FE0
0C60
0C60
0C60
0C60
0C60
0C60
1866
1866
3066
603E
ENDCHAR
STARTCHAR U_51E3
ENCODING 20963
SWIDTH 1000 0
DWIDTH 15 0
BBX 15 14 0 -1
BITMAP
0300
0300
0300
0FE0
0C60
0C60
0C60
0C60
0C60
0C60
1866
1866
3066
603E
ENDCHAR
STARTCHAR U_51E4
ENCODING 20964
SWIDTH 1000 0
DWIDTH 15 0
BBX 15 14 0 -1
BITMAP
3FF0
3030
3030
3FB0
31B0
3DB0
37B0
37B0
3330
3330
37B0
6CFC
78DC
C00C
ENDCHAR
STARTCHAR U_51E5
ENCODING 20965
SWIDTH 1000 0
DWIDTH 15 0
BBX 15 14 0 -1
BITMAP
3FFC
300C
300C
3FFC
3000
37E0
3660
3660
3660
3660
3666
6C66
6C66
D83E
ENDCHAR
STARTCHAR U_51E6
ENCODING 20966
SWIDTH 1000 0
DWIDTH 15 0
BBX 15 14 0 -1
BITMAP
1800
18F8
1FD8
33D8
33D8
7BD8
DED8
1F98
0D9E
0F1E
1E0E
3380
60E0
C03E
ENDCHAR
STARTCHAR U_51E7
ENCODING 20967
SWIDTH 1000 0
DWIDTH 15 0
BBX 15 14 0 -1
BITMAP
3FF8
3318
3318
3318
3FF8
3F78
3F78
3F78
3F78
3F78
6FFE
631E
630E
C306
ENDCHAR
STARTCHAR U_51E8
ENCODING 20968
SWIDTH 1000 0
DWIDTH 15 0
BBX 15 14 0 -1
BITMAP
3FF8
3018
3018
3FF8
3018
3018
3FF8
3318
3318
36D8
6C7E
6FFE
606E
C006
ENDCHAR
STARTCHAR U_51E9
ENCODING 20969
SWIDTH 1000 0
DWIDTH 15 0
BBX 15 14 0 -1
BITMAP
3FF8
3018
3198
3198
3FF8
3198
3398
33D8
37F8
3DF8
319E
619E
618E
C006
ENDCHAR
STARTCHAR U_51EA
ENCODING 20970
SWIDTH 1000 0
DWIDTH 15 0
BBX 15 14 0 -1
BITMAP
3FF8
3018
3198
3198
3198
3198
3DF8
3D98
3D98
3D98
3D98
7FFE
600E
C006
ENDCHAR
STARTCHAR U_51EB
ENCODING 20971
SWIDTH 1000 0
DWIDTH 15 0
BBX 15 14 0 -1
BITMAP
0600
0C00
7FC0
78C0
6FC0
6180
7FF8
0018
1F98
19F0
1980
198C
318C
E0FC
ENDCHAR
STARTCHAR U_51EC
ENCODING 20972
SWIDTH 1000 0
DWIDTH 15 0
BBX 15 14 0 -1
BITMAP
0000
3FF8
3018
3018
3FD8
3018
3FD8
3CD8
3FD8
3CD8
3FDE
6CDE
600E
C006
ENDCHAR
STARTCHAR U_51ED
ENCODING 20973
SWIDTH 1000 0
DWIDTH 15 0
BBX 15 14 0 -1
BITMAP
1838
1FE0
30C0
70C0
FFFC
30C0
3FF8
3000
1FC0
18C0
18C0
18CC
30CC
607C
ENDCHAR
STARTCHAR U_51EE
ENCODING 20974
SWIDTH 1000 0
DWIDTH 15 0
BBX 15 14 0 -1
BITMAP
0000
1FF8
1818
1FF8
1998
1B18
1FF8
1E78
1FF8
3678
367E
37FE
666E
C006
ENDCHAR
STARTCHAR U_51EF
ENCODING 20975
SWIDTH 1000 0
DWIDTH 15 0
BBX 15 14 0 -1
BITMAP
1800
DBF8
DBD8
DBD8
FFD8
00D8
7FD8
03D8
7FD8
63D8
60D8
6F9E
799E
630E
ENDCHAR
STARTCHAR U_51F0
ENCODING 20976
SWIDTH 1000 0
DWIDTH 15 0
BBX 15 14 0 -1
BITMAP
3FF8
3198
3318
3FF8
3C78
3FF8
3C78
3FF8
3018
3FF8
3198
3FFE
618E
DFFE
ENDCHAR
STARTCHAR U_51F1
ENCODING 20977
SWIDTH 1000 0
DWIDTH 15 0
BBX 15 14 0 -1
BITMAP
0C18
6FFC
6FD8
7FD8
00D8
7FD8
00D8
7FD8
63D8
7FD8
63DE
36DE
3F9E
FB0E
ENDCHAR
STARTCHAR U_51F2
ENCODING 20978
SWIDTH 1000 0
DWIDTH 15 0
BBX 15 14 0 -1
BITMAP
0000
3FF8
36D8
3FF8
3798
3FF8
37F8
3FF8
37F8
3FF8
379E
6FDE
7FEE
C786
ENDCHAR
STARTCHAR U_51F3
ENCODING 20979
SWIDTH 1000 0
DWIDTH 15 0
BBX 15 14 0 -1
BITMAP
7FB0
07F8
3CF0
1FE0
3030
FFFC
1860
1FE0
0D80
FFF8
0000
0FCC
0CCC
F8FC
ENDCHAR
STARTCHAR U_51F4
ENCODING 20980
SWIDTH 1000 0
DWIDTH 15 0
BBX 15 14 0 -1
BITMAP
67FC
3660
1FFC
3660
F7FC
37EC
3FFC
301C
0FE0
0C60
0C60
0C60
1866
F03E
ENDCHAR
STARTCHAR U_51F5
ENCODING 20981
SWIDTH 1000 0
DWIDTH 15 0
BBX 15 14 0 -1
BITMAP
0000
6006
6006
6006
6006
6006
6006
6006
6006
6006
6006
6006
FFFE
6006
ENDCHAR
STARTCHAR U_51F6
ENCODING 20982
SWIDTH 1000 0
DWIDTH 15 0
BBX 15 14 0 -1
BITMAP
0060
0C60
666C
63CC
618C
63CC
636C
663C
6C3C
783C
600C
600C
7FFC
600C
ENDCHAR
STARTCHAR U_51F7
ENCODING 20983
SWIDTH 1000 0
DWIDTH 15 0
BBX 15 14 0 -1
BITMAP
0000
0300
630C
630C
630C
6FEC
630C
630C
630C
7FFC
600C
600C
7FFC
600C
ENDCHAR
STARTCHAR U_51F8
ENCODING 20984
SWIDTH 1000 0
DWIDTH 15 0
BBX 15 14 0 -1
BITMAP
0FE0
0C60
0C60
0C60
0C60
0C60
7C7C
600C
600C
600C
600C
600C
7FFC
600C
ENDCHAR
STARTCHAR U_51F9
ENCODING 20985
SWIDTH 1000 0
DWIDTH 15 0
BBX 15 14 0 -1
BITMAP
0000
7E7E
6666
6666
6666
6666
6666
67E6
6006
6006
6006
6006
7FFE
6006
ENDCHAR
STARTCHAR U_51FA
ENCODING 20986
SWIDTH 1000 0
DWIDTH 15 0
BBX 15 14 0 -1
BITMAP
0180
0180
1998
1998
1998
1FF8
1998
0180
318C
318C
318C
318C
3FFC
300C
ENDCHAR
STARTCHAR U_51FB
ENCODING 20987
SWIDTH 1000 0
DWIDTH 15 0
BBX 15 14 0 -1
BITMAP
0300
0300
7FF8
0300
0300
0300
FFFC
0300
0300
6318
6318
6318
7FF8
6018
ENDCHAR
STARTCHAR U_51FC
ENCODING 20988
SWIDTH 1000 0
DWIDTH 15 0
BBX 15 14 0 -1
BITMAP
0300
C318
C378
FF78
CFD8
CF98
DBD8
DB78
F378
EF18
C618
C018
FFF8
C018
ENDCHAR
STARTCHAR U_51FD
ENCODING 20989
SWIDTH 1000 0
DWIDTH 15 0
BBX 15 14 0 -1
BITMAP
0000
7FF0
00C0
0180
0330
7B78
6FD8
6718
6FD8
7B78
6F78
6618
7FF8
6018
ENDCHAR
STARTCHAR U_51FE
ENCODING 20990
SWIDTH 1000 0
DWIDTH 15 0
BBX 15 14 0 -1
BITMAP
00C0
3FE0
0180
0300
3FF8
FF1E
FFDE
FF76
FF36
FF7E
C37E
CFCE
C606
FFFE
ENDCHAR
STARTCHAR U_51FF
ENCODING 20991
SWIDTH 1000 0
DWIDTH 15 0
BBX 15 14 0 -1
BITMAP
06C0
66CC
36D8
1EF0
FFFC
0CC0
6798
7FF8
6318
6FD8
6318
6318
7FF8
6018
ENDCHAR
STARTCHAR U_5200
ENCODING 20992
SWIDTH 1000 0
DWIDTH 15 0
BBX 15 14 0 -1
BITMAP
0000
7FF8
0618
0618
0618
0618
0618
0C18
0C18
1818
1818
30F0
6060
0000
ENDCHAR
STARTCHAR U_5201
ENCODING 20993
SWIDTH 1000 0
DWIDTH 15 0
BBX 15 14 0 -1
BITMAP
0030
7FF8
0030
0030
0030
0330
0630
0C30
3830
E030
0030
01F0
0060
0000
ENDCHAR
STARTCHAR U_5202
ENCODING 20994
SWIDTH 1000 0
DWIDTH 15 0
BBX 15 14 0 -1
BITMAP
000C
000C
006C
006C
006C
006C
006C
006C
006C
006C
000C
000C
003C
0018
ENDCHAR
STARTCHAR U_5203
ENCODING 20995
SWIDTH 1000 0
DWIDTH 15 0
BBX 15 14 0 -1
BITMAP
0030
FFF8
0630
0630
0630
3630
3630
6630
0C30
0C30
1830
3030
61E0
C0C0
ENDCHAR
STARTCHAR U_5204
ENCODING 20996
SWIDTH 1000 0
DWIDTH 15 0
BBX 15 14 0 -1
BITMAP
0018
7FFC
0618
6618
3618
1E18
0E18
0618
0718
0DD8
0C78
181E
30F0
6060
ENDCHAR
STARTCHAR U_5205
ENCODING 20997
SWIDTH 1000 0
DWIDTH 15 0
BBX 15 14 0 -1
BITMAP
0060
3FF0
0660
0660
0660
3678
366C
6C6C
CC66
1866
1860
3060
61E0
C0C0
ENDCHAR
STARTCHAR U_5206
ENCODING 20998
SWIDTH 1000 0
DWIDTH 15 0
BBX 15 14 0 -1
BITMAP
0CC0
0CC0
18C0
18C0
3060
6030
FFFC
0C60
0C60
0C60
0C60
1860
33C0
E180
ENDCHAR
STARTCHAR U_5207
ENCODING 20999
SWIDTH 1000 0
DWIDTH 15 0
BBX 15 14 0 -1
BITMAP
0018
37FC
30D8
30D8
36D8
3CD8
F0D8
30D8
36D8
3D98
3998
7318
0678
0C30
ENDCHAR
STARTCHAR U_5208
ENCODING 21000
SWIDTH 1000 0
DWIDTH 15 0
BBX 15 14 0 -1
BITMAP
000C
030C
C36C
636C
366C
366C
1C6C
0C6C
1E6C
366C
336C
630C
C03C
0018
ENDCHAR
STARTCHAR U_5209
ENCODING 21001
SWIDTH 1000 0
DWIDTH 15 0
BBX 15 14 0 -1
BITMAP
3006
3186
7FF6
C036
0036
3F36
0636
0C36
0C36
1836
18F6
30C6
30DE
1FCC
ENDCHAR
STARTCHAR U_520A
ENCODING 21002
SWIDTH 1000 0
DWIDTH 15 0
BBX 15 14 0 -1
BITMAP
0006
7F86
0C36
0C36
0C36
0C36
FFF6
0C36
0C36
0C36
0C06
0C06
0C1E
0C0C
ENDCHAR
STARTCHAR U_520B
ENCODING 21003
SWIDTH 1000 0
DWIDTH 15 0
BBX 15 14 0 -1
BITMAP
0306
0786
7C06
0C66
0C66
FFE6
0C66
0C66
0C66
0C66
1806
1806
301E
E00C
ENDCHAR
STARTCHAR U_520C
ENCODING 21004
SWIDTH 1000 0
DWIDTH 15 0
BBX 15 14 0 -1
BITMAP
0306
0306
0336
0336
7FF6
0336
0336
3336
1B36
1B36
0336
0306
0F1E
060C
ENDCHAR
STARTCHAR U_520D
ENCODING 21005
SWIDTH 1000 0
DWIDTH 15 0
BBX 15 14 0 -1
BITMAP
1800
18C0
3FC0
3180
6330
FFF8
0030
0030
3FF0
0030
0030
7FF0
0030
0000
ENDCHAR
STARTCHAR U_520E
ENCODING 21006
SWIDTH 1000 0
DWIDTH 15 0
BBX 15 14 0 -1
BITMAP
1806
1806
31B6
3FF6
7FB6
DFB6
1FB6
37B6
3DB6
6DB6
D9B6
3186
679E
030C
ENDCHAR
STARTCHAR U_520F
ENCODING 21007
SWIDTH 1000 0
DWIDTH 15 0
BBX 15 14 0 -1
BITMAP
300C
300C
3F8C
600C
DF6C
006C
006C
3F6C
036C
030C
030C
03CC
03FC
01D8
ENDCHAR
STARTCHAR U_5210
ENCODING 21008
SWIDTH 1000 0
DWIDTH 15 0
BBX 15 14 0 -1
BITMAP
0186
3FC6
31B6
3DB6
37B6
37B6
31B6
7FF6
31B6
31B6
31B6
6186
679E
C30C
ENDCHAR
STARTCHAR U_5211
ENCODING 21009
SWIDTH 1000 0
DWIDTH 15 0
BBX 15 14 0 -1
BITMAP
030C
FF8C
366C
366C
366C
366C
FFEC
366C
366C
366C
366C
660C
663C
C618
ENDCHAR
STARTCHAR U_5212
ENCODING 21010
SWIDTH 1000 0
DWIDTH 15 0
BBX 15 14 0 -1
BITMAP
300C
3C0C
366C
366C
33EC
FE6C
306C
336C
366C
1C6C
186C
3D8C
67BC
C318
ENDCHAR
STARTCHAR U_5213
ENCODING 21011
SWIDTH 1000 0
DWIDTH 15 0
BBX 15 14 0 -1
BITMAP
0306
3F86
0036
0036
01B6
7FF6
1B36
1B36
1B36
1B36
1BF6
3386
333E
600C
ENDCHAR
STARTCHAR U_5214
ENCODING 21012
SWIDTH 1000 0
DWIDTH 15 0
BBX 15 14 0 -1
BITMAP
180C
180C
7F6C
1B6C
1B6C
1B6C
FFEC
186C
186C
366C
330C
618C
61BC
C018
ENDCHAR
STARTCHAR U_5215
ENCODING 21013
SWIDTH 1000 0
DWIDTH 15 0
BBX 15 14 0 -1
BITMAP
0018
3FFC
0318
0618
0CD8
7870
000C
FFFE
1B6C
1B6C
1B6C
33CC
7FBC
CF18
ENDCHAR
STARTCHAR U_5216
ENCODING 21014
SWIDTH 1000 0
DWIDTH 15 0
BBX 15 14 0 -1
BITMAP
0006
3F86
31B6
31B6
31B6
3FB6
31B6
31B6
3FB6
31B6
31B6
6186
679E
C30C
ENDCHAR
STARTCHAR U_5217
ENCODING 21015
SWIDTH 1000 0
DWIDTH 15 0
BBX 15 14 0 -1
BITMAP
030C
FF8C
186C
306C
3F6C
666C
666C
F66C
1C6C
0C6C
186C
300C
603C
C018
ENDCHAR
STARTCHAR U_5218
ENCODING 21016
SWIDTH 1000 0
DWIDTH 15 0
BBX 15 14 0 -1
BITMAP
300C
180C
1B6C
FFEC
006C
066C
666C
366C
1C6C
0C6C
1E6C
330C
633C
C018
ENDCHAR
STARTCHAR U_5219
ENCODING 21017
SWIDTH 1000 0
DWIDTH 15 0
BBX 15 14 0 -1
BITMAP
000C
7F0C
7B6C
7B6C
7B6C
7B6C
7B6C
7B6C
7B6C
7B6C
3C6C
360C
633C
C018
ENDCHAR
STARTCHAR U_521A
ENCODING 21018
SWIDTH 1000 0
DWIDTH 15 0
BBX 15 14 0 -1
BITMAP
000C
FF0C
C36C
C76C
EF6C
FF6C
DB6C
DF6C
FF6C
EF6C
C36C
C30C
CF3C
C618
ENDCHAR
STARTCHAR U_521B
ENCODING 21019
SWIDTH 1000 0
DWIDTH 15 0
BBX 15 14 0 -1
BITMAP
0C06
0C06
1E36
33B6
61B6
FF36
3336
3336
3336
3336
3E36
30C6
30DE
1FCC
ENDCHAR
STARTCHAR U_521C
ENCODING 21020
SWIDTH 1000 0
DWIDTH 15 0
BBX 15 14 0 -1
BITMAP
1B06
1B06
7FF6
1BF6
1BF6
7FF6
7B36
7FF6
1BF6
1BF6
1BF6
33C6
333E
630C
ENDCHAR
STARTCHAR U_521D
ENCODING 21021
SWIDTH 1000 0
DWIDTH 15 0
BBX 15 14 0 -1
BITMAP
3000
1818
1BFC
FCD8
18D8
36D8
3CD8
78D8
FCD8
3798
3198
3318
3678
3C30
ENDCHAR
STARTCHAR U_521E
ENCODING 21022
SWIDTH 1000 0
DWIDTH 15 0
BBX 15 14 0 -1
BITMAP
0006
3F86
31B6
31B6
31B6
3FB6
31B6
31B6
3FB6
31B6
31B6
3186
3FFE
780C
ENDCHAR
STARTCHAR U_521F
ENCODING 21023
SWIDTH 1000 0
DWIDTH 15 0
BBX 15 14 0 -1
BITMAP
018C
FFCC
198C
198C
37EC
E36C
006C
7F6C
636C
636C
636C
630C
7F3C
6318
ENDCHAR
STARTCHAR U_5220
ENCODING 21024
SWIDTH 1000 0
DWIDTH 15 0
BBX 15 14 0 -1
BITMAP
0006
3FC6
3FF6
3FF6
3FF6
3FF6
FFF6
3FF6
3FF6
3FF6
3FF6
6FC6
7EDE
CDCC
ENDCHAR
STARTCHAR U_5221
ENCODING 21025
SWIDTH 1000 0
DWIDTH 15 0
BBX 15 14 0 -1
BITMAP
0006
7F86
61B6
61B6
7FB6
6636
6636
7FF6
6636
6636
6636
7BC6
71DE
E0CC
ENDCHAR
STARTCHAR U_5222
ENCODING 21026
SWIDTH 1000 0
DWIDTH 15 0
BBX 15 14 0 -1
BITMAP
0C0C
0C0C
1E0C
1B6C
3DEC
666C
C66C
006C
7F6C
036C
1E0C
0C0C
063C
0018
ENDCHAR
STARTCHAR U_5223
ENCODING 21027
SWIDTH 1000 0
DWIDTH 15 0
BBX 15 14 0 -1
BITMAP
0C06
0C06
1B06
31B6
FFF6
60F6
01B6
3FF6
31B6
31B6
31B6
3186
3F9E
318C
ENDCHAR
STARTCHAR U_5224
ENCODING 21028
SWIDTH 1000 0
DWIDTH 15 0
BBX 15 14 0 -1
BITMAP
0C06
6D86
3DB6
3F36
0F36
7FB6
0C36
0C36
FFF6
0C36
0C36
1806
301E
600C
ENDCHAR
STARTCHAR U_5225
ENCODING 21029
SWIDTH 1000 0
DWIDTH 15 0
BBX 15 14 0 -1
BITMAP
0006
7F86
61B6
61B6
61B6
7FB6
1836
1836
1FB6
19B6
19B6
3186
37BE
E30C
ENDCHAR
STARTCHAR U_5226
ENCODING 21030
SWIDTH 1000 0
DWIDTH 15 0
BBX 15 14 0 -1
BITMAP
0C0C
0C0C
3F0C
0C6C
0C6C
7FEC
0C6C
0C6C
186C
336C
618C
7F8C
01BC
0018
ENDCHAR
STARTCHAR U_5227
ENCODING 21031
SWIDTH 1000 0
DWIDTH 15 0
BBX 15 14 0 -1
BITMAP
1BFE
1866
7E66
1866
1866
1866
FE66
1866
3066
3CC6
66C6
FEC6
07BC
0318
ENDCHAR
STARTCHAR U_5228
ENCODING 21032
SWIDTH 1000 0
DWIDTH 15 0
BBX 15 14 0 -1
BITMAP
300C
300C
3F6C
636C
7F6C
EF6C
6F6C
7F6C
6F6C
636C
6E6C
618C
61BC
3F98
ENDCHAR
STARTCHAR U_5229
ENCODING 21033
SWIDTH 1000 0
DWIDTH 15 0
BBX 15 14 0 -1
BITMAP
038C
7E0C
0C6C
0C6C
FFEC
0C6C
1E6C
3FEC
3DEC
6C6C
CC6C
0C0C
0C3C
0C18
ENDCHAR
STARTCHAR U_522A
ENCODING 21034
SWIDTH 1000 0
DWIDTH 15 0
BBX 15 14 0 -1
BITMAP
0006
3FC6
3FF6
3FF6
3FF6
3FF6
7FF6
3FF6
3FF6
3FF6
3FF6
3FC6
3CFE
33CC
ENDCHAR
STARTCHAR U_522B
ENCODING 21035
SWIDTH 1000 0
DWIDTH 15 0
BBX 15 14 0 -1
BITMAP
000C
7F0C
636C
636C
7F6C
186C
186C
FF6C
1B6C
1B6C
336C
330C
6F3C
C618
ENDCHAR
STARTCHAR U_522C
ENCODING 21036
SWIDTH 1000 0
DWIDTH 15 0
BBX 15 14 0 -1
BITMAP
0C0C
0F0C
0C0C
0F8C
7C6C
0C6C
0FEC
7C6C
0DEC
0F0C
0E0C
1ECC
73FC
0198
ENDCHAR
STARTCHAR U_522D
ENCODING 21037
SWIDTH 1000 0
DWIDTH 15 0
BBX 15 14 0 -1
BITMAP
060C
FF0C
066C
0C6C
1F6C
F1EC
006C
FF6C
186C
186C
186C
180C
1F3C
F018
ENDCHAR
STARTCHAR U_522E
ENCODING 21038
SWIDTH 1000 0
DWIDTH 15 0
BBX 15 14 0 -1
BITMAP
070C
FC0C
186C
186C
1B6C
FFEC
186C
186C
7F6C
636C
636C
630C
7F3C
6318
ENDCHAR
STARTCHAR U_522F
ENCODING 21039
SWIDTH 1000 0
DWIDTH 15 0
BBX 15 14 0 -1
BITMAP
FF8C
000C
000C
7F6C
636C
636C
7F6C
636C
636C
7F6C
600C
078C
FC3C
6018
ENDCHAR
STARTCHAR U_5230
ENCODING 21040
SWIDTH 1000 0
DWIDTH 15 0
BBX 15 14 0 -1
BITMAP
000C
FF8C
0C6C
186C
336C
7FEC
0C6C
0C6C
7F6C
0C6C
0C6C
0F8C
FC3C
6018
ENDCHAR
STARTCHAR U_5231
ENCODING 21041
SWIDTH 1000 0
DWIDTH 15 0
BBX 15 14 0 -1
BITMAP
6C0C
6DFE
6C6C
6C6C
FFEC
6DEC
6F6E
FE6C
6C6C
6C6C
6CCC
6CCC
CDBC
CF18
ENDCHAR
STARTCHAR U_5232
ENCODING 21042
SWIDTH 1000 0
DWIDTH 15 0
BBX 15 14 0 -1
BITMAP
0C06
0C06
7FB6
0C36
0C36
7FB6
0036
0C36
0C36
7FB6
0C36
0C06
0FBE
7C0C
ENDCHAR
STARTCHAR U_5233
ENCODING 21043
SWIDTH 1000 0
DWIDTH 15 0
BBX 15 14 0 -1
BITMAP
180C
180C
FFEC
366C
636C
FFEC
006C
FFEC
306C
7F6C
066C
060C
1E7C
0C18
ENDCHAR
STARTCHAR U_5234
ENCODING 21044
SWIDTH 1000 0
DWIDTH 15 0
BBX 15 14 0 -1
BITMAP
FF06
1B06
1F86
31B6
37B6
E336
0C36
7FB6
0C36
1E36
3F06
3F06
6D9E
CC0C
ENDCHAR
STARTCHAR U_5235
ENCODING 21045
SWIDTH 1000 0
DWIDTH 15 0
BBX 15 14 0 -1
BITMAP
0186
7FC6
3336
3336
3F36
3336
3336
3F36
3336
33F6
3F36
7306
033E
030C
ENDCHAR
STARTCHAR U_5236
ENCODING 21046
SWIDTH 1000 0
DWIDTH 15 0
BBX 15 14 0 -1
BITMAP
0C06
6C06
6C36
7FB6
CC36
FFF6
0C36
7FB6
6DB6
6DB6
6DB6
6F86
6F1E
0C0C
ENDCHAR
STARTCHAR U_5237
ENCODING 21047
SWIDTH 1000 0
DWIDTH 15 0
BBX 15 14 0 -1
BITMAP
7FC6
60C6
60F6
7FF6
6636
6636
7FF6
7EF6
7EF6
7EF6
7EF6
DFC6
DF9E
060C
ENDCHAR
STARTCHAR U_5238
ENCODING 21048
SWIDTH 1000 0
DWIDTH 15 0
BBX 15 14 0 -1
BITMAP
0300
3360
1EC0
7FF8
0600
0C18
FFFC
1860
3FF0
6678
0C60
0C60
19E0
70C0
ENDCHAR
STARTCHAR U_5239
ENCODING 21049
SWIDTH 1000 0
DWIDTH 15 0
BBX 15 14 0 -1
BITMAP
630C
360C
1C6C
366C
636C
0C6C
0F6C
FFEC
0C6C
3F6C
6DEC
CD8C
3C3C
1818
ENDCHAR
STARTCHAR U_523A
ENCODING 21050
SWIDTH 1000 0
DWIDTH 15 0
BBX 15 14 0 -1
BITMAP
0C06
0C06
FFF6
0C36
7FB6
6DB6
6DB6
6DB6
6FB6
1E36
3F36
6D86
CCFE
0C0C
ENDCHAR
STARTCHAR U_523B
ENCODING 21051
SWIDTH 1000 0
DWIDTH 15 0
BBX 15 14 0 -1
BITMAP
180C
0C0C
0F6C
FFEC
186C
336C
7E6C
0C6C
1B6C
366C
6C6C
DE0C
33BC
6198
ENDCHAR
STARTCHAR U_523C
ENCODING 21052
SWIDTH 1000 0
DWIDTH 15 0
BBX 15 14 0 -1
BITMAP
19FE
1866
1866
7E66
19E6
19E6
FFE6
19E6
19E6
3666
3666
FFC6
63DE
018C
ENDCHAR
STARTCHAR U_523D
ENCODING 21053
SWIDTH 1000 0
DWIDTH 15 0
BBX 15 14 0 -1
BITMAP
0C0C
0C0C
1E6C
336C
61EC
FE6C
006C
006C
FFEC
186C
366C
630C
FFBC
6198
ENDCHAR
STARTCHAR U_523E
ENCODING 21054
SWIDTH 1000 0
DWIDTH 15 0
BBX 15 14 0 -1
BITMAP
0C06
0C06
7FC6
0C36
6DB6
3F36
0C36
FFF6
0C36
1B36
1B06
3186
619E
C00C
ENDCHAR
STARTCHAR U_523F
ENCODING 21055
SWIDTH 1000 0
DWIDTH 15 0
BBX 15 14 0 -1
BITMAP
180C
DB0C
DB6C
FF6C
C36C
306C
3F6C
636C
F36C
1E6C
0C6C
180C
303C
E018
ENDCHAR
STARTCHAR U_5240
ENCODING 21056
SWIDTH 1000 0
DWIDTH 15 0
BBX 15 14 0 -1
BITMAP
180C
DB0C
DB6C
FF6C
006C
FF6C
036C
036C
7F6C
636C
606C
600C
7F3C
E018
ENDCHAR
STARTCHAR U_5241
ENCODING 21057
SWIDTH 1000 0
DWIDTH 15 0
BBX 15 14 0 -1
BITMAP
060C
3F0C
366C
366C
366C
67EC
CC6C
0C6C
FFEC
1C6C
3E6C
6F8C
CDBC
0C18
ENDCHAR
STARTCHAR U_5242
ENCODING 21058
SWIDTH 1000 0
DWIDTH 15 0
BBX 15 14 0 -1
BITMAP
300C
1B0C
FFEC
666C
3C6C
1E6C
736C
E66C
666C
666C
666C
660C
663C
C618
ENDCHAR
STARTCHAR U_5243
ENCODING 21059
SWIDTH 1000 0
DWIDTH 15 0
BBX 15 14 0 -1
BITMAP
630C
360C
1E6C
FFEC
0DEC
7FEC
6DEC
6C6C
FFEC
1DEC
3DEC
6F0C
CC3C
0C18
ENDCHAR
STARTCHAR U_5244
ENCODING 21060
SWIDTH 1000 0
DWIDTH 15 0
BBX 15 14 0 -1
BITMAP
0186
FFC6
6DB6
6DB6
DB36
6DB6
3CF6
0036
7FF6
0C36
0C36
0C06
0FFE
7C0C
ENDCHAR
STARTCHAR U_5245
ENCODING 21061
SWIDTH 1000 0
DWIDTH 15 0
BBX 15 14 0 -1
BITMAP
030C
FF8C
000C
7F6C
636C
636C
7F6C
006C
636C
636C
360C
378C
FC3C
6018
ENDCHAR
STARTCHAR U_5246
ENCODING 21062
SWIDTH 1000 0
DWIDTH 15 0
BBX 15 14 0 -1
BITMAP
1806
0C06
3FB6
31B6
31B6
3FB6
31B6
3FB6
31B6
3636
3336
3786
3DBE
700C
ENDCHAR
STARTCHAR U_5247
ENCODING 21063
SWIDTH 1000 0
DWIDTH 15 0
BBX 15 14 0 -1
BITMAP
0186
3FC6
31B6
31B6
3FB6
31B6
3FB6
31B6
31B6
3FB6
31B6
1B06
31BE
618C
ENDCHAR
STARTCHAR U_5248
ENCODING 21064
SWIDTH 1000 0
DWIDTH 15 0
BBX 15 14 0 -1
BITMAP
7F0C
630C
636C
7F6C
636C
006C
7F6C
636C
7F6C
636C
7F0C
630C
6F3C
6618
ENDCHAR
STARTCHAR U_5249
ENCODING 21065
SWIDTH 1000 0
DWIDTH 15 0
BBX 15 14 0 -1
BITMAP
0C06
0C06
6DB6
6DB6
6DB6
FFF6
FFF6
0C36
0C36
7FB6
0C36
0C06
0DBE
FFCC
ENDCHAR
STARTCHAR U_524A
ENCODING 21066
SWIDTH 1000 0
DWIDTH 15 0
BBX 15 14 0 -1
BITMAP
DB0C
7E0C
7E6C
186C
FF6C
C36C
C36C
FF6C
C36C
C36C
FF6C
C30C
CF3C
C618
ENDCHAR
STARTCHAR U_524B
ENCODING 21067
SWIDTH 1000 0
DWIDTH 15 0
BBX 15 14 0 -1
BITMAP
180C
1B0C
FFEC
186C
FF6C
C36C
C36C
FF6C
FF6C
3C0C
3C3C
3C0C
6C06
C7FE
ENDCHAR
STARTCHAR U_524C
ENCODING 21068
SWIDTH 1000 0
DWIDTH 15 0
BBX 15 14 0 -1
BITMAP
0C06
0D86
FFF6
0C36
7FB6
6DB6
6DB6
7FB6
6DB6
1E36
3FB6
6D86
CC3E
0C0C
ENDCHAR
STARTCHAR U_524D
ENCODING 21069
SWIDTH 1000 0
DWIDTH 15 0
BBX 15 14 0 -1
BITMAP
1860
0CC0
FFFC
0000
7E18
66D8
66D8
7ED8
66D8
66D8
7ED8
6618
6678
6E30
ENDCHAR
STARTCHAR U_524E
ENCODING 21070
SWIDTH 1000 0
DWIDTH 15 0
BBX 15 14 0 -1
BITMAP
6186
3306
1E36
3336
6DB6
0F36
0DB6
FFF6
1C36
3E36
6FB6
CD86
0C3E
0C0C
ENDCHAR
STARTCHAR U_524F
ENCODING 21071
SWIDTH 1000 0
DWIDTH 15 0
BBX 15 14 0 -1
BITMAP
6600
37FE
3C36
0C36
FFF6
36F6
36F6
FFB6
37E6
3666
3666
3666
66DE
C78C
ENDCHAR
STARTCHAR U_5250
ENCODING 21072
SWIDTH 1000 0
DWIDTH 15 0
BBX 15 14 0 -1
BITMAP
0006
3F86
31B6
31B6
3FB6
0DB6
0C36
7FF6
6CF6
6EF6
7BF6
73C6
60FE
61CC
ENDCHAR
STARTCHAR U_5251
ENCODING 21073
SWIDTH 1000 0
DWIDTH 15 0
BBX 15 14 0 -1
BITMAP
0C0C
0C0C
1E6C
336C
61EC
FF6C
006C
336C
DB6C
7B6C
666C
078C
FC3C
0018
ENDCHAR
STARTCHAR U_5252
ENCODING 21074
SWIDTH 1000 0
DWIDTH 15 0
BBX 15 14 0 -1
BITMAP
1B06
1B06
7FF6
1B36
1B36
FFF6
0036
3FB6
31B6
31B6
3FB6
3186
3FBE
318C
ENDCHAR
STARTCHAR U_5253
ENCODING 21075
SWIDTH 1000 0
DWIDTH 15 0
BBX 15 14 0 -1
BITMAP
0EC0
78C0
18FE
FFB6
3F66
7EC6
D99C
0000
7FFC
030C
030C
030C
0E3C
7818
ENDCHAR
STARTCHAR U_5254
ENCODING 21076
SWIDTH 1000 0
DWIDTH 15 0
BBX 15 14 0 -1
BITMAP
030C
7F8C
636C
7F6C
636C
7F6C
306C
7FEC
DFEC
37EC
6DEC
D98C
37FC
6318
ENDCHAR
STARTCHAR U_5255
ENCODING 21077
SWIDTH 1000 0
DWIDTH 15 0
BBX 15 14 0 -1
BITMAP
1E06
1E06
1E36
FFF6
1E36
1E36
FFF6
1E36
1E36
FFF6
1E36
1E06
1E3E
1E0C
ENDCHAR
STARTCHAR U_5256
ENCODING 21078
SWIDTH 1000 0
DWIDTH 15 0
BBX 15 14 0 -1
BITMAP
180C
0C0C
FFEC
636C
366C
366C
FFEC
006C
7F6C
636C
636C
630C
7F3C
6318
ENDCHAR
STARTCHAR U_5257
ENCODING 21079
SWIDTH 1000 0
DWIDTH 15 0
BBX 15 14 0 -1
BITMAP
1E06
1B06
1F86
FB36
1E36
0DB6
FFB6
33B6
3636
FFB6
1B06
0E06
1EDE
F3CC
ENDCHAR
STARTCHAR U_5258
ENCODING 21080
SWIDTH 1000 0
DWIDTH 15 0
BBX 15 14 0 -1
BITMAP
3186
3186
7FF6
31B6
3FB6
31B6
3FB6
31B6
31B6
7FF6
1B06
3186
60DE
C0CC
ENDCHAR
STARTCHAR U_5259
ENCODING 21081
SWIDTH 1000 0
DWIDTH 15 0
BBX 15 14 0 -1
BITMAP
CC00
6C00
7BF8
FED8
6CD8
6CD8
6DDC
FFDE
6FDE
6D9E
6D98
6F18
6F78
CE30
ENDCHAR
STARTCHAR U_525A
ENCODING 21082
SWIDTH 1000 0
DWIDTH 15 0
BBX 15 14 0 -1
BITMAP
0C06
FFC6
0C36
7FB6
6DB6
7FB6
0C36
7FB6
0DB6
FFF6
0DB6
7F86
0C1E
3C0C
ENDCHAR
STARTCHAR U_525B
ENCODING 21083
SWIDTH 1000 0
DWIDTH 15 0
BBX 15 14 0 -1
BITMAP
0006
FFC6
F3F6
DEF6
CCF6
FFF6
CCF6
FFF6
FFF6
FFF6
FFF6
F3C6
C0DE
C3CC
ENDCHAR
STARTCHAR U_525C
ENCODING 21084
SWIDTH 1000 0
DWIDTH 15 0
BBX 15 14 0 -1
BITMAP
0C06
0606
3FF6
60F6
31B6
3FF6
3FF6
6FF6
3FF6
1BF6
1B36
33C6
639E
C30C
ENDCHAR
STARTCHAR U_525D
ENCODING 21085
SWIDTH 1000 0
DWIDTH 15 0
BBX 15 14 0 -1
BITMAP
3006
3F06
3636
7E36
0636
FFF6
0C36
6DB6
3F36
1E36
7FB6
CD86
3C1E
180C
ENDCHAR
STARTCHAR U_525E
ENCODING 21086
SWIDTH 1000 0
DWIDTH 15 0
BBX 15 14 0 -1
BITMAP
180C
180C
FF6C
186C
3C6C
666C
FFEC
036C
7F6C
6F6C
7F6C
030C
0F3C
0618
ENDCHAR
STARTCHAR U_525F
ENCODING 21087
SWIDTH 1000 0
DWIDTH 15 0
BBX 15 14 0 -1
BITMAP
0006
7FC6
0CF6
3BB6
19B6
3FF6
6636
7FF6
0CF6
3BB6
19B6
3FC6
66DE
CC0C
ENDCHAR
STARTCHAR U_5260
ENCODING 21088
SWIDTH 1000 0
DWIDTH 15 0
BBX 15 14 0 -1
BITMAP
1806
0C06
FFC6
0036
3F36
3336
3336
3F36
0C36
3F36
6DB6
CCC6
3CDE
180C
ENDCHAR
STARTCHAR U_5261
ENCODING 21089
SWIDTH 1000 0
DWIDTH 15 0
BBX 15 14 0 -1
BITMAP
0D8C
0F0C
6E6C
6C6C
DE6C
336C
6DEC
0DEC
6F6C
6E6C
CC6C
1E0C
333C
E198
ENDCHAR
STARTCHAR U_5262
ENCODING 21090
SWIDTH 1000 0
DWIDTH 15 0
BBX 15 14 0 -1
BITMAP
0006
7FE6
0C36
18F6
3CF6
7FB6
1B36
3BB6
6FF6
0FF6
1B36
7306
031E
0E0C
ENDCHAR
STARTCHAR U_5263
ENCODING 21091
SWIDTH 1000 0
DWIDTH 15 0
BBX 15 14 0 -1
BITMAP
0606
0F06
1986
30F6
7FB6
C636
3FF6
36F6
36F6
3FF6
0636
0F06
19DE
718C
ENDCHAR
STARTCHAR U_5264
ENCODING 21092
SWIDTH 1000 0
DWIDTH 15 0
BBX 15 14 0 -1
BITMAP
0C06
0606
7FC6
01B6
1B36
0E36
3BB6
F1F6
3FB6
31B6
3FB6
6186
619E
C18C
ENDCHAR
STARTCHAR U_5265
ENCODING 21093
SWIDTH 1000 0
DWIDTH 15 0
BBX 15 14 0 -1
BITMAP
7F86
0186
1FB6
01B6
FFF6
0636
0636
36F6
1FB6
0F36
3FF6
E6C6
061E
0E0C
ENDCHAR
STARTCHAR U_5266
ENCODING 21094
SWIDTH 1000 0
DWIDTH 15 0
BBX 15 14 0 -1
BITMAP
0C06
0C06
FFC6
1E36
3336
6DB6
FFF6
6DB6
7FB6
6DB6
7F86
0CC6
0CDE
07CC
ENDCHAR
STARTCHAR U_5267
ENCODING 21095
SWIDTH 1000 0
DWIDTH 15 0
BBX 15 14 0 -1
BITMAP
7FC6
60C6
60F6
7FF6
6636
6636
7FF6
6636
6636
7FF6
78F6
D8C6
DFDE
18CC
ENDCHAR
STARTCHAR U_5268
ENCODING 21096
SWIDTH 1000 0
DWIDTH 15 0
BBX 15 14 0 -1
BITMAP
0C06
FFC6
0C06
7FB6
0C36
7FB6
0C36
FFF6
0C36
1836
3FB6
7986
D99E
1F8C
ENDCHAR
STARTCHAR U_5269
ENCODING 21097
SWIDTH 1000 0
DWIDTH 15 0
BBX 15 14 0 -1
BITMAP
0386
7E06
0C36
FFF6
3F36
3FF6
FFB6
3FF6
FDF6
1E36
3FB6
6D86
CC1E
0C0C
ENDCHAR
STARTCHAR U_526A
ENCODING 21098
SWIDTH 1000 0
DWIDTH 15 0
BBX 15 14 0 -1
BITMAP
1860
0CC0
FFFC
6618
7ED8
66D8
7ED8
6618
6E78
0000
7FF8
0618
0CD8
7870
ENDCHAR
STARTCHAR U_526B
ENCODING 21099
SWIDTH 1000 0
DWIDTH 15 0
BBX 15 14 0 -1
BITMAP
0C06
0606
7FE6
6DB6
7FF6
6DB6
6FB6
6036
7FF6
60F6
6FB6
6306
C7DE
DCCC
ENDCHAR
STARTCHAR U_526C
ENCODING 21100
SWIDTH 1000 0
DWIDTH 15 0
BBX 15 14 0 -1
BITMAP
0C06
6D86
6DB6
7FB6
0036
FFF6
0C36
7FB6
7FB6
7FB6
7FB6
7F86
7F9E
638C
ENDCHAR
STARTCHAR U_526D
ENCODING 21101
SWIDTH 1000 0
DWIDTH 15 0
BBX 15 14 0 -1
BITMAP
7FC6
60C6
60F6
7FF6
6036
7FF6
6DB6
78F6
7FF6
6636
7FB6
6606
661E
FFCC
ENDCHAR
STARTCHAR U_526E
ENCODING 21102
SWIDTH 1000 0
DWIDTH 15 0
BBX 15 14 0 -1
BITMAP
0006
3F86
31B6
3FB6
3DB6
3DB6
7FF6
60F6
7FF6
7BF6
7FF6
7BC6
60DE
61CC
ENDCHAR
STARTCHAR U_526F
ENCODING 21103
SWIDTH 1000 0
DWIDTH 15 0
BBX 15 14 0 -1
BITMAP
0006
FFC6
0036
3F36
3336
3F36
0036
7FB6
6DB6
7FB6
6DB6
6D86
7F9E
618C
ENDCHAR
STARTCHAR U_5270
ENCODING 21104
SWIDTH 1000 0
DWIDTH 15 0
BBX 15 14 0 -1
BITMAP
0786
7C06
0C06
FFF6
0C36
3F36
FFF6
3F36
3F36
FFF6
1E36
3F06
6D9E
CC0C
ENDCHAR
STARTCHAR U_5271
ENCODING 21105
SWIDTH 1000 0
DWIDTH 15 0
BBX 15 14 0 -1
BITMAP
1800
19FC
3C6C
666C
FF6C
186C
7EEC
7FEC
7E6C
7E6C
18CC
3CCC
67BC
C318
ENDCHAR
STARTCHAR U_5272
ENCODING 21106
SWIDTH 1000 0
DWIDTH 15 0
BBX 15 14 0 -1
BITMAP
1806
0C06
FFF6
CCF6
7FB6
0C36
3F36
0C36
FFF6
0C36
7FB6
6186
7F9E
618C
ENDCHAR
STARTCHAR U_5273
ENCODING 21107
SWIDTH 1000 0
DWIDTH 15 0
BBX 15 14 0 -1
BITMAP
3306
FFC6
3336
3F36
0C36
1E36
3336
61B6
FFB6
0036
3FB6
3186
3F9E
300C
ENDCHAR
STARTCHAR U_5274
ENCODING 21108
SWIDTH 1000 0
DWIDTH 15 0
BBX 15 14 0 -1
BITMAP
0C06
6CC6
6CF6
7FF6
0036
7FF6
0036
3FB6
31B6
3FB6
19B6
0F06
07DE
7C0C
ENDCHAR
STARTCHAR U_5275
ENCODING 21109
SWIDTH 1000 0
DWIDTH 15 0
BBX 15 14 0 -1
BITMAP
0606
0F06
19B6
3CF6
6636
3FB6
31B6
3FB6
31B6
3FB6
3036
7F86
799E
DF8C
ENDCHAR
STARTCHAR U_5276
ENCODING 21110
SWIDTH 1000 0
DWIDTH 15 0
BBX 15 14 0 -1
BITMAP
3006
3F86
3306
7F36
0636
FFF6
3CF6
7FB6
DE36
7F36
DFB6
37E6
FEDE
0C0C
ENDCHAR
STARTCHAR U_5277
ENCODING 21111
SWIDTH 1000 0
DWIDTH 15 0
BBX 15 14 0 -1
BITMAP
0C06
0606
7FF6
31B6
1B36
7FF6
7E36
7E36
7FF6
7636
7FF6
6606
67DE
FE0C
ENDCHAR
STARTCHAR U_5278
ENCODING 21112
SWIDTH 1000 0
DWIDTH 15 0
BBX 15 14 0 -1
BITMAP
0C06
FFC6
6DB6
7FB6
6DB6
7FB6
0C36
0DB6
FFB6
03F6
FFF6
6306
3F3E
060C
ENDCHAR
STARTCHAR U_5279
ENCODING 21113
SWIDTH 1000 0
DWIDTH 15 0
BBX 15 14 0 -1
BITMAP
FFC6
7BC6
79F6
3FF6
F9B6
0636
1F36
F7B6
1FF6
7636
1DF6
7306
0E1E
F80C
ENDCHAR
STARTCHAR U_527A
ENCODING 21114
SWIDTH 1000 0
DWIDTH 15 0
BBX 15 14 0 -1
BITMAP
0CC0
7FFE
0CD8
7FF8
3F30
6DF8
6CCC
3FFE
3000
3FF8
3198
3318
6678
DC30
ENDCHAR
STARTCHAR U_527B
ENCODING 21115
SWIDTH 1000 0
DWIDTH 15 0
BBX 15 14 0 -1
BITMAP
0C06
6D86
6DB6
7FB6
0036
7FF6
7EF6
7FF6
7EF6
7FF6
7EF6
7EC6
DEDE
FDCC
ENDCHAR
STARTCHAR U_527C
ENCODING 21116
SWIDTH 1000 0
DWIDTH 15 0
BBX 15 14 0 -1
BITMAP
0606
0D86
1FB6
31B6
6FF6
FFF6
0636
1FB6
76F6
1F36
07B6
3F06
061E
3C0C
ENDCHAR
STARTCHAR U_527D
ENCODING 21117
SWIDTH 1000 0
DWIDTH 15 0
BBX 15 14 0 -1
BITMAP
000C
FFCC
1E6C
7FEC
7FEC
7FEC
006C
7FEC
006C
FFEC
3C6C
3F8C
6DBC
DC18
ENDCHAR
STARTCHAR U_527E
ENCODING 21118
SWIDTH 1000 0
DWIDTH 15 0
BBX 15 14 0 -1
BITMAP
0006
FFC6
C006
DFB6
D9B6
DFB6
C036
FFF6
FFF6
FFF6
FFF6
C006
FFDE
000C
ENDCHAR
STARTCHAR U_527F
ENCODING 21119
SWIDTH 1000 0
DWIDTH 15 0
BBX 15 14 0 -1
BITMAP
6D86
DB06
6DB6
0036
7FB6
6DB6
7FB6
6DB6
7FB6
0C36
FFF6
3F06
6D9E
CCCC
ENDCHAR
STARTCHAR U_5280
ENCODING 21120
SWIDTH 1000 0
DWIDTH 15 0
BBX 15 14 0 -1
BITMAP
FF86
3306
1E36
FFF6
3DB6
EC36
1836
FFB6
F7B6
FFB6
F7B6
FF86
F79E
C38C
ENDCHAR
STARTCHAR U_5281
ENCODING 21121
SWIDTH 1000 0
DWIDTH 15 0
BBX 15 14 0 -1
BITMAP
3C06
3606
6636
7FF6
E636
7FF6
6636
7FF6
6636
7FF6
6036
3EC6
6F7E
CF6C
ENDCHAR
STARTCHAR U_5282
ENCODING 21122
SWIDTH 1000 0
DWIDTH 15 0
BBX 15 14 0 -1
BITMAP
0006
FFE6
F39E
DF9E
CDFE
FFFE
FCFE
FFDE
FFDE
FFDE
CCDE
CDE6
DB7E
F63C
ENDCHAR
STARTCHAR U_5283
ENCODING 21123
SWIDTH 1000 0
DWIDTH 15 0
BBX 15 14 0 -1
BITMAP
0C06
7F86
0DB6
FFF6
0DB6
7FB6
0C36
FFF6
6DB6
7FB6
6DB6
7F86
001E
FFCC
ENDCHAR
STARTCHAR U_5284
ENCODING 21124
SWIDTH 1000 0
DWIDTH 15 0
BBX 15 14 0 -1
BITMAP
1860
1FFE
3CF0
6798
0E0C
1B0C
31EC
7FEC
006C
3FEC
31EC
318C
3FBC
3198
ENDCHAR
STARTCHAR U_5285
ENCODING 21125
SWIDTH 1000 0
DWIDTH 15 0
BBX 15 14 0 -1
BITMAP
7FC6
6FC6
6FC6
7FF6
3036
7FF6
CCF6
3FF6
3FF6
3FF6
0CF6
0FC6
7FDE
018C
ENDCHAR
STARTCHAR U_5286
ENCODING 21126
SWIDTH 1000 0
DWIDTH 15 0
BBX 15 14 0 -1
BITMAP
0606
7FE6
7986
7FFE
6F1E
7FDE
6FDE
7FFE
6FDE
7FDE
6F9E
DFC6
FF7E
0F0C
ENDCHAR
STARTCHAR U_5287
ENCODING 21127
SWIDTH 1000 0
DWIDTH 15 0
BBX 15 14 0 -1
BITMAP
0C00
0FC6
0C36
7FF6
6CF6
7F36
6CF6
7FF6
6CF6
7FB6
6F36
7F86
CFFE
DE6C
ENDCHAR
STARTCHAR U_5288
ENCODING 21128
SWIDTH 1000 0
DWIDTH 15 0
BBX 15 14 0 -1
BITMAP
7E60
67FC
6798
7EF0
63FC
7E60
F7FC
FE60
3660
7FF8
0630
0630
0CF0
7860
ENDCHAR
STARTCHAR U_5289
ENCODING 21129
SWIDTH 1000 0
DWIDTH 15 0
BBX 15 14 0 -1
BITMAP
1FC6
73C6
63F6
6FF6
7EF6
7FF6
1B36
31B6
7FF6
0C36
7FF6
6D86
3F1E
7FCC
ENDCHAR
STARTCHAR U_528A
ENCODING 21130
SWIDTH 1000 0
DWIDTH 15 0
BBX 15 14 0 -1
BITMAP
0C06
1E06
3336
7FB6
C0F6
7FB6
7FB6
7FB6
0036
3F36
3336
3F06
331E
3F0C
ENDCHAR
STARTCHAR U_528B
ENCODING 21131
SWIDTH 1000 0
DWIDTH 15 0
BBX 15 14 0 -1
BITMAP
0006
3F06
3336
3F36
0036
FFF6
DEF6
FFF6
0C36
FFF6
3F36
6DC6
CCDE
0C0C
ENDCHAR
STARTCHAR U_528C
ENCODING 21132
SWIDTH 1000 0
DWIDTH 15 0
BBX 15 14 0 -1
BITMAP
0606
1FC6
1E1E
7FFE
03DE
7FFE
631E
7FDE
6FDE
7FDE
7F9E
6DE6
DBFE
F666
ENDCHAR
STARTCHAR U_528D
ENCODING 21133
SWIDTH 1000 0
DWIDTH 15 0
BBX 15 14 0 -1
BITMAP
0606
0F06
19B6
30F6
7FF6
0036
7FF6
7EF6
7EF6
7FF6
3186
3186
7BDE
6E6C
ENDCHAR
STARTCHAR U_528E
ENCODING 21134
SWIDTH 1000 0
DWIDTH 15 0
BBX 15 14 0 -1
BITMAP
0C00
0E00
1BFE
30F6
7FB6
C036
7FB6
7FB6
7FB6
3336
3366
7FE6
6CDE
D98C
ENDCHAR
STARTCHAR U_528F
ENCODING 21135
SWIDTH 1000 0
DWIDTH 15 0
BBX 15 14 0 -1
BITMAP
36C6
1F86
7FF6
60F6
DFB6
19B6
1FB6
0036
3FF6
36F6
3FF6
36C6
3FDE
30CC
ENDCHAR
STARTCHAR U_5290
ENCODING 21136
SWIDTH 1000 0
DWIDTH 15 0
BBX 15 14 0 -1
BITMAP
1B06
FFE6
1B36
3636
3FF6
7636
3FB6
3636
3FF6
3636
7FF6
1986
0F1E
79CC
ENDCHAR
STARTCHAR U_5291
ENCODING 21137
SWIDTH 1000 0
DWIDTH 15 0
BBX 15 14 0 -1
BITMAP
0C06
0606
FFFE
0F7E
FFDE
7FFE
7FFE
F7DE
319E
3F9E
319E
3F86
319E
E18C
ENDCHAR
STARTCHAR U_5292
ENCODING 21138
SWIDTH 1000 0
DWIDTH 15 0
BBX 15 14 0 -1
BITMAP
0C00
0E7E
1B1E
31DE
7F1E
C0DE
7FFE
7FFE
7FB6
0036
3336
3366
7F9E
CCCC
ENDCHAR
STARTCHAR U_5293
ENCODING 21139
SWIDTH 1000 0
DWIDTH 15 0
BBX 15 14 0 -1
BITMAP
1806
3F06
3336
3F36
3336
7FB6
6DB6
7FB6
6DB6
7FB6
0036
FFC6
331E
630C
ENDCHAR
STARTCHAR U_5294
ENCODING 21140
SWIDTH 1000 0
DWIDTH 15 0
BBX 15 14 0 -1
BITMAP
1800
3CFC
663C
FF3C
003C
FF3C
FFFC
FF7C
FF3C
363E
366C
7E6C
6FFC
D998
ENDCHAR
STARTCHAR U_5295
ENCODING 21141
SWIDTH 1000 0
DWIDTH 15 0
BBX 15 14 0 -1
BITMAP
3DE6
6306
7FF6
7BF6
DEF6
3FF6
36F6
3BF6
3DF6
36F6
3FF6
0D86
18DE
706C
ENDCHAR
STARTCHAR U_5296
ENCODING 21142
SWIDTH 1000 0
DWIDTH 15 0
BBX 15 14 0 -1
BITMAP
3F06
3306
FFB6
61B6
7FB6
7FB6
77F6
FFF6
3636
FFB6
6D86
7FE6
1FFE
F7EC
ENDCHAR
STARTCHAR U_5297
ENCODING 21143
SWIDTH 1000 0
DWIDTH 15 0
BBX 15 14 0 -1
BITMAP
7F86
7FE6
DFB6
7FF6
7BF6
7FF6
DEF6
3FF6
30F6
3FF6
30F6
3FC6
0F1E
79EC
ENDCHAR
STARTCHAR U_5298
ENCODING 21144
SWIDTH 1000 0
DWIDTH 15 0
BBX 15 14 0 -1
BITMAP
0606
7FE6
799E
7FFE
799E
7FDE
7FFE
6C1E
7FFE
6F1E
7FFE
6F06
FFFE
DB06
ENDCHAR
STARTCHAR U_5299
ENCODING 21145
SWIDTH 1000 0
DWIDTH 15 0
BBX 15 14 0 -1
BITMAP
1806
1FC6
319E
7FFE
3F9E
1FDE
7F7E
36DE
FFFE
FFFE
FFF6
30C6
FBFE
000C
ENDCHAR
STARTCHAR U_529A
ENCODING 21146
SWIDTH 1000 0
DWIDTH 15 0
BBX 15 14 0 -1
BITMAP
7FC6
60C6
7FF6
7FB6
6F36
7FB6
7FF6
7FF6
7FF6
7EF6
7FF6
66C6
DFDE
018C
ENDCHAR
STARTCHAR U_529B
ENCODING 21147
SWIDTH 1000 0
DWIDTH 15 0
BBX 15 14 0 -1
BITMAP
0600
0600
0600
0600
FFF0
0630
0630
0630
0C30
0C30
1830
3030
61E0
C0C0
ENDCHAR
STARTCHAR U_529C
ENCODING 21148
SWIDTH 1000 0
DWIDTH 15 0
BBX 15 14 0 -1
BITMAP
18C0
18C0
18C0
18C0
7FC0
1BC0
1BC0
1BC0
1BC0
1BC0
33C6
33C6
6FC6
C67E
ENDCHAR
STARTCHAR U_529D
ENCODING 21149
SWIDTH 1000 0
DWIDTH 15 0
BBX 15 14 0 -1
BITMAP
0060
0660
FF60
0660
67FC
366C
1E6C
0C6C
0C6C
1ECC
36CC
618C
C33C
0618
ENDCHAR
STARTCHAR U_529E
ENCODING 21150
SWIDTH 1000 0
DWIDTH 15 0
BBX 15 14 0 -1
BITMAP
0300
0300
0300
3FF0
0330
0330
1B38
1B3E
3336
6630
0630
0C30
18F0
7060
ENDCHAR
STARTCHAR U_529F
ENCODING 21151
SWIDTH 1000 0
DWIDTH 15 0
BBX 15 14 0 -1
BITMAP
00C0
00C0
FEC0
30C0
37F8
30D8
30D8
30D8
3198
3F98
E318
0618
0C78
1830
ENDCHAR
STARTCHAR U_52A0
ENCODING 21152
SWIDTH 1000 0
DWIDTH 15 0
BBX 15 14 0 -1
BITMAP
1800
1800
1800
7F7C
1B6C
1B6C
1B6C
1B6C
1B6C
1B6C
336C
337C
6F6C
C600
ENDCHAR
STARTCHAR U_52A1
ENCODING 21153
SWIDTH 1000 0
DWIDTH 15 0
BBX 15 14 0 -1
BITMAP
1800
1800
1FE0
38C0
6D80
0700
1DF8
F600
0600
FFE0
0C60
0C60
19E0
70C0
ENDCHAR
STARTCHAR U_52A2
ENCODING 21154
SWIDTH 1000 0
DWIDTH 15 0
BBX 15 14 0 -1
BITMAP
0030
0030
FFB0
3030
31FE
3F36
3336
3336
3336
3336
3366
3366
7EDE
CD8C
ENDCHAR
STARTCHAR U_52A3
ENCODING 21155
SWIDTH 1000 0
DWIDTH 15 0
BBX 15 14 0 -1
BITMAP
0600
36E0
3638
66D8
C780
0700
1F00
F300
3FF0
0630
0630
0C30
18F0
F060
ENDCHAR
STARTCHAR U_52A4
ENCODING 21156
SWIDTH 1000 0
DWIDTH 15 0
BBX 15 14 0 -1
BITMAP
0730
3C30
3030
30FE
3036
3FB6
3636
3666
3666
3666
36C6
66CC
67BC
C718
ENDCHAR
STARTCHAR U_52A5
ENCODING 21157
SWIDTH 1000 0
DWIDTH 15 0
BBX 15 14 0 -1
BITMAP
3060
1860
1860
FF60
00FE
3C66
3C66
3C66
3C66
3C66
3FC6
3EC6
6DBC
C318
ENDCHAR
STARTCHAR U_52A6
ENCODING 21158
SWIDTH 1000 0
DWIDTH 15 0
BBX 15 14 0 -1
BITMAP
0180
0198
3FFC
0318
06D8
3C70
1860
1B6C
7FFE
1B6C
1B6C
1B6C
33CC
6FB8
ENDCHAR
STARTCHAR U_52A7
ENCODING 21159
SWIDTH 1000 0
DWIDTH 15 0
BBX 15 14 0 -1
BITMAP
0330
07B0
7C30
0C30
0CFE
7F36
0C36
0C36
FFB6
0C66
0C66
0CC6
3CDE
198C
ENDCHAR
STARTCHAR U_52A8
ENCODING 21160
SWIDTH 1000 0
DWIDTH 15 0
BBX 15 14 0 -1
BITMAP
0060
0060
7E60
0060
01FC
FE6C
306C
306C
3C6C
666C
FECC
66CC
01BC
0318
ENDCHAR
STARTCHAR U_52A9
ENCODING 21161
SWIDTH 1000 0
DWIDTH 15 0
BBX 15 14 0 -1
BITMAP
0060
7E60
6660
6660
7FFC
666C
666C
7E6C
666C
66CC
6FCC
F98C
6378
0630
ENDCHAR
STARTCHAR U_52AA
ENCODING 21162
SWIDTH 1000 0
DWIDTH 15 0
BBX 15 14 0 -1
BITMAP
1818
19FC
FF98
36F0
66F0
3C60
1EF0
339C
E300
3FF8
0330
0630
0CF0
7860
ENDCHAR
STARTCHAR U_52AB
ENCODING 21163
SWIDTH 1000 0
DWIDTH 15 0
BBX 15 14 0 -1
BITMAP
1830
1830
1830
7F30
19FE
1836
FFB6
1836
1836
3066
6666
FFC6
63DE
018C
ENDCHAR
STARTCHAR U_52AC
ENCODING 21164
SWIDTH 1000 0
DWIDTH 15 0
BBX 15 14 0 -1
BITMAP
0030
3030
3030
3F30
63FE
FF36
3F36
3F36
3F36
3F36
3F66
0366
0FDE
078C
ENDCHAR
STARTCHAR U_52AD
ENCODING 21165
SWIDTH 1000 0
DWIDTH 15 0
BBX 15 14 0 -1
BITMAP
0060
FE60
3660
3660
37FC
666C
CE6C
006C
7E6C
66CC
66CC
7F8C
67BC
0318
ENDCHAR
STARTCHAR U_52AE
ENCODING 21166
SWIDTH 1000 0
DWIDTH 15 0
BBX 15 14 0 -1
BITMAP
0C30
3C30
3C30
3FB0
6CFE
0C36
0C36
7FF6
0C36
1E36
1B66
31E6
30DE
638C
ENDCHAR
STARTCHAR U_52AF
ENCODING 21167
SWIDTH 1000 0
DWIDTH 15 0
BBX 15 14 0 -1
BITMAP
0030
0030
FF30
19FE
1836
3036
7F36
F336
3366
3366
3FC6
33C6
019E
030C
ENDCHAR
STARTCHAR U_52B0
ENCODING 21168
SWIDTH 1000 0
DWIDTH 15 0
BBX 15 14 0 -1
BITMAP
0030
1830
3030
6030
FFFE
C636
C636
FE36
C636
C666
C666
FEC6
C6DE
018C
ENDCHAR
STARTCHAR U_52B1
ENCODING 21169
SWIDTH 1000 0
DWIDTH 15 0
BBX 15 14 0 -1
BITMAP
0030
7FB0
6030
6030
7FFE
6C36
6C36
6FB6
6DB6
6DB6
6DE6
79E6
DFDE
F18C
ENDCHAR
STARTCHAR U_52B2
ENCODING 21170
SWIDTH 1000 0
DWIDTH 15 0
BBX 15 14 0 -1
BITMAP
0030
FF30
0630
0C30
1CFE
3736
6336
0036
FF36
1866
1866
18C6
1FDE
F18C
ENDCHAR
STARTCHAR U_52B3
ENCODING 21171
SWIDTH 1000 0
DWIDTH 15 0
BBX 15 14 0 -1
BITMAP
0CC0
0CC0
FFFC
0CC0
6000
7FFC
C618
0630
7FF0
0630
0630
0C30
18F0
7060
ENDCHAR
STARTCHAR U_52B4
ENCODING 21172
SWIDTH 1000 0
DWIDTH 15 0
BBX 15 14 0 -1
BITMAP
6618
3318
19B0
7FFE
630C
C318
0300
7FF8
0318
0318
0618
0C18
18F0
7060
ENDCHAR
STARTCHAR U_52B5
ENCODING 21173
SWIDTH 1000 0
DWIDTH 15 0
BBX 15 14 0 -1
BITMAP
3360
1B70
1BC0
7FFC
0300
FFFE
06C0
0F70
3B1E
EFEC
0360
0660
0DE0
18C0
ENDCHAR
STARTCHAR U_52B6
ENCODING 21174
SWIDTH 1000 0
DWIDTH 15 0
BBX 15 14 0 -1
BITMAP
0030
0FB0
7830
6030
7FFE
6036
6036
7FB6
79B6
79B6
79E6
7FE6
C0FC
0198
ENDCHAR
ENDFONT
